<?xml version="1.0" encoding="UTF-8" standalone="no"?>
<svg width="39px" height="38px" viewBox="0 0 39 38" version="1.1" xmlns="http://www.w3.org/2000/svg" xmlns:xlink="http://www.w3.org/1999/xlink">
    <!-- Generator: Sketch 39.1 (31720) - http://www.bohemiancoding.com/sketch -->
    <title>accesories-active</title>
    <desc>Created with Sketch.</desc>
    <defs></defs>
    <g id="category" stroke="none" stroke-width="1" fill="none" fill-rule="evenodd">
        <g id="category-empty-state" transform="translate(-155.000000, -560.000000)" fill="#FFFFFF">
            <g id="Categories" transform="translate(135.000000, 323.000000)">
                <g id="accesories-active" transform="translate(20.000000, 237.000000)">
                    <g id="Capa_1">
                        <path d="M19.8095238,2.85211832 L19.8095238,1.28809623 C19.8095238,0.921963829 19.5328095,0.624812897 19.1904762,0.624812897 C18.8487619,0.624812897 18.5714286,0.921963829 18.5714286,1.28809623 L18.5714286,2.85211832 C8.27604762,3.20432177 0,12.2820174 0,23.3973195 C0,23.4815565 0.00247619048,23.5644669 0.00557142857,23.6480406 L0.0099047619,23.7959528 C0.0148571429,24.1209616 0.239571429,24.393571 0.539190476,24.4413274 C0.84252381,24.4864307 1.12666667,24.2947418 1.21890476,23.9849885 C1.80204762,22.0143737 3.49142857,20.6904602 5.42161905,20.6904602 C7.11533333,20.6904602 8.67966667,21.7543667 9.40580952,23.4019625 C9.50857143,23.6341116 9.72647619,23.7813605 9.96542857,23.7813605 C10.204381,23.7813605 10.4229048,23.6321218 10.5250476,23.4019625 C11.2518095,21.7556932 12.8155238,20.6904602 14.5098571,20.6904602 C16.2914762,20.6904602 17.8811905,21.8266646 18.5720476,23.5850287 L18.5720476,34.5305302 C18.5720476,34.6273695 18.5943333,34.7189026 18.629619,34.8018131 C18.7608571,36.5024715 20.0794286,37.8469468 21.6988571,37.8469468 C23.4068095,37.8469468 24.7940952,36.3598656 24.7940952,34.5305302 C24.7940952,34.1643978 24.518,33.8672468 24.1750476,33.8672468 C23.8333333,33.8672468 23.556,34.1643978 23.556,34.5305302 C23.556,35.6269375 22.7227619,36.5203802 21.6988571,36.5203802 C20.6755714,36.5203802 19.8417143,35.6269375 19.8417143,34.5305302 C19.8417143,34.4721612 19.824381,34.4190986 19.8101429,34.3640461 L19.8101429,23.4497189 C20.5294762,21.7709488 22.0758571,20.6897969 23.8098095,20.6897969 C25.5029048,20.6897969 27.0678571,21.7537034 27.794619,23.4006359 C27.897381,23.6327851 28.1152857,23.7806972 28.353619,23.7806972 C28.5919524,23.7806972 28.8110952,23.6321218 28.9132381,23.4006359 C29.64,21.7543667 31.2037143,20.6897969 32.8980476,20.6897969 C34.8845714,20.6897969 36.633381,22.1258053 37.1515238,24.1833102 C37.2245714,24.4751549 37.4721905,24.6741399 37.7489048,24.6741399 C37.7730476,24.6741399 37.7971905,24.6728133 37.8207143,24.6688336 C38.1252857,24.6310265 38.3574286,24.3590803 38.3679524,24.0300918 L38.3729048,23.87621 C38.3778571,23.717022 38.3828095,23.5584973 38.3828095,23.3966562 C38.3809524,12.2820174 30.1049048,3.20432177 19.8095238,2.85211832 L19.8095238,2.85211832 Z M5.421,19.3632303 C3.84304762,19.3632303 2.39138095,20.0537082 1.35385714,21.2091478 C2.2607619,12.6547827 8.42895238,5.78980019 16.2951905,4.4168037 C9.73266667,9.45510387 9.29190476,18.3318247 9.32038095,21.0618989 C8.28471429,19.9986557 6.89433333,19.3632303 5.421,19.3632303 L5.421,19.3632303 Z M14.5092381,19.3632303 C13.0117619,19.3632303 11.5984762,20.0192175 10.5578571,21.1156248 C10.517619,18.5215237 10.9039048,8.89993573 18.5398571,4.47450935 L18.5398571,21.188586 C17.4992381,20.0457488 16.0642857,19.3632303 14.5092381,19.3632303 L14.5092381,19.3632303 Z M23.8085714,19.3632303 C22.2529048,19.3632303 20.8185714,20.0457488 19.7773333,21.1879227 L19.7773333,4.47384606 C27.4139048,8.89927244 27.8008095,18.5215237 27.7599524,21.113635 C26.7193333,20.0198808 25.3066667,19.3632303 23.8085714,19.3632303 L23.8085714,19.3632303 Z M32.8968095,19.3632303 C31.4234762,19.3632303 30.0337143,19.9986557 28.9974286,21.0625622 C29.0265238,18.3298348 28.5832857,9.43785851 22.0021905,4.40287475 C29.9377619,5.74668677 36.1629048,12.6779976 37.037,21.3073137 C35.9945238,20.0994748 34.5057143,19.3632303 32.8968095,19.3632303 L32.8968095,19.3632303 Z" id="Shape"></path>
                    </g>
                </g>
            </g>
        </g>
    </g>
</svg>