<?xml version="1.0" encoding="UTF-8" standalone="no"?>
<svg width="41px" height="33px" viewBox="0 0 41 33" version="1.1" xmlns="http://www.w3.org/2000/svg" xmlns:xlink="http://www.w3.org/1999/xlink">
    <!-- Generator: Sketch 39.1 (31720) - http://www.bohemiancoding.com/sketch -->
    <title>art-active</title>
    <desc>Created with Sketch.</desc>
    <defs></defs>
    <g id="category" stroke="none" stroke-width="1" fill="none" fill-rule="evenodd">
        <g id="category-empty-state" transform="translate(-155.000000, -413.000000)" fill="#FFFFFF">
            <g id="Categories" transform="translate(135.000000, 323.000000)">
                <g id="art-active" transform="translate(20.000000, 90.000000)">
                    <g id="Layer_1">
                        <g id="Group" transform="translate(0.000000, 0.057423)">
                            <g id="Shape">
                                <g>
                                    <path d="M28.4815574,15.5786074 C28.8092213,15.9285272 29.3385246,15.9195549 29.6661885,15.5696351 C30.2879098,14.8967125 30.9348361,14.7172664 31.2288934,14.8877402 C31.5733607,15.0941031 31.6741803,15.7490811 31.472541,16.4937822 C31.3381148,16.9693142 31.5985656,17.471763 32.0438525,17.6063476 C32.1194672,17.6332645 32.2034836,17.6422368 32.2790984,17.6422368 L32.2790984,17.6422368 C32.6403689,17.6422368 32.9764344,17.3910123 33.0856557,17.0052034 C33.522541,15.3991614 33.1108607,13.9546208 32.0438525,13.3265597 C31.0020492,12.7074709 29.5989754,13.0932798 28.4731557,14.3135129 C28.1454918,14.6634326 28.1538934,15.2286876 28.4815574,15.5786074 L28.4815574,15.5786074 Z"></path>
                                    <path d="M40.8319672,11.2719026 L40.8319672,11.2719026 C40.6639344,11.0296504 40.395082,10.8950659 40.1178279,10.9130105 C36.5555328,11.1104012 32.8504098,10.1683095 29.6829918,8.24823693 C26.65,6.40891508 24.1631148,3.73516919 22.4995902,0.532057489 C22.3651639,0.271860741 22.1131148,0.101387009 21.8358607,0.0744701039 C21.5586066,0.0475531989 21.2897541,0.173165422 21.1133197,0.406445266 C20.0547131,1.79715203 19.2481557,3.07121886 18.6516393,4.30042419 C17.6014344,6.29227516 16.8452869,8.18543082 16.3495902,10.0696142 C14.7532787,10.8143152 13.0477459,11.3347087 11.2581967,11.6218224 C7.82192623,12.1511882 4.24282787,11.6846285 1.19303279,10.2939217 C0.940983607,10.1772818 0.64692623,10.2041987 0.420081967,10.3567278 C0.193237705,10.5092569 0.0420081967,10.778426 0.025204918,11.074512 C-0.0420081967,12.6715817 0.025204918,14.2417344 0.226844262,15.7670257 C1.08381148,21.9489416 3.78913934,27.3771841 7.46065574,30.2842098 C9.28381148,31.7287504 11.2581967,32.4734514 13.2157787,32.4734514 C13.627459,32.4734514 14.0391393,32.4375622 14.4508197,32.3747561 C17.1477459,31.9620302 19.5002049,30.1496253 21.2057377,27.2067104 C22.2139344,27.6284085 23.2977459,27.8347715 24.4319672,27.8347715 C26.2887295,27.8347715 28.279918,27.2695165 30.2795082,26.1569511 C33.707377,24.2458508 36.8159836,20.9171269 39.0340164,16.7719235 C39.042418,16.7629512 39.042418,16.7539789 39.0508197,16.7360343 C39.8153689,15.1569092 40.4538934,13.604701 40.9579918,12.1063266 C41.0420082,11.8281853 41,11.5141547 40.8319672,11.2719026 L40.8319672,11.2719026 Z M20.289959,25.2866378 C20.2815574,25.2956101 20.2815574,25.3045824 20.2731557,25.3135547 C20.2227459,25.41225 20.1723361,25.5109453 20.1219262,25.618613 C18.660041,28.4718049 16.5848361,30.230376 14.1987705,30.5892681 L14.1987705,30.5892681 C12.2831967,30.8943263 10.3004098,30.2931821 8.46045082,28.830697 C5.13340164,26.2018126 2.68012295,21.2221851 1.89036885,15.506829 C1.75594262,14.5019312 1.68872951,13.4701165 1.68032787,12.4113849 C4.73852459,13.5508672 8.18319672,13.900787 11.5018443,13.3893658 C13.7366803,13.0304737 15.8622951,12.3306342 17.8114754,11.3167641 C19.0465164,10.688703 20.1891393,9.93502964 21.2813525,9.03779947 C21.314959,9.172384 21.3569672,9.31594083 21.3905738,9.45052535 C21.3905738,9.45949765 21.3989754,9.46846995 21.3989754,9.48641456 C21.407377,9.53127607 21.4157787,9.56716527 21.432582,9.61202678 C21.4409836,9.64791599 21.4493852,9.67483289 21.4577869,9.7107221 C21.4661885,9.7286667 21.4661885,9.75558361 21.4745902,9.77352821 C21.4829918,9.82736202 21.4997951,9.88119583 21.5081967,9.93502964 C21.7098361,10.8053429 21.8526639,11.6307947 21.9618852,12.3485788 L21.9618852,12.3754957 C22.5584016,17.1397879 21.9534836,21.8233294 20.289959,25.2866378 L20.289959,25.2866378 Z M37.5637295,15.9016103 L37.5637295,15.9016103 C33.614959,23.2768422 26.8264344,27.4310179 22.0038934,25.6096407 C22.0038934,25.6006684 22.0122951,25.6006684 22.0122951,25.5916961 C22.0206967,25.5737515 22.0290984,25.5647792 22.0290984,25.5468346 C22.0543033,25.4840284 22.0879098,25.4212223 22.1131148,25.3584162 C22.129918,25.3135547 22.1467213,25.2776655 22.1635246,25.232804 C22.1971311,25.1610256 22.2223361,25.0892472 22.2559426,25.0084965 C22.2727459,24.9636349 22.2979508,24.9098011 22.3147541,24.8649396 C22.339959,24.7931612 22.3735656,24.7213828 22.3987705,24.6406321 C22.4155738,24.5957706 22.432377,24.5419368 22.457582,24.4970753 C22.4911885,24.4163245 22.5163934,24.3355738 22.5415984,24.2548231 C22.5584016,24.2099616 22.5752049,24.1740724 22.5836066,24.1292109 C22.6172131,24.0305156 22.6508197,23.9407926 22.6844262,23.8420972 C22.6928279,23.8151803 22.7012295,23.7882634 22.7096311,23.7613465 C22.7516393,23.6447066 22.7852459,23.5190944 22.8272541,23.4024545 L22.8272541,23.3934822 C22.9028689,23.1422577 22.9784836,22.8910333 23.0456967,22.6308365 C24.0454918,23.061507 25.1293033,23.2768422 26.1879098,23.2768422 C27.6329918,23.2768422 29.0528689,22.882061 30.2206967,22.0924984 C30.6155738,21.8323017 30.7331967,21.276019 30.4811475,20.8543208 C30.2375,20.4326226 29.7165984,20.3070104 29.3217213,20.5761794 C27.6834016,21.6797725 25.3813525,21.7874402 23.4489754,20.8632931 C23.4489754,20.8632931 23.4489754,20.8632931 23.4405738,20.8632931 C23.9446721,18.1267411 24.0118852,15.1479369 23.6170082,12.1242713 L23.6170082,12.1152989 L23.6170082,12.088382 C23.575,11.819213 23.5245902,11.5410716 23.4741803,11.2449857 C23.9026639,11.0655397 24.3143443,11.074512 24.4991803,11.2719026 C24.7512295,11.5500439 24.7932377,12.1332436 24.6084016,12.8330831 C24.482377,13.3086151 24.7428279,13.8020917 25.1881148,13.9366762 C25.2637295,13.9635931 25.3393443,13.9725654 25.414959,13.9725654 C25.7846311,13.9725654 26.1206967,13.7123686 26.2215164,13.3175874 C26.5827869,11.9448252 26.3979508,10.778426 25.6922131,10.0157804 C25.0704918,9.34285773 24.1043033,9.1544394 23.1129098,9.47744226 C22.944877,8.74171352 22.7348361,7.97009558 22.4827869,7.21642224 C22.3903689,6.93828088 22.1719262,6.72294564 21.9030738,6.65116723 C21.8022541,6.62425032 21.7014344,6.61527802 21.6006148,6.62425032 C21.5754098,6.62425032 21.5502049,6.63322263 21.5334016,6.63322263 C21.525,6.63322263 21.5165984,6.63322263 21.4997951,6.64219493 C21.407377,6.66911183 21.3233607,6.70500104 21.2477459,6.75883485 C21.2393443,6.76780715 21.2309426,6.76780715 21.222541,6.77677945 C21.1973361,6.79472406 21.1637295,6.82164096 21.1385246,6.84855787 C21.0461066,6.93828088 20.9536885,7.0190316 20.8612705,7.09978231 C20.7856557,7.16258843 20.710041,7.23436684 20.6344262,7.29717295 C20.6260246,7.30614525 20.617623,7.30614525 20.617623,7.31511755 C19.9370902,7.89831716 19.2229508,8.43665526 18.4668033,8.92115955 C18.8952869,7.70092653 19.4413934,6.4717212 20.1135246,5.18868206 C20.1219262,5.17970976 20.1219262,5.17073745 20.1303279,5.16176515 C20.5252049,4.3452857 21.0377049,3.49291704 21.6678279,2.58671457 C23.4489754,5.56551873 25.9106557,8.05981859 28.8428279,9.83633432 C31.9178279,11.6936008 35.4465164,12.7074709 38.9247951,12.7613047 C38.5383197,13.7662025 38.0846311,14.8249341 37.5637295,15.9016103 L37.5637295,15.9016103 Z"></path>
                                    <path d="M6.83053279,19.5174478 C7.24221311,19.5174478 7.60348361,19.194445 7.67069672,18.7368576 C7.74631148,18.0818796 8.06557377,17.6691537 8.31762295,17.6422368 C8.72930328,17.6063476 9.19979508,17.9742119 9.49385246,18.5574115 C9.71229508,18.988082 10.2163934,19.1585558 10.6280738,18.9252759 C11.0313525,18.6919961 11.1909836,18.153658 10.972541,17.7140152 C10.3592213,16.4758376 9.25860656,15.7490811 8.16639344,15.8477764 C7.04897541,15.9644164 6.18360656,17.023148 5.99877049,18.5035777 C5.93995902,18.9970543 6.25922131,19.4456694 6.72131148,19.5084755 C6.75491803,19.5174478 6.79692623,19.5174478 6.83053279,19.5174478 L6.83053279,19.5174478 L6.83053279,19.5174478 Z"></path>
                                    <path d="M14.4004098,18.5394669 C14.442418,18.5484392 14.4760246,18.5484392 14.5180328,18.5484392 L14.5180328,18.5484392 C14.9297131,18.5484392 15.2909836,18.2254364 15.3497951,17.7768213 C15.4338115,17.1667048 15.7530738,16.7629512 16.005123,16.7360343 C16.0219262,16.7360343 16.0471311,16.727062 16.0639344,16.727062 C16.4336066,16.6552836 16.8788934,17.0141757 17.1561475,17.6242922 C17.3661885,18.0729073 17.8618852,18.2523533 18.2819672,18.0370181 C18.7020492,17.8127105 18.870082,17.2833447 18.6684426,16.8347296 C18.055123,15.4978567 16.9377049,14.7621279 15.8202869,14.9505463 C14.744877,15.0761585 13.8711066,16.1348901 13.6862705,17.5255969 C13.6190574,18.0190734 13.9383197,18.4676885 14.4004098,18.5394669 L14.4004098,18.5394669 Z"></path>
                                    <path d="M18.9625,21.4375204 C18.5172131,21.3208805 18.055123,21.6079941 17.9375,22.0835261 C17.4418033,24.0933217 15.7530738,25.6365576 13.627459,26.0044219 C11.5102459,26.3005079 9.40143443,25.322527 8.37643443,23.5639559 C8.13278689,23.1422577 7.61188525,23.0166455 7.2170082,23.2768422 C6.82213115,23.537039 6.7045082,24.0933217 6.94815574,24.5150199 C8.17479508,26.6055661 10.4180328,27.8527161 12.8461066,27.8527161 C13.1821721,27.8527161 13.5182377,27.8257992 13.8627049,27.7809377 L13.8879098,27.7809377 C16.6772541,27.2964334 18.9036885,25.2417763 19.567418,22.5321412 C19.6766393,22.0566092 19.4077869,21.5631326 18.9625,21.4375204 L18.9625,21.4375204 Z"></path>
                                </g>
                            </g>
                        </g>
                    </g>
                </g>
            </g>
        </g>
    </g>
</svg>