<?xml version="1.0" encoding="UTF-8" standalone="no"?>
<svg width="30px" height="30px" viewBox="0 0 30 30" version="1.1" xmlns="http://www.w3.org/2000/svg" xmlns:xlink="http://www.w3.org/1999/xlink">
    <!-- Generator: Sketch 39.1 (31720) - http://www.bohemiancoding.com/sketch -->
    <title>Group 5</title>
    <desc>Created with Sketch.</desc>
    <defs></defs>
    <g id="Pages" stroke="none" stroke-width="1" fill="none" fill-rule="evenodd">
        <g id="profile---email-pref" transform="translate(-355.000000, -557.000000)">
            <g id="item-copy-4" transform="translate(335.000000, 546.000000)">
                <g id="Group-5" transform="translate(20.000000, 11.000000)">
                    <rect id="Rectangle-13" fill="#79C930" x="0" y="0" width="30" height="30" rx="4"></rect>
                    <g id="checking" transform="translate(4.000000, 6.000000)" fill="#FFFFFF">
                        <g id="Capa_1">
                            <path d="M22.5266064,0.457872928 C21.9262048,-0.152624309 21.00251,-0.152624309 20.4021084,0.457872928 L7.83985944,13.2313536 L2.5747992,7.92472376 C1.97439759,7.31422652 1.05070281,7.31422652 0.450301205,7.92472376 C-0.150100402,8.53522099 -0.150100402,9.47444751 0.450301205,10.0849448 L6.77761044,16.4716851 C7.05471888,16.753453 7.47038153,16.9412983 7.83985944,16.9412983 C8.20933735,16.9412983 8.625,16.753453 8.90210843,16.4716851 L22.5266064,2.66505525 C23.127008,2.05455801 23.127008,1.06837017 22.5266064,0.457872928 L22.5266064,0.457872928 Z" id="Shape"></path>
                        </g>
                    </g>
                </g>
            </g>
        </g>
    </g>
</svg>