<?xml version="1.0" encoding="UTF-8" standalone="no"?>
<svg width="30px" height="30px" viewBox="0 0 30 30" version="1.1" xmlns="http://www.w3.org/2000/svg" xmlns:xlink="http://www.w3.org/1999/xlink">
    <!-- Generator: Sketch 39.1 (31720) - http://www.bohemiancoding.com/sketch -->
    <title>Group 4</title>
    <desc>Created with Sketch.</desc>
    <defs>
        <rect id="path-1" x="0" y="0" width="30" height="30" rx="4"></rect>
        <mask id="mask-2" maskContentUnits="userSpaceOnUse" maskUnits="objectBoundingBox" x="0" y="0" width="30" height="30" fill="white">
            <use xlink:href="#path-1"></use>
        </mask>
    </defs>
    <g id="category" stroke="none" stroke-width="1" fill="none" fill-rule="evenodd">
        <g id="category-empty-state" transform="translate(-531.000000, -926.000000)">
            <g id="Questions" transform="translate(435.000000, 528.000000)">
                <g id="question-images" transform="translate(0.000000, 206.000000)">
                    <g id="Group-2" transform="translate(41.000000, 94.000000)">
                        <g id="Group-4" transform="translate(55.000000, 98.000000)">
                            <use id="Rectangle-13" stroke="#D5D9DB" mask="url(#mask-2)" stroke-width="2" fill="#FFFFFF" xlink:href="#path-1"></use>
                            <g id="close" transform="translate(9.000000, 9.000000)" fill="#D8DCDE">
                                <g id="Capa_1">
                                    <path d="M7.057,5.9965 L11.773,1.2805 C12.066,0.98775 12.066,0.51275 11.773,0.22 C11.48,-0.073 11.0055,-0.073 10.7125,0.22 L5.9965,4.936 L1.28025,0.22 C0.98725,-0.073 0.51275,-0.073 0.21975,0.22 C-0.07325,0.51275 -0.07325,0.98775 0.21975,1.2805 L4.936,5.9965 L0.21975,10.7125 C-0.07325,11.00525 -0.07325,11.48025 0.21975,11.773 C0.36625,11.91925 0.55825,11.9925 0.75,11.9925 C0.94175,11.9925 1.13375,11.91925 1.28025,11.77275 L5.9965,7.05675 L10.7125,11.77275 C10.859,11.91925 11.051,11.9925 11.24275,11.9925 C11.4345,11.9925 11.6265,11.91925 11.773,11.77275 C12.066,11.48 12.066,11.005 11.773,10.71225 L7.057,5.9965 L7.057,5.9965 Z" id="Shape"></path>
                                </g>
                            </g>
                        </g>
                    </g>
                </g>
            </g>
        </g>
    </g>
</svg>