<?xml version="1.0" encoding="UTF-8" standalone="no"?>
<svg width="30px" height="30px" viewBox="0 0 30 30" version="1.1" xmlns="http://www.w3.org/2000/svg" xmlns:xlink="http://www.w3.org/1999/xlink">
    <!-- Generator: Sketch 39.1 (31720) - http://www.bohemiancoding.com/sketch -->
    <title>Group 5</title>
    <desc>Created with Sketch.</desc>
    <defs>
        <rect id="path-1" x="0" y="0" width="30" height="30" rx="4"></rect>
        <mask id="mask-2" maskContentUnits="userSpaceOnUse" maskUnits="objectBoundingBox" x="0" y="0" width="30" height="30" fill="white">
            <use xlink:href="#path-1"></use>
        </mask>
    </defs>
    <g id="category" stroke="none" stroke-width="1" fill="none" fill-rule="evenodd">
        <g id="category-empty-state" transform="translate(-857.000000, -926.000000)">
            <g id="Questions" transform="translate(435.000000, 528.000000)">
                <g id="question-images" transform="translate(0.000000, 206.000000)">
                    <g id="Group-2-Copy-2" transform="translate(367.000000, 94.000000)">
                        <g id="Group-5" transform="translate(55.000000, 98.000000)">
                            <use id="Rectangle-13" stroke="#D5D9DB" mask="url(#mask-2)" stroke-width="2" fill="#196CA7" xlink:href="#path-1"></use>
                            <g id="checking" transform="translate(4.000000, 6.000000)" fill="#FFFFFF">
                                <g id="Capa_1">
                                    <path d="M22.5266064,0.457872928 C21.9262048,-0.152624309 21.00251,-0.152624309 20.4021084,0.457872928 L7.83985944,13.2313536 L2.5747992,7.92472376 C1.97439759,7.31422652 1.05070281,7.31422652 0.450301205,7.92472376 C-0.150100402,8.53522099 -0.150100402,9.47444751 0.450301205,10.0849448 L6.77761044,16.4716851 C7.05471888,16.753453 7.47038153,16.9412983 7.83985944,16.9412983 C8.20933735,16.9412983 8.625,16.753453 8.90210843,16.4716851 L22.5266064,2.66505525 C23.127008,2.05455801 23.127008,1.06837017 22.5266064,0.457872928 L22.5266064,0.457872928 Z" id="Shape"></path>
                                </g>
                            </g>
                        </g>
                    </g>
                </g>
            </g>
        </g>
    </g>
</svg>