<?xml version="1.0" encoding="UTF-8" standalone="no"?>
<svg width="35px" height="35px" viewBox="0 0 35 35" version="1.1" xmlns="http://www.w3.org/2000/svg" xmlns:xlink="http://www.w3.org/1999/xlink">
    <!-- Generator: Sketch 39.1 (31720) - http://www.bohemiancoding.com/sketch -->
    <title>coins-active</title>
    <desc>Created with Sketch.</desc>
    <defs></defs>
    <g id="category" stroke="none" stroke-width="1" fill="none" fill-rule="evenodd">
        <g id="category-empty-state" transform="translate(-157.000000, -487.000000)" fill="#FFFFFF">
            <g id="Categories" transform="translate(135.000000, 323.000000)">
                <g id="coins-active" transform="translate(22.000000, 164.000000)">
                    <g id="Layer_1">
                        <path d="M32.627219,11.7540937 C32.6687548,11.5559792 32.6911255,11.353125 32.6911255,11.1453854 L32.6911255,6.37940625 C32.6911255,2.25195833 24.2694533,0.0247916667 16.3455286,0.0247916667 C8.42160396,0.0247916667 0,2.25195833 0,6.37940625 C0,6.55746875 0.0167098023,6.73166667 0.0473330727,6.90258333 C0.0183466809,6.98753125 0,7.07809375 0,7.17376042 L0,11.1453854 C0,12.4657604 0.862907833,13.5913021 2.29463098,14.5120937 C2.25179932,14.7121771 2.22895122,14.9142292 2.22895122,15.1169375 C2.22895122,15.295 2.24566103,15.4691979 2.2762843,15.6401875 C2.2472297,15.7251354 2.22895122,15.8156979 2.22895122,15.9113646 L2.22895122,19.8829896 C2.22895122,20.2476458 2.29599504,20.5971354 2.42128446,20.9318958 C1.05026223,22.0180625 0.743006476,23.1053229 0.743006476,23.8546146 C0.743006476,24.0326771 0.759716278,24.206875 0.790339548,24.3777917 C0.761284953,24.4627396 0.743006476,24.5532292 0.743006476,24.6489687 L0.743006476,28.6205937 C0.743006476,32.7480417 9.16467864,34.9752083 17.0886033,34.9752083 C25.012528,34.9752083 33.4342001,32.7480417 33.4342001,28.6205937 L33.4342001,23.8546146 C33.4342001,23.5019896 33.3682476,23.1537396 33.2403664,22.8137292 C34.3002453,21.9807292 34.9200767,21.0018229 34.9200767,19.8829896 L34.9200767,15.1170104 L34.9200767,15.1169375 C34.9200767,14.2422292 34.5099704,12.9715104 32.627219,11.7540937 L32.627219,11.7540937 Z M5.54785898,3.20126042 C8.42092193,2.1774375 12.2557193,1.6135 16.3455286,1.6135 C20.435338,1.6135 24.2699989,2.1774375 27.1431983,3.20126042 C29.686703,4.1076875 31.2051125,5.29579167 31.2051125,6.37940625 C31.2051125,7.46302083 29.686703,8.651125 27.1431983,9.55755208 C24.2699307,10.581375 20.435338,11.1453125 16.3455286,11.1453125 C12.2557193,11.1453125 8.42085373,10.581375 5.54785898,9.55755208 C3.00435425,8.651125 1.48594475,7.46302083 1.48594475,6.37940625 C1.48594475,5.29579167 3.00442246,4.1076875 5.54785898,3.20126042 L5.54785898,3.20126042 Z M31.2051807,9.15220833 L31.2051807,11.1453854 C31.2051807,12.0633333 30.1124279,13.0555833 28.2332912,13.8887292 L28.2332912,10.8286354 C29.4308725,10.3548229 30.4468967,9.79504167 31.2051807,9.15220833 L31.2051807,9.15220833 Z M26.7472783,11.3456875 L26.7472783,14.4578437 C25.837583,14.7598646 24.8403147,15.0177708 23.7753888,15.2288646 L23.7753888,12.0671979 C24.8224455,11.8696667 25.821487,11.6288229 26.7472783,11.3456875 L26.7472783,11.3456875 Z M22.289444,12.3145312 L22.289444,15.4873542 C21.3363033,15.630125 20.3418995,15.7383333 19.3175545,15.8094271 L19.3175545,12.630625 C20.3243031,12.5605521 21.3209575,12.4548958 22.289444,12.3145312 L22.289444,12.3145312 Z M17.8315416,12.7081354 L17.8315416,15.8859896 C17.340819,15.9026146 16.8451858,15.9112917 16.3455968,15.9112917 C15.8460078,15.9112917 15.3503064,15.9026146 14.8596521,15.8859896 L14.8596521,12.7080625 C15.3554899,12.7252708 15.8514641,12.7339479 16.3455968,12.7339479 C16.8396614,12.7340208 17.3357038,12.7253437 17.8315416,12.7081354 L17.8315416,12.7081354 Z M13.3736391,12.630625 L13.3736391,15.8095 C12.3492942,15.7383333 11.3548222,15.6301979 10.4016814,15.4874271 L10.4016814,12.3146042 C11.3701679,12.4548958 12.3668224,12.5605521 13.3736391,12.630625 L13.3736391,12.630625 Z M8.91573669,12.0672708 L8.91573669,15.2289375 C7.85081076,15.0177708 6.85347427,14.7599375 5.94384719,14.4579167 L5.94384719,11.3456875 C6.86963845,11.6288229 7.86874822,11.8697396 8.91573669,12.0672708 L8.91573669,12.0672708 Z M1.48594475,11.1453854 L1.48594475,9.15220833 C2.24422876,9.79504167 3.26025294,10.3548229 4.45783424,10.8286354 L4.45783424,13.8887292 C2.57869762,13.0555833 1.48594475,12.0633333 1.48594475,11.1453854 L1.48594475,11.1453854 Z M3.71489597,17.8896667 C4.47317998,18.5325 5.48920416,19.0922813 6.68678547,19.5660938 L6.68678547,22.6262604 C4.80764884,21.7931146 3.71489597,20.8008646 3.71489597,19.8829167 L3.71489597,17.8896667 L3.71489597,17.8896667 Z M5.20084072,31.3639375 C3.32170409,30.5307917 2.22895122,29.5385417 2.22895122,28.6205938 L2.22895122,26.6274167 C2.98723523,27.27025 4.00325942,27.8300313 5.20084072,28.3038438 L5.20084072,31.3639375 L5.20084072,31.3639375 Z M9.65874317,32.7041458 C8.59381723,32.4929792 7.59648075,32.2351458 6.68685367,31.933125 L6.68685367,28.8208958 C7.61264492,29.1039583 8.61175469,29.344875 9.65874317,29.5424792 L9.65874317,32.7041458 L9.65874317,32.7041458 Z M14.1166456,33.2846354 C13.0923006,33.2134688 12.0978287,33.1052604 11.1446879,32.9625625 L11.1446879,29.7897396 C12.1131744,29.9300313 13.1098289,30.0356875 14.1166456,30.1058333 L14.1166456,33.2846354 L14.1166456,33.2846354 Z M18.5744799,33.3611979 C18.0837573,33.3778229 17.5881241,33.3865 17.0885351,33.3865 C16.5889461,33.3865 16.0932447,33.3778229 15.6025904,33.3611979 L15.6025904,30.1833437 C16.0984282,30.2005521 16.5944024,30.2092292 17.0885351,30.2092292 C17.5826678,30.2092292 18.078642,30.2005521 18.5744799,30.1833437 L18.5744799,33.3611979 L18.5744799,33.3611979 Z M23.0323823,32.9625625 C22.0792415,33.1053333 21.0848378,33.2135417 20.0604928,33.2846354 L20.0604928,30.1058333 C21.0673095,30.0357604 22.063964,29.9301042 23.0323823,29.7898125 L23.0323823,32.9625625 L23.0323823,32.9625625 Z M27.4902847,31.9330521 C26.5805895,32.2350729 25.5833212,32.4929792 24.5183953,32.7040729 L24.5183953,29.5424063 C25.5654519,29.344875 26.5645617,29.1039583 27.4902847,28.8208958 L27.4902847,31.9330521 L27.4902847,31.9330521 Z M31.9481872,28.6205938 C31.9481872,29.5385417 30.8554343,30.5307917 28.9762977,31.3639375 L28.9762977,28.3038438 C30.1739472,27.8299583 31.1899714,27.27025 31.9481872,26.6274167 L31.9481872,28.6205938 L31.9481872,28.6205938 Z M27.886273,27.0327604 C25.0130054,28.0565833 21.1784127,28.6205208 17.0886033,28.6205208 C12.9987939,28.6205208 9.16392841,28.0565833 6.29093366,27.0327604 C3.74742893,26.1263333 2.22901943,24.9382292 2.22901943,23.8546146 C2.22901943,23.2328542 2.7325642,22.6643229 3.26823272,22.2352083 C5.75662921,24.8496354 12.3201032,26.2376042 18.5746163,26.2376042 C23.5762352,26.2376042 28.7753026,25.3499167 31.9303861,23.657375 C31.9413669,23.7232917 31.9482554,23.7889896 31.9482554,23.8546146 C31.9481872,24.9383021 30.4297095,26.1263333 27.886273,27.0327604 L27.886273,27.0327604 Z M8.17279842,23.1955208 L8.17279842,20.0832188 C9.09858967,20.3662813 10.0976994,20.6071979 11.1446879,20.8047292 L11.1446879,23.9665417 C10.079762,23.7554479 9.08242549,23.4975417 8.17279842,23.1955208 L8.17279842,23.1955208 Z M12.6307009,24.2250313 L12.6307009,21.0520625 C13.5991874,21.1923542 14.5958418,21.2980104 15.6025904,21.3681563 L15.6025904,24.5471042 C14.5782454,24.4759375 13.5837734,24.3677292 12.6307009,24.2250313 L12.6307009,24.2250313 Z M17.0885351,24.6235938 L17.0885351,21.4455938 C17.5843729,21.4628021 18.0803471,21.4714792 18.5744799,21.4714792 C19.0686126,21.4714792 19.5645868,21.4628021 20.0604246,21.4455938 L20.0604246,24.6235938 C19.569702,24.6402188 19.0740688,24.6488958 18.5744799,24.6488958 C18.0748909,24.6488958 17.5792577,24.6402188 17.0885351,24.6235938 L17.0885351,24.6235938 Z M21.5464376,24.5470313 L21.5464376,21.3680833 C22.5532543,21.2980104 23.5499088,21.1923542 24.518327,21.0519896 L24.518327,24.2249583 C23.5652545,24.3677292 22.5707825,24.4759375 21.5464376,24.5470313 L21.5464376,24.5470313 Z M26.00434,23.9665417 L26.00434,20.8047292 C27.0513967,20.6071979 28.0505064,20.3662813 28.9762295,20.0832188 L28.9762295,23.1955208 C28.0665342,23.4975417 27.0692659,23.7554479 26.00434,23.9665417 L26.00434,23.9665417 Z M33.4341319,19.8829896 C33.4341319,20.8009375 32.3413791,21.7931875 30.4622424,22.6263333 L30.4622424,19.5661667 C31.659892,19.0922812 32.6759161,18.5325729 33.4341319,17.8897396 L33.4341319,19.8829896 L33.4341319,19.8829896 Z M29.3722177,18.2950833 C26.4991548,19.3189792 22.6643574,19.8828437 18.5745481,19.8828437 C14.4847387,19.8828437 10.6498732,19.3189792 7.77687841,18.2950833 C5.36439217,17.4353958 3.87667414,16.3223229 3.72955968,15.2853021 C6.92004067,16.7398437 11.7172544,17.5 16.3455968,17.5 C22.8590096,17.5 29.707505,15.9948542 31.9396618,13.1667083 C32.9069888,13.8090312 33.4341319,14.4921146 33.4341319,15.1169375 C33.4341319,16.2005521 31.9156542,17.3886562 29.3722177,18.2950833 L29.3722177,18.2950833 Z" id="Shape"></path>
                    </g>
                </g>
            </g>
        </g>
    </g>
</svg>