<?xml version="1.0" encoding="UTF-8" standalone="no"?>
<svg width="15px" height="13px" viewBox="0 0 15 13" version="1.1" xmlns="http://www.w3.org/2000/svg" xmlns:xlink="http://www.w3.org/1999/xlink">
    <!-- Generator: Sketch 39.1 (31720) - http://www.bohemiancoding.com/sketch -->
    <title>marketing</title>
    <desc>Created with Sketch.</desc>
    <defs></defs>
    <g id="Pages" stroke="none" stroke-width="1" fill="none" fill-rule="evenodd">
        <g id="dahsboard" transform="translate(-515.000000, -1015.000000)" fill="#303030">
            <g id="personal-data-copy-3" transform="translate(135.000000, 937.000000)">
                <g id="fav" transform="translate(40.000000, 72.000000)">
                    <g id="marketing" transform="translate(340.000000, 6.000000)">
                        <g id="Layer_1">
                            <path d="M13.1692676,3.11106608 L13.1692676,0.752167401 C13.1692676,0.492396476 13.0325098,0.25888326 12.8034375,0.127537445 C12.5734863,-0.00432378855 12.2968945,-0.00704405286 12.0636621,0.120464758 C9.83639648,1.33788326 7.41351563,2.04884581 4.86234375,2.23373789 C4.84280273,2.23514097 2.53699219,2.24499119 2.53699219,2.24499119 C1.95788086,2.24499119 1.47922852,2.67230176 1.41298828,3.2211652 L0.939697266,3.2211652 C0.421582031,3.2211652 0,3.63315639 0,4.1395837 L0,6.15738987 C0,6.66381718 0.421582031,7.075837 0.939697266,7.075837 L1.41292969,7.075837 C1.460625,7.47084802 1.72183594,7.802663 2.08045898,7.9577467 L3.76458984,12.5005308 C3.86985352,12.7832952 4.14741211,12.9733128 4.45535156,12.9733128 L6.14540039,12.9733128 C6.38499023,12.9733128 6.61004883,12.858804 6.74748047,12.667011 C6.88491211,12.4751608 6.91804687,12.2292775 6.83625,12.0095661 L5.38930664,8.10850661 C7.74717773,8.3479185 9.99005859,9.04201542 12.0636328,10.1754207 C12.1780371,10.2379581 12.3028711,10.269141 12.4275,10.269141 C12.5569043,10.2691123 12.6861914,10.2354956 12.8033496,10.1683194 C13.0324219,10.0369449 13.1692383,9.80346035 13.1692383,9.54363216 L13.1692383,7.18473348 C14.2005176,7.05416079 15,6.19086344 15,5.1479141 C15,4.10493612 14.2005176,3.24161013 13.1692676,3.11106608 L13.1692676,3.11106608 Z M1.40481445,6.36748018 L0.939697266,6.36748018 C0.821132812,6.36748018 0.724716797,6.27324449 0.724716797,6.15736123 L0.724716797,4.1395837 C0.724716797,4.02378634 0.821132812,3.92949339 0.939697266,3.92949339 L1.40481445,3.92949339 L1.40481445,6.36748018 L1.40481445,6.36748018 Z M2.37099609,7.30877753 C2.22890625,7.24652643 2.12953125,7.10722026 2.12953125,6.94546476 L2.12953125,3.35148018 L2.12956055,3.35148018 C2.12956055,3.13194053 2.31234375,2.95331938 2.53696289,2.95331938 L4.50960937,2.95331938 L4.50960937,7.34365419 C4.50960937,7.34365419 2.51976562,7.34290969 2.51118164,7.34239427 C2.43849609,7.33417621 2.42320312,7.33051101 2.37099609,7.30877753 L2.37099609,7.30877753 Z M6.15500977,12.2512974 C6.15618164,12.2541894 6.15694336,12.2562511 6.15380859,12.2605749 C6.15073242,12.2648987 6.14844727,12.2648987 6.14537109,12.2648987 L4.45532227,12.2648987 C4.45101563,12.2648987 4.44706055,12.2622357 4.44574219,12.2587423 L2.88618164,8.05195374 L4.59744141,8.05195374 L6.15500977,12.2512974 L6.15500977,12.2512974 Z M12.4445508,9.54366079 C12.4445508,9.54878634 12.4445508,9.55288106 12.4367285,9.55737665 C12.4274121,9.56264537 12.4218457,9.55963877 12.4173926,9.55720485 C10.189834,8.33967181 7.77474609,7.60877974 5.23432617,7.38213877 L5.23432617,2.91403304 C7.77495117,2.68704846 10.1900391,1.95609912 12.4173047,0.738680617 C12.421875,0.736246696 12.4275293,0.733240088 12.4367285,0.738508811 C12.4445508,0.743004405 12.4445508,0.74704185 12.4445508,0.752167401 L12.4445508,9.54366079 L12.4445508,9.54366079 Z M13.1692676,6.46772907 L13.1692676,3.82807048 C13.7992383,3.95159912 14.2752832,4.49636784 14.2752832,5.14788546 C14.2752832,5.79943172 13.799209,6.34422907 13.1692676,6.46772907 L13.1692676,6.46772907 Z" id="Shape"></path>
                        </g>
                    </g>
                </g>
            </g>
        </g>
    </g>
</svg>