<?xml version="1.0" encoding="UTF-8" standalone="no"?>
<svg width="21px" height="12px" viewBox="0 0 21 12" version="1.1" xmlns="http://www.w3.org/2000/svg" xmlns:xlink="http://www.w3.org/1999/xlink">
    <!-- Generator: Sketch 39.1 (31720) - http://www.bohemiancoding.com/sketch -->
    <title>eye</title>
    <desc>Created with Sketch.</desc>
    <defs></defs>
    <g id="Pages" stroke="none" stroke-width="1" fill="none" fill-rule="evenodd">
        <g id="dahsboard" transform="translate(-474.000000, -1016.000000)" fill="#303030">
            <g id="personal-data-copy-3" transform="translate(135.000000, 937.000000)">
                <g id="fav" transform="translate(40.000000, 72.000000)">
                    <g id="eye" transform="translate(299.000000, 7.000000)">
                        <g id="Layer_1">
                            <path d="M20.6199572,5.00938356 C19.4459591,3.49528767 17.9252568,2.24289041 16.2223366,1.38768493 C14.4839942,0.514684932 12.6138911,0.0617260274 10.6616673,0.0379726027 C10.6079008,0.0364931507 10.3920175,0.0364931507 10.338251,0.0379726027 C8.38606809,0.0617671233 6.51592412,0.514684932 4.77758171,1.38768493 C3.07466148,2.24289041 1.55404086,3.49524658 0.380001946,5.00938356 C-0.0722743191,5.59265753 -0.0722743191,6.40738356 0.380001946,6.99065753 C1.554,8.50475342 3.07466148,9.75715068 4.77758171,10.6123562 C6.51592412,11.4853562 8.38602724,11.9383151 10.338251,11.9620685 C10.3920175,11.9635479 10.6079008,11.9635479 10.6616673,11.9620685 C12.6138502,11.938274 14.4839942,11.4853562 16.2223366,10.6123562 C17.9252568,9.75715068 19.4459183,8.50479452 20.6199572,6.99065753 C21.0722335,6.40730137 21.0722335,5.59265753 20.6199572,5.00938356 L20.6199572,5.00938356 Z M5.15774708,9.84653425 C3.56763035,9.0479589 2.14755642,7.87836986 1.0510214,6.46421918 C0.839101167,6.19089041 0.839101167,5.80915068 1.0510214,5.53582192 C2.14751556,4.12167123 3.56758949,2.95208219 5.15774708,2.15350685 C5.60936965,1.92673973 6.07055253,1.73063014 6.54027432,1.56460274 C5.33183463,2.65726027 4.57048249,4.24076712 4.57048249,6 C4.57048249,7.75931507 5.33187549,9.34294521 6.54043774,10.4355616 C6.07071595,10.2695342 5.60941051,10.0733425 5.15774708,9.84653425 L5.15774708,9.84653425 Z M10.5,11.1083425 C7.69964591,11.1083425 5.42143191,8.81675342 5.42143191,5.9999589 C5.42143191,3.18316438 7.69964591,0.891616438 10.5,0.891616438 C13.3003541,0.891616438 15.5785681,3.18320548 15.5785681,6 C15.5785681,8.81679452 13.3003541,11.1083425 10.5,11.1083425 L10.5,11.1083425 Z M19.9489786,6.46417808 C18.8524844,7.87832877 17.4324105,9.04791781 15.8422529,9.84649315 C15.3911615,10.0730137 14.9302646,10.2682603 14.4611148,10.4341233 C15.6687374,9.34150685 16.4295175,7.75849315 16.4295175,5.9999589 C16.4295175,4.24047945 15.6679611,2.65676712 14.4593171,1.56410959 C14.9291615,1.73017808 15.3905486,1.92653425 15.8422938,2.15342466 C17.4324105,2.952 18.8524844,4.12158904 19.9490195,5.53573973 C20.1608988,5.80910959 20.1608988,6.19084932 19.9489786,6.46417808 L19.9489786,6.46417808 Z" id="Shape"></path>
                            <path d="M10.5,3.81386301 C9.30161089,3.81386301 8.32666342,4.79453425 8.32666342,5.9999589 C8.32666342,7.20538356 9.30161089,8.18605479 10.5,8.18605479 C11.6983891,8.18605479 12.6733366,7.20538356 12.6733366,5.9999589 C12.6733774,4.79453425 11.69843,3.81386301 10.5,3.81386301 L10.5,3.81386301 Z M10.5,7.33015068 C9.77084241,7.33015068 9.17757198,6.73347945 9.17757198,5.9999589 C9.17757198,5.26647945 9.7707607,4.66980822 10.5,4.66980822 C11.2291576,4.66980822 11.8223872,5.26647945 11.8223872,5.9999589 C11.822428,6.73347945 11.2291576,7.33015068 10.5,7.33015068 L10.5,7.33015068 Z" id="Shape"></path>
                        </g>
                    </g>
                </g>
            </g>
        </g>
    </g>
</svg>