<?xml version="1.0" encoding="UTF-8" standalone="no"?>
<svg width="20px" height="19px" viewBox="0 0 20 19" version="1.1" xmlns="http://www.w3.org/2000/svg" xmlns:xlink="http://www.w3.org/1999/xlink">
    <!-- Generator: Sketch 39.1 (31720) - http://www.bohemiancoding.com/sketch -->
    <title>star</title>
    <desc>Created with Sketch.</desc>
    <defs></defs>
    <g id="Pages" stroke="none" stroke-width="1" fill="none" fill-rule="evenodd" opacity="0.793435168">
        <g id="assesment-results" transform="translate(-195.000000, -404.000000)" fill="#FFFFFF">
            <g id="res" transform="translate(185.000000, 377.000000)">
                <g id="Group-3" transform="translate(0.000000, 4.000000)">
                    <g id="star" transform="translate(10.000000, 23.000000)">
                        <g id="Capa_1">
                            <path d="M19.5424,8.60185417 C19.9356,8.22264583 20.0744,7.66610417 19.9048,7.14875 C19.7348,6.63139583 19.292,6.26208333 18.748,6.18370833 L13.9112,5.48822917 C13.7052,5.45854167 13.5272,5.3306875 13.4352,5.14583333 L11.2728,0.8086875 C11.03,0.321416667 10.5372,0.0186041667 9.988,0.0186041667 C9.4392,0.0186041667 8.9464,0.321416667 8.7036,0.8086875 L6.5408,5.14583333 C6.4488,5.3306875 6.2704,5.45854167 6.0644,5.48822917 L1.2276,6.18410417 C0.684,6.26208333 0.2412,6.63139583 0.0712,7.14875 C-0.0984,7.66610417 0.0404,8.22264583 0.4336,8.60185417 L3.9332,11.9775208 C4.0824,12.1216042 4.1508,12.3290208 4.1156,12.5316875 L3.2896,17.2987083 C3.1968,17.8342708 3.4148,18.3650833 3.8592,18.6849167 C4.3032,19.0051458 4.8812,19.0467083 5.368,18.7929792 L9.6936,16.5422708 C9.878,16.4464792 10.098,16.4464792 10.2824,16.5422708 L14.6084,18.7929792 C14.8196,18.9030208 15.0484,18.95725 15.276,18.95725 C15.5716,18.95725 15.866,18.8658125 16.1172,18.6849167 C16.5616,18.3650833 16.7796,17.8342708 16.6868,17.2987083 L15.8604,12.5320833 C15.8252,12.3290208 15.8936,12.122 16.0428,11.9779167 L19.5424,8.60185417 L19.5424,8.60185417 Z M15.0724,12.665875 L15.8984,17.4325 C15.94,17.672375 15.846,17.9015625 15.6468,18.0448542 C15.4472,18.18775 15.1988,18.2051667 14.9808,18.09275 L10.6548,15.8416458 C10.4464,15.7335833 10.2168,15.6789583 9.988,15.6789583 C9.7592,15.6789583 9.53,15.7335833 9.3212,15.8420417 L4.996,18.09275 C4.7772,18.2051667 4.5288,18.18775 4.3296,18.0448542 C4.1304,17.9015625 4.0368,17.6727708 4.078,17.4325 L4.904,12.665875 C4.9836,12.2059167 4.8296,11.7364583 4.492,11.4110833 L0.992,8.03502083 C0.8156,7.8648125 0.7556,7.6249375 0.832,7.393375 C0.908,7.16141667 1.0988,7.00229167 1.3424,6.9670625 L6.1788,6.27158333 C6.6456,6.2046875 7.0492,5.9149375 7.2576,5.49614583 L9.4204,1.159 C9.5292,0.9405 9.7416,0.810270833 9.9876,0.810270833 C10.234,0.810270833 10.446,0.9405 10.5552,1.159 L12.718,5.49614583 C12.9264,5.9149375 13.3296,6.2046875 13.7964,6.27158333 L18.6332,6.9670625 C18.8768,7.00229167 19.0676,7.16141667 19.1436,7.393375 C19.2196,7.6249375 19.16,7.8648125 18.9836,8.03502083 L15.484,11.4106875 C15.1464,11.7364583 14.9924,12.2055208 15.0724,12.665875 L15.0724,12.665875 Z" id="Shape"></path>
                        </g>
                    </g>
                </g>
            </g>
        </g>
    </g>
</svg>