<?xml version="1.0" encoding="UTF-8" standalone="no"?>
<svg width="15px" height="15px" viewBox="0 0 15 15" version="1.1" xmlns="http://www.w3.org/2000/svg" xmlns:xlink="http://www.w3.org/1999/xlink">
    <!-- Generator: Sketch 39.1 (31720) - http://www.bohemiancoding.com/sketch -->
    <title>people</title>
    <desc>Created with Sketch.</desc>
    <defs></defs>
    <g id="Pages" stroke="none" stroke-width="1" fill="none" fill-rule="evenodd" opacity="0.498542444">
        <g id="dahsboard" transform="translate(-711.000000, -582.000000)" fill="#000000">
            <g id="cities" transform="translate(435.000000, 502.000000)">
                <g id="res" transform="translate(42.000000, 80.000000)">
                    <g id="Group-2" transform="translate(234.000000, 0.000000)">
                        <g id="people">
                            <g id="Capa_1">
                                <g id="Group">
                                    <path d="M3.80835561,8.59681818 C3.80835561,7.82181818 4.07163547,7.10621212 4.51459447,6.52772727 C4.05073529,6.12272727 3.43948307,5.87424242 2.76693405,5.87424242 C1.32076649,5.87424242 0.148328877,7.01333333 0.148328877,8.4180303 C0.148328877,8.4180303 0.764416221,13.7628788 2.76693405,13.7628788 C3.54086453,13.7628788 4.107041,12.9637879 4.51131907,11.9842424 C4.03950535,10.4762121 3.84875223,8.97090909 3.81131907,8.6469697 L3.80835561,8.59681818 L3.80835561,8.59681818 Z" id="Shape"></path>
                                    <path d="M2.76693405,5.69 C3.64302585,5.69 4.4051025,5.21651515 4.79768271,4.51893939 C4.40572638,4.00181818 4.17286096,3.36454545 4.17286096,2.67454545 C4.17286096,2.36151515 4.22168004,2.05939394 4.31042781,1.77409091 C3.90100267,1.41681818 3.36087344,1.19712121 2.76693405,1.19712121 C1.48983957,1.19712121 0.454500891,2.2030303 0.454500891,3.44363636 C0.454500891,4.68409091 1.48983957,5.69 2.76693405,5.69 L2.76693405,5.69 Z" id="Shape"></path>
                                    <path d="M12.00918,5.87424242 C11.336631,5.87424242 10.7255348,6.12272727 10.2615196,6.52772727 C10.7047906,7.10621212 10.9677585,7.82181818 10.9677585,8.59681818 L10.964795,8.64681818 C10.9273619,8.97106061 10.7366087,10.4760606 10.264795,11.9840909 C10.6690731,12.9636364 11.2352496,13.7627273 12.00918,13.7627273 C14.0116979,13.7627273 14.6277852,8.41787879 14.6277852,8.41787879 C14.6277852,7.01333333 13.4553476,5.87424242 12.00918,5.87424242 L12.00918,5.87424242 Z" id="Shape"></path>
                                    <path d="M9.97858734,4.51878788 C10.3711676,5.21636364 11.1329323,5.68984848 12.009336,5.68984848 C13.2864305,5.68984848 14.3217692,4.68393939 14.3217692,3.44348485 C14.3217692,2.20287879 13.2862745,1.1969697 12.009336,1.1969697 C11.4152406,1.1969697 10.8752674,1.41651515 10.4658422,1.77393939 C10.554434,2.05939394 10.6035651,2.36136364 10.6035651,2.67439394 C10.6032531,3.36439394 10.3703877,4.00166667 9.97858734,4.51878788 L9.97858734,4.51878788 Z" id="Shape"></path>
                                    <path d="M7.38805704,5.56833333 C5.66628788,5.56833333 4.27049911,6.92424242 4.27049911,8.59681818 C4.27049911,8.59681818 5.00418895,14.96 7.38805704,14.96 C9.77192513,14.96 10.505459,8.59681818 10.505459,8.59681818 C10.505459,6.92424242 9.1098262,5.56833333 7.38805704,5.56833333 L7.38805704,5.56833333 Z" id="Shape"></path>
                                    <ellipse id="Oval" cx="7.38805704" cy="2.67439394" rx="2.75305258" ry="2.67439394"></ellipse>
                                </g>
                            </g>
                        </g>
                    </g>
                </g>
            </g>
        </g>
    </g>
</svg>