<?xml version="1.0" encoding="UTF-8" standalone="no"?>
<svg width="10px" height="16px" viewBox="0 0 10 16" version="1.1" xmlns="http://www.w3.org/2000/svg" xmlns:xlink="http://www.w3.org/1999/xlink">
    <!-- Generator: Sketch 39.1 (31720) - http://www.bohemiancoding.com/sketch -->
    <title>old-man-with-hat-walking-with-cane</title>
    <desc>Created with Sketch.</desc>
    <defs></defs>
    <g id="Pages" stroke="none" stroke-width="1" fill="none" fill-rule="evenodd" opacity="0.498542444">
        <g id="dahsboard" transform="translate(-714.000000, -605.000000)" fill="#010002">
            <g id="cities" transform="translate(435.000000, 502.000000)">
                <g id="res" transform="translate(42.000000, 80.000000)">
                    <g id="Group-2" transform="translate(234.000000, 0.000000)">
                        <g id="old-man-with-hat-walking-with-cane" transform="translate(8.000000, 31.000000) scale(-1, 1) translate(-8.000000, -31.000000) translate(3.000000, 23.000000)">
                            <g id="Capa_1">
                                <g id="Group">
                                    <path d="M9.47257143,6.45236364 C9.67485714,6.58298182 9.38057143,6.31127273 9.32485714,6.23650909 C9.12828571,5.97265455 8.94428571,5.70036364 8.75942857,5.42865455 C8.54142857,5.10778182 8.32714286,4.784 8.11657143,4.45818182 C7.84428571,4.03723636 7.28914286,3.98487273 6.84628571,3.87083636 C6.23314286,3.71316364 5.616,3.57352727 4.99085714,3.47985455 C3.89771429,3.08363636 2.456,4.29643636 3.21114286,5.61105455 C3.23885714,5.65934545 3.26571429,5.70821818 3.29314286,5.75650909 C2.718,6.50327273 1.85257143,6.78109091 0.773714286,6.66618182 C0.111428571,6.59549091 -0.0462857143,7.37134545 0.288857143,7.79752727 L0.288857143,15.8405818 L0.773714286,15.8405818 L0.773714286,8.06167273 C2.08342857,8.20101818 3.18542857,7.81701818 3.994,7.01847273 C4.32314286,7.62734545 4.644,8.24058182 4.95657143,8.85847273 C4.10114286,9.45890909 3.354,10.1861818 2.69942857,11.0237091 C2.47457143,11.3111273 2.47542857,11.6096 2.60057143,11.8498909 C2.59571429,11.9345455 2.60371429,12.0258909 2.628,12.1236364 C2.88,13.1380364 3.13171429,14.1527273 3.38371429,15.1674182 C3.65142857,16.2493091 5.332,15.9406545 5.06228571,14.8532364 C4.81028571,13.8385455 4.55857143,12.8235636 4.30657143,11.8088727 C4.30371429,11.7969455 4.3,11.7861818 4.29657143,11.7742545 C4.83314286,11.1328 5.45628571,10.5669818 6.15942857,10.1207273 C6.24428571,11.8117818 6.32914286,13.6072727 6.41457143,15.1720727 C6.47571429,16.2906182 8.18085714,16.2033455 8.11942857,15.0813091 C8.00285714,12.9277091 7.88571429,10.3392 7.76828571,8.18589091 C7.75771429,7.98952727 7.69571429,7.83127273 7.60257143,7.70850909 C7.57457143,7.61309091 7.53742857,7.51650909 7.48885714,7.41905455 C7.15685714,6.76072727 6.81485714,6.10705455 6.46257143,5.45861818 C6.61057143,5.49876364 6.75771429,5.53978182 6.90457143,5.5808 C7.38685714,6.3776 7.92085714,7.39549091 8.65742857,7.87170909 C9.54,8.44305455 10.3497143,7.01905455 9.47257143,6.45236364 L9.47257143,6.45236364 Z" id="Shape"></path>
                                    <path d="M4.06457143,0.918109091 C3.84428571,0.2112 3.06457143,-0.167854545 2.32371429,0.0718545455 C1.58285714,0.311854545 1.16114286,1.07927273 1.38171429,1.78618182 L4.06457143,0.918109091 L4.06457143,0.918109091 Z" id="Shape"></path>
                                    <path d="M0.764571429,2.70225455 L5.08828571,1.30327273 C5.15285714,1.28232727 5.19542857,1.23316364 5.18342857,1.19330909 L4.20028571,1.04727273 L1.40371429,1.95229091 L0.624571429,2.66821818 C0.637142857,2.70836364 0.699714286,2.7232 0.764571429,2.70225455 L0.764571429,2.70225455 Z" id="Shape"></path>
                                    <path d="M3.43028571,3.50312727 C4.15942857,3.2672 4.562,2.47389091 4.33,1.73178182 L1.69085714,2.58763636 C1.92257143,3.32945455 2.702,3.73992727 3.43028571,3.50312727 L3.43028571,3.50312727 Z" id="Shape"></path>
                                </g>
                            </g>
                        </g>
                    </g>
                </g>
            </g>
        </g>
    </g>
</svg>