<?xml version="1.0" encoding="UTF-8" standalone="no"?>
<svg width="37px" height="45px" viewBox="0 0 37 45" version="1.1" xmlns="http://www.w3.org/2000/svg" xmlns:xlink="http://www.w3.org/1999/xlink">
    <!-- Generator: Sketch 39.1 (31720) - http://www.bohemiancoding.com/sketch -->
    <title>note</title>
    <desc>Created with Sketch.</desc>
    <defs></defs>
    <g id="Pages" stroke="none" stroke-width="1" fill="none" fill-rule="evenodd">
        <g id="dahsboard" transform="translate(-714.000000, -1011.000000)">
            <g id="personal-data-copy-4" transform="translate(635.000000, 937.000000)">
                <g id="Group-4" transform="translate(40.000000, 66.000000)">
                    <g id="note" transform="translate(39.000000, 8.000000)">
                        <g id="Layer_1">
                            <path d="M33.9389139,5.93402344 L3.06108612,5.93402344 C1.41759569,5.93402344 0.072937799,7.26916992 0.072937799,8.90103516 L0.072937799,42.0329004 C0.072937799,43.6647656 1.41759569,44.9999121 3.06108612,44.9999121 L33.9388254,44.9999121 C35.5823158,44.9999121 36.9269737,43.6647656 36.9269737,42.0329004 L36.9269737,8.90112305 C36.9270622,7.26925781 35.5824043,5.93402344 33.9389139,5.93402344 L33.9389139,5.93402344 Z" id="Shape" fill="#D5D9DB"></path>
                            <rect id="Rectangle-path" fill="#FFFFFF" x="3.06108612" y="8.90112305" width="30.8777392" height="33.1318652"></rect>
                            <path d="M25.9704593,2.96701172 L22.7263206,2.96701172 C22.1106866,1.23820312 20.4512632,0 18.5,0 C16.5487368,0 14.8893134,1.23820312 14.2737679,2.96701172 L11.0296292,2.96701172 C9.38613876,2.96701172 8.04148086,4.3021582 8.04148086,5.93402344 L8.04148086,11.8680469 L28.9586962,11.8680469 L28.9586962,5.93402344 C28.9586077,4.3021582 27.6139498,2.96701172 25.9704593,2.96701172 L25.9704593,2.96701172 Z M18.5,5.93402344 C17.6752895,5.93402344 17.0059258,5.26939453 17.0059258,4.45051758 C17.0059258,3.63164063 17.6752895,2.96701172 18.5,2.96701172 C19.3257727,2.96701172 19.9940742,3.63164063 19.9940742,4.45051758 C19.9940742,5.26939453 19.3257727,5.93402344 18.5,5.93402344 L18.5,5.93402344 Z" id="Shape" fill="#D5D9DB"></path>
                            <g id="Group" transform="translate(10.311475, 15.000000)" fill="#D5D9DB" opacity="0.607859142">
                                <path d="M11.0071499,16.0650879 L0.520892393,16.0650879 C0.235074099,16.0650879 0.00345215311,15.7330371 0.00345215311,15.323291 C0.00345215311,14.9135449 0.235074099,14.5814941 0.520892393,14.5814941 L11.0071499,14.5814941 C11.2929682,14.5814941 11.5245902,14.9135449 11.5245902,15.323291 C11.5245902,15.7330371 11.2929682,16.0650879 11.0071499,16.0650879 L11.0071499,16.0650879 Z" id="Shape"></path>
                                <path d="M15.8906148,11.2188867 L0.750533493,11.2188867 C0.337868421,11.2188867 0.00345215311,10.8868359 0.00345215311,10.4770898 C0.00345215311,10.0673437 0.337868421,9.73529297 0.750533493,9.73529297 L15.8906148,9.73529297 C16.3032799,9.73529297 16.6376962,10.0673437 16.6376962,10.4770898 C16.6376962,10.8868359 16.3032799,11.2188867 15.8906148,11.2188867 L15.8906148,11.2188867 Z" id="Shape"></path>
                                <path d="M15.8906148,6.37277344 L0.750533493,6.37277344 C0.337868421,6.37277344 0.00345215311,6.04072266 0.00345215311,5.63097656 C0.00345215311,5.22123047 0.337868421,4.88917969 0.750533493,4.88917969 L15.8906148,4.88917969 C16.3032799,4.88917969 16.6376962,5.22123047 16.6376962,5.63097656 C16.6376962,6.04072266 16.3032799,6.37277344 15.8906148,6.37277344 L15.8906148,6.37277344 Z" id="Shape"></path>
                                <path d="M15.8906148,1.52657227 L0.750533493,1.52657227 C0.337868421,1.52657227 0.00345215311,1.19452148 0.00345215311,0.784775391 C0.00345215311,0.375029297 0.337868421,0.0429785156 0.750533493,0.0429785156 L15.8906148,0.0429785156 C16.3032799,0.0429785156 16.6376962,0.375029297 16.6376962,0.784775391 C16.6376077,1.19460938 16.3032799,1.52657227 15.8906148,1.52657227 L15.8906148,1.52657227 Z" id="Shape"></path>
                            </g>
                        </g>
                    </g>
                </g>
            </g>
        </g>
    </g>
</svg>