<?xml version="1.0" encoding="UTF-8" standalone="no"?>
<svg width="23px" height="23px" viewBox="0 0 23 23" version="1.1" xmlns="http://www.w3.org/2000/svg" xmlns:xlink="http://www.w3.org/1999/xlink">
    <!-- Generator: Sketch 39.1 (31720) - http://www.bohemiancoding.com/sketch -->
    <title>wedding-planning</title>
    <desc>Created with Sketch.</desc>
    <defs></defs>
    <g id="Pages" stroke="none" stroke-width="1" fill="none" fill-rule="evenodd" opacity="0.497201493">
        <g id="dahsboard" transform="translate(-476.000000, -522.000000)" fill="#000000">
            <g id="cities" transform="translate(435.000000, 502.000000)">
                <g id="wedding-planning" transform="translate(41.000000, 20.000000)">
                    <g id="interface-2">
                        <g id="Capa_1">
                            <g id="Group">
                                <path d="M19.8441579,15.5350877 L17.5861228,18.7792982 L15.9926667,17.4715263 C15.8207719,17.3298947 15.5661579,17.3553158 15.4249298,17.5272105 C15.2832982,17.6995088 15.3083158,17.9541228 15.4810175,18.0949474 L17.4122105,19.6803333 C17.4844386,19.7400526 17.5752281,19.7719298 17.6680351,19.7719298 C17.686193,19.7719298 17.7047544,19.7707193 17.7233158,19.7678947 C17.8346842,19.7525614 17.9347544,19.6912281 17.9993158,19.5988246 L20.5067193,15.9958947 C20.6338246,15.8131053 20.5890351,15.5617193 20.4058421,15.4342105 C20.2226491,15.3062982 19.9716667,15.3518947 19.8441579,15.5350877 L19.8441579,15.5350877 Z" id="Shape"></path>
                                <path d="M21.7894737,14.4072807 L21.7894737,4.91312281 C21.7894737,2.20396491 19.5855088,0 16.8763509,0 L4.91312281,0 C2.20396491,0 0,2.20396491 0,4.91312281 L0,16.8763509 C0,19.5855088 2.20396491,21.7894737 4.91312281,21.7894737 L14.4072807,21.7894737 C15.316386,22.5448421 16.4829298,23 17.754386,23 C20.6467368,23 23,20.6467368 23,17.754386 C23,16.4829298 22.5448421,15.316386 21.7894737,14.4072807 L21.7894737,14.4072807 Z M4.91312281,20.9824561 C2.64903509,20.9824561 0.807017544,19.1408421 0.807017544,16.8763509 L0.807017544,4.91312281 C0.807017544,2.64863158 2.64903509,0.807017544 4.91312281,0.807017544 L16.8763509,0.807017544 C19.1404386,0.807017544 20.9824561,2.64863158 20.9824561,4.91312281 L20.9824561,13.6256842 C20.952193,13.6018772 20.9199123,13.5817018 20.8892456,13.5587018 C20.8045088,13.4949474 20.7197719,13.4315965 20.631,13.3730877 C20.6217193,13.3670351 20.6116316,13.3617895 20.6023509,13.3557368 C20.3949474,13.2209649 20.1766491,13.1023333 19.9502807,12.9974211 C19.919614,12.9832982 19.8897544,12.9671579 19.8590877,12.9534386 C19.7703158,12.9142982 19.6795263,12.880807 19.5883333,12.8465088 C19.5306316,12.8247193 19.4729298,12.8025263 19.4144211,12.7827544 C19.3308947,12.7549123 19.2465614,12.7302982 19.1614211,12.7064912 C19.089193,12.6863158 19.0165614,12.6673509 18.9435263,12.6504035 C18.8664561,12.6326491 18.7897895,12.6152982 18.7115088,12.6007719 C18.6187018,12.5834211 18.5250877,12.5701053 18.4310702,12.558 C18.3681228,12.5499298 18.3055789,12.5398421 18.2418246,12.5337895 C18.0804211,12.5180526 17.917807,12.5087719 17.754386,12.5087719 C15.2792632,12.5087719 13.2040175,14.2341754 12.6552456,16.5438596 L10.8947368,16.5438596 C10.672,16.5438596 10.4912281,16.7242281 10.4912281,16.9473684 C10.4912281,17.1705088 10.672,17.3508772 10.8947368,17.3508772 L12.5293509,17.3508772 C12.5188596,17.4844386 12.5087719,17.6184035 12.5087719,17.754386 C12.5087719,17.917807 12.5184561,18.0804211 12.533386,18.2418246 C12.5394386,18.3059825 12.5491228,18.3685263 12.5575965,18.4318772 C12.5697018,18.5250877 12.5830175,18.6182982 12.6003684,18.7102982 C12.6148947,18.7889825 12.6322456,18.8668596 12.6504035,18.9443333 C12.6673509,19.0165614 12.6859123,19.0879825 12.7056842,19.1594035 C12.7298947,19.2457544 12.7545088,19.3312982 12.7831579,19.4156316 C12.8021228,19.4725263 12.8239123,19.5282105 12.8448947,19.5842982 C12.8795965,19.6771053 12.9138947,19.7695088 12.9534386,19.8598947 C12.9651404,19.8865263 12.9792632,19.9123509 12.9913684,19.9389825 C13.0991053,20.1730175 13.2217719,20.3989825 13.3617895,20.6128421 C13.3654211,20.6184912 13.3686491,20.6245439 13.3722807,20.6297895 C13.431193,20.7189649 13.4949474,20.8041053 13.5587018,20.8896491 C13.5817018,20.9203158 13.6018772,20.952193 13.6252807,20.9824561 L4.91312281,20.9824561 L4.91312281,20.9824561 Z M17.754386,22.1929825 C16.6160877,22.1929825 15.5794737,21.7584035 14.7930351,21.0510526 C14.695386,20.9634912 14.6021754,20.8722982 14.5134035,20.7770702 C14.4936316,20.7560877 14.4746667,20.7347018 14.4552982,20.7133158 C14.3709649,20.6192982 14.2910702,20.5224561 14.2152105,20.422386 C14.1978596,20.399386 14.1801053,20.376386 14.1631579,20.3529825 C14.0885088,20.2496842 14.0182982,20.1435614 13.9529298,20.034614 C13.939614,20.0128246 13.9258947,19.9914386 13.9129825,19.9688421 C13.846807,19.8546491 13.7866842,19.7376316 13.731,19.618193 C13.7221228,19.5992281 13.7124386,19.5810702 13.7039649,19.5617018 C13.6478772,19.4370175 13.5986491,19.3095088 13.5546667,19.1799825 C13.5494211,19.1638421 13.5425614,19.1485088 13.5373158,19.1327719 C13.4941404,19.0012281 13.4582281,18.8668596 13.4271579,18.7312807 C13.4235263,18.7155439 13.4182807,18.7002105 13.4150526,18.6840702 C13.386,18.5505088 13.3654211,18.4149298 13.3492807,18.2785439 C13.3468596,18.2595789 13.3428246,18.2410175 13.340807,18.2216491 C13.3242632,18.0675088 13.3157895,17.9117544 13.3157895,17.754386 C13.3157895,15.3071053 15.3071053,13.3157895 17.754386,13.3157895 C17.9117544,13.3157895 18.0679123,13.3242632 18.2228596,13.3412105 C18.2410175,13.3432281 18.2583684,13.3472632 18.2765263,13.3496842 C18.4137193,13.3662281 18.5505088,13.3872105 18.6848772,13.4162632 C18.7002105,13.4194912 18.7147368,13.4247368 18.7300702,13.4279649 C18.8664561,13.4590351 19.0012281,13.4949474 19.1335789,13.5385263 C19.1485088,13.5433684 19.1630351,13.5494211 19.1779649,13.5546667 C19.3087018,13.5990526 19.4374211,13.6490877 19.5633158,13.7055789 C19.5810702,13.7136491 19.5984211,13.7229298 19.6161754,13.731 C19.7368246,13.7870877 19.8550526,13.8480175 19.9704561,13.9145965 C19.9914386,13.9267018 20.0120175,13.9400175 20.0325965,13.9525263 C20.1427544,14.0191053 20.2500877,14.0893158 20.3545965,14.1651754 C20.3767895,14.1813158 20.3985789,14.1978596 20.4203684,14.2144035 C20.5220526,14.2910702 20.6205088,14.3721754 20.7157368,14.4577193 C20.7359123,14.4758772 20.7560877,14.4936316 20.7754561,14.512193 C20.8718947,14.6021754 20.9647018,14.697 21.0538772,14.7962632 C21.759614,15.5818947 22.1929825,16.6172982 22.1929825,17.754386 C22.1929825,20.2016667 20.2016667,22.1929825 17.754386,22.1929825 L17.754386,22.1929825 Z" id="Shape"></path>
                                <path d="M10.8947368,5.64912281 L18.1578947,5.64912281 C18.3806316,5.64912281 18.5614035,5.46875439 18.5614035,5.24561404 C18.5614035,5.02247368 18.3806316,4.84210526 18.1578947,4.84210526 L10.8947368,4.84210526 C10.672,4.84210526 10.4912281,5.02247368 10.4912281,5.24561404 C10.4912281,5.46875439 10.672,5.64912281 10.8947368,5.64912281 L10.8947368,5.64912281 Z" id="Shape"></path>
                                <path d="M10.8947368,11.2982456 L18.1578947,11.2982456 C18.3806316,11.2982456 18.5614035,11.1178772 18.5614035,10.8947368 C18.5614035,10.6715965 18.3806316,10.4912281 18.1578947,10.4912281 L10.8947368,10.4912281 C10.672,10.4912281 10.4912281,10.6715965 10.4912281,10.8947368 C10.4912281,11.1178772 10.672,11.2982456 10.8947368,11.2982456 L10.8947368,11.2982456 Z" id="Shape"></path>
                                <path d="M7.73485965,2.96578947 L5.21373684,5.9065614 L3.67192982,4.74970175 C3.49357895,4.61614035 3.24057895,4.65205263 3.10701754,4.83040351 C2.97305263,5.00835088 3.00936842,5.26135088 3.1877193,5.39491228 L5.03215789,6.77854386 C5.10478947,6.83301754 5.18952632,6.85924561 5.27426316,6.85924561 C5.38845614,6.85924561 5.5014386,6.81122807 5.58092982,6.71801754 L8.34778947,3.48994737 C8.49264912,3.32087719 8.4732807,3.06626316 8.30421053,2.92140351 C8.13554386,2.77694737 7.88012281,2.79631579 7.73485965,2.96578947 L7.73485965,2.96578947 Z" id="Shape"></path>
                                <path d="M7.73485965,8.61491228 L5.21373684,11.5556842 L3.67192982,10.3988246 C3.49357895,10.2652632 3.24057895,10.3011754 3.10701754,10.4795263 C2.97305263,10.6574737 3.00936842,10.9104737 3.1877193,11.0440351 L5.03215789,12.4276667 C5.10478947,12.4821404 5.18952632,12.5083684 5.27426316,12.5083684 C5.38845614,12.5083684 5.5014386,12.4603509 5.58092982,12.3671404 L8.34778947,9.13907018 C8.49264912,8.97 8.4732807,8.71538596 8.30421053,8.57052632 C8.13554386,8.42607018 7.88012281,8.4454386 7.73485965,8.61491228 L7.73485965,8.61491228 Z" id="Shape"></path>
                                <path d="M7.73485965,14.6675439 L5.21373684,17.6079123 L3.67192982,16.4514561 C3.49357895,16.3182982 3.24057895,16.353807 3.10701754,16.5321579 C2.97305263,16.7101053 3.00936842,16.9631053 3.1877193,17.0966667 L5.03215789,18.4802982 C5.10478947,18.5347719 5.18952632,18.561 5.27426316,18.561 C5.38845614,18.561 5.5014386,18.5129825 5.58092982,18.4197719 L8.34778947,15.1921053 C8.49264912,15.0230351 8.4732807,14.7684211 8.30421053,14.6235614 C8.13554386,14.4787018 7.88012281,14.4980702 7.73485965,14.6675439 L7.73485965,14.6675439 Z" id="Shape"></path>
                            </g>
                        </g>
                    </g>
                </g>
            </g>
        </g>
    </g>
</svg>