<?xml version="1.0" encoding="UTF-8" standalone="no"?>
<svg width="17px" height="9px" viewBox="0 0 17 9" version="1.1" xmlns="http://www.w3.org/2000/svg" xmlns:xlink="http://www.w3.org/1999/xlink">
    <!-- Generator: Sketch 39.1 (31720) - http://www.bohemiancoding.com/sketch -->
    <title>us-map</title>
    <desc>Created with Sketch.</desc>
    <defs></defs>
    <g id="Pages" stroke="none" stroke-width="1" fill="none" fill-rule="evenodd" opacity="0.498542444">
        <g id="dahsboard" transform="translate(-712.000000, -701.000000)" fill="#000000">
            <g id="cities" transform="translate(435.000000, 502.000000)">
                <g id="res" transform="translate(42.000000, 80.000000)">
                    <g id="Group-2" transform="translate(234.000000, 0.000000)">
                        <g id="us-map" transform="translate(1.000000, 119.000000)">
                            <g id="Capa_1">
                                <path d="M16.9829363,1.3464 C16.9812597,1.34416552 16.9785855,1.34213793 16.9761873,1.33996552 C16.8405481,1.21537241 15.9116392,1.29289655 15.9116392,1.29289655 C15.9116392,1.29289655 15.9058876,1.31217931 15.8910737,1.33996552 C15.8595568,1.39911724 15.7863146,1.49737241 15.6368377,1.53388966 C15.4170899,1.5873931 12.2854819,1.64089655 12.2030712,1.42669655 C12.1892122,1.39048966 12.1644869,1.36247586 12.1339251,1.33996552 C11.9840237,1.22958621 11.6811436,1.26606207 11.6811436,1.26606207 C11.6811436,1.26606207 11.6576704,1.29643448 11.6197653,1.33996552 C11.5342984,1.43822069 11.3748889,1.6038 11.2416267,1.64089655 C11.0927865,1.68237931 11.0594232,1.49937931 11.0772509,1.33996552 C11.0824507,1.29347586 11.0918527,1.24882759 11.104226,1.21251724 C11.1426829,1.1000069 10.7767903,0.711724138 10.4692622,0.516682759 C10.3378464,0.433406897 10.2168514,0.385075862 10.1428027,0.409137931 C9.89561298,0.489475862 8.60437703,0.00746896552 8.60437703,0.00746896552 L4.10067166,0.00746896552 L0.610450687,0.00746896552 C0.610450687,0.00746896552 0.593641698,0.178386207 0.564883895,0.327351724 C0.562188514,0.341151724 0.559429463,0.354662069 0.556543071,0.367965517 C0.543002497,0.430468966 0.527339576,0.485627586 0.509702871,0.516682759 C0.498242197,0.53697931 0.485996255,0.54717931 0.473156055,0.542958621 C0.461355805,0.539151724 0.444143571,0.529448276 0.423769039,0.516682759 C0.301712859,0.440317241 0.0532496879,0.240786207 0.00609113608,0.355510345 C-0.00895630462,0.392151724 0.00534831461,0.449296552 0.0332359551,0.516682759 C0.107411985,0.695648276 0.280786517,0.94982069 0.280786517,1.10534483 L0.280786517,1.33996552 L0.280786517,1.84924138 L0.280786517,2.67248276 L0.280786517,3.18175862 L0.280786517,3.75653793 C0.280786517,3.86106207 0.350081149,3.93529655 0.436948814,4.005 C0.594745318,4.13176552 0.810694132,4.24388276 0.775229713,4.49675172 C0.774401998,4.50262759 0.774274657,4.50842069 0.773765293,4.51427586 C0.74793633,4.81266207 1.1233583,5.12528276 1.38377029,5.33751724 C1.46121473,5.40064138 1.5285568,5.45495172 1.57191635,5.49722069 C1.65201373,5.57532414 1.76545318,5.71377931 1.88245818,5.84677241 C2.04645194,6.03326897 2.21744944,6.20913103 2.31361298,6.19357241 C2.47843446,6.16677931 2.78063546,6.0596069 2.9729201,6.27391034 C3.13336954,6.45273103 3.86753184,6.63128276 4.23387016,6.67003448 L4.44483146,6.67003448 C4.65350062,6.6428069 5.19733084,6.56933793 5.51570412,6.67003448 C5.63285768,6.70713103 5.71953433,6.76766897 5.7474432,6.86298621 C5.77987266,6.9735931 5.83887391,7.0815931 5.90553683,7.17931034 C6.06490387,7.41266897 6.26934956,7.58602759 6.26934956,7.58602759 C6.26934956,7.58602759 6.40677154,7.3718069 6.48913983,7.21111034 C6.4954432,7.19877931 6.50372035,7.18826897 6.51329213,7.17931034 C6.5595593,7.13577931 6.64150312,7.13147586 6.73465293,7.17931034 C6.87540699,7.25164138 7.04154432,7.44331034 7.14846816,7.80033103 C7.16996754,7.87226897 7.1993196,7.93942759 7.23389263,8.00253103 C7.35486642,8.22337241 7.54371286,8.39207586 7.71774532,8.51176552 C7.93984894,8.66451724 8.137397,8.73753103 8.137397,8.73753103 C8.137397,8.73753103 8.137397,8.64345517 8.13915855,8.51176552 C8.14113233,8.36298621 8.14533458,8.16631034 8.15431211,8.00253103 C8.15726217,7.94846897 8.1607216,7.8978 8.16481773,7.85381379 C8.1922809,7.55931724 9.09884145,7.29142759 9.26362047,7.2645931 C9.42848439,7.23784138 10.5272871,7.71993103 10.5272871,7.55929655 C10.5272871,7.42437931 10.7018714,7.30814483 10.9041099,7.17928966 C10.9427366,7.15468966 10.9822335,7.12971724 11.0218365,7.10395862 C11.1091923,7.04710345 11.2171773,7.09756552 11.3213845,7.17928966 C11.5122896,7.32864828 11.6907578,7.58273793 11.7085006,7.47895862 C11.7359426,7.31817931 12.2579763,7.39862069 12.3128602,7.5860069 C12.3452047,7.69657241 12.3870787,7.85368966 12.4104669,8.00251034 C12.4267453,8.10591724 12.4339825,8.20549655 12.4228402,8.28233793 C12.4151361,8.3349931 12.4507491,8.41944828 12.5078826,8.51170345 C12.6540487,8.74797931 12.9404806,9.03628966 12.9997578,8.97850345 C13.035965,8.94326897 13.0775206,8.74193793 13.0940325,8.51170345 C13.1064057,8.33902759 13.104432,8.15015172 13.0757803,8.00251034 C13.0557453,7.89957931 13.0228065,7.81667586 12.9722522,7.77351724 C12.8745393,7.69015862 12.7986442,7.44264828 12.7636467,7.17928966 C12.7401311,7.00131724 12.7351648,6.81662069 12.7550087,6.66993103 C12.7717965,6.54550345 12.8063695,6.44869655 12.8624207,6.40771034 C12.9487578,6.34458621 13.2553096,6.11224138 13.5775031,5.84675172 C13.7813758,5.67873103 13.9916367,5.49748966 14.1562247,5.33751724 C14.3939064,5.10653793 14.5366767,4.91975172 14.4281823,4.88128966 C14.2506267,4.81828966 14.2252434,4.69924138 14.2453421,4.51427586 C14.2594345,4.38467586 14.2956629,4.2230069 14.3182659,4.0244069 C14.3190936,4.01749655 14.3200911,4.01151724 14.3210037,4.005 C14.3828702,3.55905517 14.7048514,4.09586897 14.840427,3.48871034 C14.8688876,3.36095172 14.9426604,3.26112414 15.039779,3.18175862 C15.410362,2.87853103 16.1248077,2.87741379 15.9941136,2.79252414 C15.9538739,2.76622759 15.9250737,2.7237931 15.907819,2.67248276 C15.8544632,2.51437241 15.9107054,2.27106207 16.0765243,2.14977931 C16.1615456,2.08768966 16.332628,1.9736069 16.5041348,1.84924138 C16.7764956,1.6518 17.0504057,1.42853793 16.9829363,1.3464 L16.9829363,1.3464 Z" id="Shape"></path>
                            </g>
                        </g>
                    </g>
                </g>
            </g>
        </g>
    </g>
</svg>