<?xml version="1.0" encoding="UTF-8" standalone="no"?>
<svg width="61px" height="75px" viewBox="0 0 61 75" version="1.1" xmlns="http://www.w3.org/2000/svg" xmlns:xlink="http://www.w3.org/1999/xlink">
    <!-- Generator: Sketch 39.1 (31720) - http://www.bohemiancoding.com/sketch -->
    <title>note</title>
    <desc>Created with Sketch.</desc>
    <defs></defs>
    <g id="Pages" stroke="none" stroke-width="1" fill="none" fill-rule="evenodd">
        <g id="top-cities" transform="translate(-943.000000, -517.000000)">
            <g id="res-copy" transform="translate(185.000000, 437.000000)">
                <g id="note" transform="translate(758.000000, 80.000000)">
                    <g id="Layer_1">
                        <path d="M55.9533445,9.89003906 L5.0466555,9.89003906 C2.33711722,9.89003906 0.120248804,12.1152832 0.120248804,14.8350586 L0.120248804,70.054834 C0.120248804,72.7746094 2.33711722,74.9998535 5.0466555,74.9998535 L55.9531986,74.9998535 C58.6627368,74.9998535 60.8796053,72.7746094 60.8796053,70.054834 L60.8796053,14.8352051 C60.8797512,12.1154297 58.6628828,9.89003906 55.9533445,9.89003906 L55.9533445,9.89003906 Z" id="Shape" fill="#196CA7"></path>
                        <rect id="Rectangle-path" fill="#FFFFFF" x="5.0466555" y="14.8352051" width="50.9065431" height="55.2197754"></rect>
                        <path d="M42.8161627,4.94501953 L37.4677177,4.94501953 C36.4527536,2.06367187 33.7169474,0 30.5,0 C27.2830526,0 24.5472464,2.06367187 23.5324282,4.94501953 L18.1839833,4.94501953 C15.474445,4.94501953 13.2575766,7.17026367 13.2575766,9.89003906 L13.2575766,19.7800781 L47.7427153,19.7800781 L47.7427153,9.89003906 C47.7425694,7.17026367 45.525701,4.94501953 42.8161627,4.94501953 L42.8161627,4.94501953 Z M30.5,9.89003906 C29.1403421,9.89003906 28.0367967,8.78232422 28.0367967,7.4175293 C28.0367967,6.05273438 29.1403421,4.94501953 30.5,4.94501953 C31.8614091,4.94501953 32.9632033,6.05273438 32.9632033,7.4175293 C32.9632033,8.78232422 31.8614091,9.89003906 30.5,9.89003906 L30.5,9.89003906 Z" id="Shape" fill="#D5D9DB"></path>
                        <g id="Group" transform="translate(17.000000, 25.000000)" fill="#196CA7" opacity="0.607859142">
                            <path d="M18.1469228,26.7751465 L0.85876854,26.7751465 C0.387554596,26.7751465 0.00569138756,26.2217285 0.00569138756,25.5388184 C0.00569138756,24.8559082 0.387554596,24.3024902 0.85876854,24.3024902 L18.1469228,24.3024902 C18.6181368,24.3024902 19,24.8559082 19,25.5388184 C19,26.2217285 18.6181368,26.7751465 18.1469228,26.7751465 L18.1469228,26.7751465 Z" id="Shape"></path>
                            <path d="M26.1980407,18.6981445 L1.23736603,18.6981445 C0.557026316,18.6981445 0.00569138756,18.1447266 0.00569138756,17.4618164 C0.00569138756,16.7789062 0.557026316,16.2254883 1.23736603,16.2254883 L26.1980407,16.2254883 C26.8783804,16.2254883 27.4297153,16.7789062 27.4297153,17.4618164 C27.4297153,18.1447266 26.8783804,18.6981445 26.1980407,18.6981445 L26.1980407,18.6981445 Z" id="Shape"></path>
                            <path d="M26.1980407,10.6212891 L1.23736603,10.6212891 C0.557026316,10.6212891 0.00569138756,10.0678711 0.00569138756,9.38496094 C0.00569138756,8.70205078 0.557026316,8.14863281 1.23736603,8.14863281 L26.1980407,8.14863281 C26.8783804,8.14863281 27.4297153,8.70205078 27.4297153,9.38496094 C27.4297153,10.0678711 26.8783804,10.6212891 26.1980407,10.6212891 L26.1980407,10.6212891 Z" id="Shape"></path>
                            <path d="M26.1980407,2.54428711 L1.23736603,2.54428711 C0.557026316,2.54428711 0.00569138756,1.99086914 0.00569138756,1.30795898 C0.00569138756,0.625048828 0.557026316,0.0716308594 1.23736603,0.0716308594 L26.1980407,0.0716308594 C26.8783804,0.0716308594 27.4297153,0.625048828 27.4297153,1.30795898 C27.4295694,1.99101563 26.8783804,2.54428711 26.1980407,2.54428711 L26.1980407,2.54428711 Z" id="Shape"></path>
                        </g>
                    </g>
                </g>
            </g>
        </g>
    </g>
</svg>