<?xml version="1.0" encoding="UTF-8" standalone="no"?>
<svg width="27px" height="13px" viewBox="0 0 27 13" version="1.1" xmlns="http://www.w3.org/2000/svg" xmlns:xlink="http://www.w3.org/1999/xlink">
    <!-- Generator: Sketch 39.1 (31720) - http://www.bohemiancoding.com/sketch -->
    <title>Capa_1</title>
    <desc>Created with Sketch.</desc>
    <defs></defs>
    <g id="Pages" stroke="none" stroke-width="1" fill="none" fill-rule="evenodd" opacity="0.500466418">
        <g id="dahsboard" transform="translate(-175.000000, -1357.000000)" fill="#000000">
            <g id="personal-data-copy-5" transform="translate(135.000000, 1332.000000)">
                <g id="view" transform="translate(40.000000, 25.000000)">
                    <g id="Capa_1">
                        <g id="Group">
                            <path d="M13.5,3.35688889 C11.7031034,3.35688889 10.2413793,4.86874074 10.2413793,6.72725926 C10.2413793,6.99303704 10.449931,7.20874074 10.7068966,7.20874074 C10.9638621,7.20874074 11.1724138,6.99303704 11.1724138,6.72725926 C11.1724138,5.39981481 12.216569,4.31985185 13.5,4.31985185 C13.7569655,4.31985185 13.9655172,4.10414815 13.9655172,3.83837037 C13.9655172,3.57259259 13.7569655,3.35688889 13.5,3.35688889 L13.5,3.35688889 Z" id="Shape"></path>
                            <path d="M26.8393966,6.19811111 C23.2954138,2.50322222 18.5727414,0.468481481 13.5405,0.468481481 C13.5311897,0.468481481 13.5223448,0.468962963 13.5130345,0.468962963 C13.5083793,0.468962963 13.5041897,0.468481481 13.5,0.468481481 C13.487431,0.468481481 13.4748621,0.470407407 13.4622931,0.470407407 C8.45984483,0.491111111 3.76743103,2.52248148 0.242068966,6.19811111 L0.135,6.30981481 C-0.0460862069,6.49855556 -0.0446896552,6.80333333 0.137793103,6.99062963 C0.228568966,7.08355556 0.347275862,7.13025926 0.465517241,7.13025926 C0.585155172,7.13025926 0.705258621,7.08259259 0.796034483,6.98774074 L0.903103448,6.87603704 C3.34893103,4.32562963 6.38782759,2.61251852 9.69905172,1.86333333 C8.32810345,3.01166667 7.44827586,4.76474074 7.44827586,6.72725926 C7.44827586,10.1785185 10.1631724,12.9865185 13.5,12.9865185 C16.8368276,12.9865185 19.5517241,10.1785185 19.5517241,6.72725926 C19.5517241,4.74837037 18.6565345,2.98422222 17.2660345,1.83637037 C20.6228793,2.57159259 23.7036724,4.29577778 26.1783621,6.87603704 C26.3594483,7.06525926 26.6545862,7.06622222 26.8366034,6.87892593 C27.0190862,6.69162963 27.0204828,6.38685185 26.8393966,6.19811111 L26.8393966,6.19811111 Z M18.6206897,6.72725926 C18.6206897,9.64744444 16.3233621,12.0235556 13.5,12.0235556 C10.6766379,12.0235556 8.37931034,9.64744444 8.37931034,6.72725926 C8.37931034,3.82007407 10.6561552,1.45407407 13.4622931,1.43288889 C13.4795172,1.43288889 13.4962759,1.43144444 13.5130345,1.43144444 C16.3308103,1.43914815 18.6206897,3.81188889 18.6206897,6.72725926 L18.6206897,6.72725926 Z" id="Shape"></path>
                        </g>
                    </g>
                </g>
            </g>
        </g>
    </g>
</svg>