<?xml version="1.0" encoding="UTF-8" standalone="no"?>
<svg width="27px" height="22px" viewBox="0 0 27 22" version="1.1" xmlns="http://www.w3.org/2000/svg" xmlns:xlink="http://www.w3.org/1999/xlink">
    <!-- Generator: Sketch 39.1 (31720) - http://www.bohemiancoding.com/sketch -->
    <title>note</title>
    <desc>Created with Sketch.</desc>
    <defs></defs>
    <g id="Pages" stroke="none" stroke-width="1" fill="none" fill-rule="evenodd" opacity="0.495102612">
        <g id="dahsboard" transform="translate(-676.000000, -957.000000)" fill="#000000">
            <g id="personal-data-copy-4" transform="translate(635.000000, 937.000000)">
                <g id="note" transform="translate(41.000000, 20.000000)">
                    <g id="Layer_1">
                        <path d="M26.9999473,2.53558291 C26.9999473,2.10757789 26.8409531,1.70522111 26.5522324,1.40263819 L25.9517988,0.773150754 C25.6630781,0.470512563 25.2791719,0.303854271 24.8708496,0.303854271 C24.4625273,0.303854271 24.0786738,0.470512563 23.7899004,0.773150754 L20.960543,3.73889447 L20.960543,0.578356784 C20.960543,0.267040201 20.7197051,0.0145929648 20.4227051,0.0145929648 L0.537837891,0.0145929648 C0.240785156,0.0145376884 0,0.267040201 0,0.578356784 L0,21.4216432 C0,21.7329598 0.240785156,21.985407 0.537837891,21.985407 L20.4226523,21.985407 C20.7196523,21.985407 20.9604902,21.7329598 20.9604902,21.4216432 L20.9602793,9.53025628 L26.5522324,3.66869347 C26.8409531,3.36605528 26.9999473,2.96358794 26.9999473,2.53558291 L26.9999473,2.53558291 Z M19.8848145,20.8578241 L1.07567578,20.8578241 L1.07567578,1.14217588 L19.8847617,1.14217588 L19.8847617,4.86647739 L10.0378301,15.1880704 C9.97876758,15.2499799 9.9343125,15.3254874 9.90789258,15.4084573 L8.90699414,18.5558392 C8.84255273,18.7584271 8.89286133,18.981799 9.03693164,19.1327588 C9.13944727,19.2402161 9.27692578,19.2978693 9.41735742,19.2978693 C9.47425781,19.2978693 9.53163281,19.2884171 9.58737305,19.2689598 L12.5900156,18.2198693 C12.6692227,18.1921759 12.7412051,18.1455779 12.8002676,18.0836683 L19.8848145,10.6576181 L19.8848145,20.8578241 L19.8848145,20.8578241 Z M12.1293281,17.1922814 L10.2675938,17.8427186 L10.8881719,15.8912412 L22.3084863,3.92042211 L23.5496426,5.22140704 L12.1293281,17.1922814 L12.1293281,17.1922814 Z M25.7915918,2.87133166 L24.3102832,4.4241005 L23.6897051,3.77360804 L23.0691797,3.12311558 L24.550541,1.57034673 C24.6361289,1.48063317 24.7498242,1.43127136 24.8708496,1.43127136 C24.991875,1.43127136 25.1055703,1.48063317 25.1911582,1.57029146 L25.7916445,2.19977889 C25.7916445,2.19983417 25.7916445,2.19983417 25.7916973,2.19983417 C25.8772324,2.28954774 25.9243242,2.40872362 25.9243242,2.53552764 C25.9243242,2.66244221 25.8771797,2.78167337 25.7915918,2.87133166 L25.7915918,2.87133166 Z" id="Shape"></path>
                        <path d="M16.776123,3.53818593 L16.263334,3.53818593 C15.966334,3.53818593 15.7254961,3.79063317 15.7254961,4.10194975 C15.7254961,4.41326633 15.9662812,4.66571357 16.263334,4.66571357 L16.776123,4.66571357 C17.073123,4.66571357 17.3139609,4.41326633 17.3139609,4.10194975 C17.3140137,3.79068844 17.073123,3.53818593 16.776123,3.53818593 L16.776123,3.53818593 Z" id="Shape"></path>
                        <path d="M13.9273066,3.53818593 L4.12736133,3.53818593 C3.83030859,3.53818593 3.58952344,3.79063317 3.58952344,4.10194975 C3.58952344,4.41326633 3.83030859,4.66571357 4.12736133,4.66571357 L13.9273594,4.66571357 C14.2243594,4.66571357 14.4651973,4.41326633 14.4651973,4.10194975 C14.4651445,3.79068844 14.2243066,3.53818593 13.9273066,3.53818593 L13.9273066,3.53818593 Z" id="Shape"></path>
                        <path d="M13.4145176,6.82298492 L4.12736133,6.82298492 C3.83030859,6.82298492 3.58952344,7.07543216 3.58952344,7.38674874 C3.58952344,7.69806533 3.83030859,7.95051256 4.12736133,7.95051256 L13.4145703,7.95051256 C13.7115703,7.95051256 13.9524082,7.69806533 13.9524082,7.38674874 C13.9524082,7.07543216 13.7115176,6.82298492 13.4145176,6.82298492 L13.4145176,6.82298492 Z" id="Shape"></path>
                        <path d="M10.0529121,10.1077839 L4.12736133,10.1077839 C3.83030859,10.1077839 3.58952344,10.3602312 3.58952344,10.6715477 C3.58952344,10.9828643 3.83030859,11.2353116 4.12736133,11.2353116 L10.0529648,11.2353116 C10.3500176,11.2353116 10.5908027,10.9828643 10.5908027,10.6715477 C10.5908027,10.3602312 10.3499648,10.1077839 10.0529121,10.1077839 L10.0529121,10.1077839 Z" id="Shape"></path>
                        <path d="M7.48901953,13.3327739 L4.12736133,13.3327739 C3.83030859,13.3327739 3.58952344,13.5852211 3.58952344,13.8965377 C3.58952344,14.2078543 3.83030859,14.4603015 4.12736133,14.4603015 L7.4889668,14.4603015 C7.78601953,14.4603015 8.02680469,14.2078543 8.02680469,13.8965377 C8.02680469,13.5852211 7.78607227,13.3327739 7.48901953,13.3327739 L7.48901953,13.3327739 Z" id="Shape"></path>
                    </g>
                </g>
            </g>
        </g>
    </g>
</svg>