<?xml version="1.0" encoding="UTF-8" standalone="no"?>
<svg width="22px" height="21px" viewBox="0 0 22 21" version="1.1" xmlns="http://www.w3.org/2000/svg" xmlns:xlink="http://www.w3.org/1999/xlink">
    <!-- Generator: Sketch 39.1 (31720) - http://www.bohemiancoding.com/sketch -->
    <title>star</title>
    <desc>Created with Sketch.</desc>
    <defs></defs>
    <g id="Pages" stroke="none" stroke-width="1" fill="none" fill-rule="evenodd">
        <g id="dahsboard" transform="translate(-176.000000, -957.000000)" fill="#888888">
            <g id="star" transform="translate(176.000000, 957.000000)">
                <g id="Capa_1">
                    <path d="M21.49664,9.5073125 C21.92916,9.0881875 22.08184,8.4730625 21.89528,7.90125 C21.70828,7.3294375 21.2212,6.92125 20.6228,6.834625 L15.30232,6.0659375 C15.07572,6.033125 14.87992,5.8918125 14.77872,5.6875 L12.40008,0.8938125 C12.133,0.35525 11.59092,0.0205625 10.9868,0.0205625 C10.38312,0.0205625 9.84104,0.35525 9.57396,0.8938125 L7.19488,5.6875 C7.09368,5.8918125 6.89744,6.033125 6.67084,6.0659375 L1.35036,6.8350625 C0.7524,6.92125 0.26532,7.3294375 0.07832,7.90125 C-0.10824,8.4730625 0.04444,9.0881875 0.47696,9.5073125 L4.32652,13.2383125 C4.49064,13.3975625 4.56588,13.6268125 4.52716,13.8508125 L3.61856,19.119625 C3.51648,19.7115625 3.75628,20.29825 4.24512,20.65175 C4.73352,21.0056875 5.36932,21.051625 5.9048,20.7711875 L10.66296,18.2835625 C10.8658,18.1776875 11.1078,18.1776875 11.31064,18.2835625 L16.06924,20.7711875 C16.30156,20.8928125 16.55324,20.95275 16.8036,20.95275 C17.12876,20.95275 17.4526,20.8516875 17.72892,20.65175 C18.21776,20.29825 18.45756,19.7115625 18.35548,19.119625 L17.44644,13.85125 C17.40772,13.6268125 17.48296,13.398 17.64708,13.23875 L21.49664,9.5073125 L21.49664,9.5073125 Z M16.57964,13.999125 L17.48824,19.2675 C17.534,19.532625 17.4306,19.7859375 17.21148,19.9443125 C16.99192,20.10225 16.71868,20.1215 16.47888,19.99725 L11.72028,17.5091875 C11.49104,17.38975 11.23848,17.329375 10.9868,17.329375 C10.73512,17.329375 10.483,17.38975 10.25332,17.509625 L5.4956,19.99725 C5.25492,20.1215 4.98168,20.10225 4.76256,19.9443125 C4.54344,19.7859375 4.44048,19.5330625 4.4858,19.2675 L5.3944,13.999125 C5.48196,13.49075 5.31256,12.971875 4.9412,12.61225 L1.0912,8.8808125 C0.89716,8.6926875 0.83116,8.4275625 0.9152,8.171625 C0.9988,7.91525 1.20868,7.739375 1.47664,7.7004375 L6.79668,6.93175 C7.31016,6.8578125 7.75412,6.5375625 7.98336,6.0746875 L10.36244,1.281 C10.48212,1.0395 10.71576,0.8955625 10.98636,0.8955625 C11.2574,0.8955625 11.4906,1.0395 11.61072,1.281 L13.9898,6.0746875 C14.21904,6.5375625 14.66256,6.8578125 15.17604,6.93175 L20.49652,7.7004375 C20.76448,7.739375 20.97436,7.91525 21.05796,8.171625 C21.14156,8.4275625 21.076,8.6926875 20.88196,8.8808125 L17.0324,12.6118125 C16.66104,12.971875 16.49164,13.4903125 16.57964,13.999125 L16.57964,13.999125 Z" id="Shape"></path>
                </g>
            </g>
        </g>
    </g>
</svg>