<?xml version="1.0" encoding="UTF-8" standalone="no"?>
<svg width="15px" height="14px" viewBox="0 0 15 14" version="1.1" xmlns="http://www.w3.org/2000/svg" xmlns:xlink="http://www.w3.org/1999/xlink">
    <!-- Generator: Sketch 39.1 (31720) - http://www.bohemiancoding.com/sketch -->
    <title>social</title>
    <desc>Created with Sketch.</desc>
    <defs></defs>
    <g id="Pages" stroke="none" stroke-width="1" fill="none" fill-rule="evenodd" opacity="0.505888526">
        <g id="dahsboard" transform="translate(-215.000000, -425.000000)" fill="#000000">
            <g id="user" transform="translate(135.000000, 208.000000)">
                <g id="social" transform="translate(80.000000, 217.000000)">
                    <g id="Group">
                        <path d="M7.47560976,7.84957265 C9.67073171,7.84957265 11.4512195,6.1025641 11.4512195,3.94871795 C11.4512195,1.79487179 9.67073171,0.0598290598 7.47560976,0.0598290598 C5.2804878,0.0598290598 3.5,1.80683761 3.5,3.94871795 C3.5,6.09059829 5.2804878,7.84957265 7.47560976,7.84957265 L7.47560976,7.84957265 Z M7.47560976,1.07692308 C9.08536585,1.07692308 10.402439,2.36923077 10.402439,3.94871795 C10.402439,5.52820513 9.08536585,6.82051282 7.47560976,6.82051282 C5.86585366,6.82051282 4.54878049,5.52820513 4.54878049,3.94871795 C4.54878049,2.36923077 5.86585366,1.07692308 7.47560976,1.07692308 L7.47560976,1.07692308 Z" id="Shape"></path>
                        <path d="M0.597560976,13.9401709 L14.402439,13.9401709 C14.695122,13.9401709 14.9268293,13.7128205 14.9268293,13.425641 C14.9268293,10.7333333 12.695122,8.53162393 9.93902439,8.53162393 L5.06097561,8.53162393 C2.31707317,8.53162393 0.0731707317,10.7213675 0.0731707317,13.425641 C0.0731707317,13.7128205 0.304878049,13.9401709 0.597560976,13.9401709 L0.597560976,13.9401709 Z M5.06097561,9.56068376 L9.93902439,9.56068376 C11.9390244,9.56068376 13.5853659,11.0205128 13.8414634,12.9111111 L1.15853659,12.9111111 C1.41463415,11.0324786 3.06097561,9.56068376 5.06097561,9.56068376 L5.06097561,9.56068376 Z" id="Shape"></path>
                    </g>
                </g>
            </g>
        </g>
    </g>
</svg>