<?xml version="1.0" encoding="UTF-8" standalone="no"?>
<svg width="20px" height="20px" viewBox="0 0 20 20" version="1.1" xmlns="http://www.w3.org/2000/svg" xmlns:xlink="http://www.w3.org/1999/xlink">
    <!-- Generator: Sketch 39.1 (31720) - http://www.bohemiancoding.com/sketch -->
    <title>sign copy</title>
    <desc>Created with Sketch.</desc>
    <defs></defs>
    <g id="Pages" stroke="none" stroke-width="1" fill="none" fill-rule="evenodd" opacity="0.793435168">
        <g id="assesment-results" transform="translate(-195.000000, -469.000000)" fill="#FFFFFF">
            <g id="res" transform="translate(185.000000, 377.000000)">
                <g id="Group-3" transform="translate(0.000000, 4.000000)">
                    <g id="sign-copy" transform="translate(20.000000, 98.000000) scale(-1, -1) translate(-20.000000, -98.000000) translate(10.000000, 88.000000)">
                        <g id="Capa_1">
                            <path d="M19.9813433,9.6338806 C19.9813433,8.63481343 19.1963806,7.84985075 18.1973134,7.84985075 L13.915597,7.84985075 C14.6291791,4.28171642 14.2723881,0 11.4179104,0 C8.56343284,0 10.0620149,3.42537313 8.92022388,5.56623134 C7.77843284,7.63574627 5.70895522,7.84981343 5.70895522,7.84981343 L1.42723881,7.84981343 C0.642238806,7.84981343 0,8.49205224 0,9.27705224 L0,17.1268657 C0,17.9118284 0.642238806,18.5541045 1.42723881,18.5541045 L5.70895522,18.5541045 L9.99067164,19.9813433 L12.2742537,19.9813433 L15.3427985,19.9813433 C16.3418657,19.9813433 17.1268284,19.1963806 17.1268284,18.1973134 C17.1268284,17.7691418 16.9841045,17.4123507 16.7700373,17.1268657 C17.7691045,17.1268657 18.5540672,16.341903 18.5540672,15.3428358 C18.5540672,14.9146642 18.4113433,14.4864925 18.1258955,14.1296642 C18.8395149,13.8442537 19.2676866,13.2019776 19.2676866,12.4883582 C19.2676866,12.0601866 19.1249627,11.6320149 18.8395149,11.2751866 C19.481791,11.0611194 19.9813433,10.4188433 19.9813433,9.6338806 L19.9813433,9.6338806 Z M18.1973134,10.704291 L15.6996269,10.704291 L15.6996269,11.4179104 L17.4836567,11.4179104 C18.0545522,11.4179104 18.5541045,11.9174627 18.5541045,12.4883582 C18.5541045,13.0592537 18.0545522,13.558806 17.4836567,13.558806 L14.9859701,13.558806 L14.9859701,14.2723881 L16.77,14.2723881 C17.3408955,14.2723881 17.8404478,14.7719403 17.8404478,15.3428358 C17.8404478,15.9137313 17.3408955,16.4132836 16.77,16.4132836 L14.2723881,16.4132836 L14.2723881,17.1268657 L15.3428358,17.1268657 C15.9137313,17.1268657 16.4132836,17.6264179 16.4132836,18.1973134 C16.4132836,18.768209 15.9137313,19.2677612 15.3428358,19.2677612 L12.7024254,19.2677612 L9.99067164,19.2677612 L5.70895522,17.8404851 L1.42723881,17.8404851 C0.999067164,17.8404851 0.713619403,17.5550373 0.713619403,17.1268657 L0.713619403,9.27705224 C0.713619403,8.8488806 0.999067164,8.56343284 1.42723881,8.56343284 L6.06574627,8.56343284 C6.06574627,8.56343284 8.42067164,8.0638806 9.56246269,5.92302239 C10.7042537,3.78216418 9.34843284,0.713619403 11.4179104,0.713619403 C13.7014925,0.713619403 13.915597,4.63854478 13.0592164,8.56343284 L18.1972761,8.56343284 C18.7681716,8.56343284 19.2677239,9.06298507 19.2677239,9.6338806 C19.2677239,10.2047761 18.7681716,10.704291 18.1973134,10.704291 L18.1973134,10.704291 Z" id="Shape"></path>
                        </g>
                    </g>
                </g>
            </g>
        </g>
    </g>
</svg>