<?xml version="1.0" encoding="UTF-8" standalone="no"?>
<svg width="8px" height="15px" viewBox="0 0 8 15" version="1.1" xmlns="http://www.w3.org/2000/svg" xmlns:xlink="http://www.w3.org/1999/xlink">
    <!-- Generator: Sketch 39.1 (31720) - http://www.bohemiancoding.com/sketch -->
    <title>money</title>
    <desc>Created with Sketch.</desc>
    <defs></defs>
    <g id="Pages" stroke="none" stroke-width="1" fill="none" fill-rule="evenodd" opacity="0.498542444">
        <g id="dahsboard" transform="translate(-715.000000, -629.000000)" fill="#000000">
            <g id="cities" transform="translate(435.000000, 502.000000)">
                <g id="res" transform="translate(42.000000, 80.000000)">
                    <g id="Group-2" transform="translate(234.000000, 0.000000)">
                        <g id="money" transform="translate(4.000000, 47.000000)">
                            <g id="Capa_1">
                                <path d="M7.85853731,9.12524414 C7.78477612,8.88011719 7.69528358,8.66677734 7.5901791,8.48560547 C7.48513433,8.30425781 7.33468657,8.12736328 7.13853731,7.95433594 C6.94262687,7.78139648 6.76638806,7.64211914 6.6101194,7.53624023 C6.4539403,7.43027344 6.23940299,7.31179688 5.96662687,7.18066406 C5.69408955,7.04956055 5.47814925,6.95200195 5.31919403,6.8878418 C5.16002985,6.82376953 4.92979104,6.7359375 4.62862687,6.6244043 C4.36161194,6.5240918 4.16280597,6.44739258 4.032,6.39445313 C3.90134328,6.34145508 3.72952239,6.2662207 3.51644776,6.16857422 C3.30346269,6.07107422 3.14435821,5.98458984 3.03922388,5.90935547 C2.9341194,5.83412109 2.8219403,5.74212891 2.70259701,5.6334082 C2.58325373,5.5246875 2.49946269,5.40896484 2.45113433,5.28629883 C2.40292537,5.16360352 2.37874627,5.02974609 2.37874627,4.88475586 C2.37874627,4.5056543 2.54913433,4.19607422 2.89002985,3.95636719 C3.23095522,3.71666016 3.67134328,3.59674805 4.21113433,3.59674805 C4.44964179,3.59674805 4.69280597,3.62876953 4.93979104,3.69295898 C5.18677612,3.75714844 5.39844776,3.82945313 5.57459701,3.91037109 C5.75089552,3.99128906 5.91701493,4.08052734 6.07331343,4.17805664 C6.22958209,4.27567383 6.34032836,4.34950195 6.40573134,4.3996875 C6.47107463,4.44990234 6.51247761,4.48333008 6.52934328,4.50008789 C6.60331343,4.55583984 6.6798209,4.57532227 6.75937313,4.55865234 C6.84456716,4.55308594 6.90997015,4.5084082 6.95552239,4.42485352 L7.64597015,3.20364258 C7.7141194,3.09216797 7.70002985,2.98620117 7.60337313,2.88577148 C7.56922388,2.85231445 7.52677612,2.81332031 7.47528358,2.76867188 C7.42429851,2.72402344 7.31346269,2.64319336 7.14286567,2.52603516 C6.97244776,2.40896484 6.7920597,2.3044043 6.60185075,2.21238281 C6.41143284,2.12044922 6.16420896,2.02699219 5.86020896,1.93224609 C5.55638806,1.83735352 5.24238806,1.77328125 4.91844776,1.73985352 L4.91844776,0.26765625 C4.91844776,0.189638672 4.89292537,0.125478516 4.8419403,0.0752636719 C4.79083582,0.0251660156 4.72546269,0 4.64579104,0 L3.49516418,0 C3.42131343,0 3.35740299,0.0264550781 3.30343284,0.079453125 C3.24946269,0.132451172 3.22247761,0.195146484 3.22247761,0.26765625 L3.22247761,1.77325195 C2.33041791,1.94047852 1.606,2.31410156 1.04919403,2.8940332 C0.492447761,3.47399414 0.213970149,4.14861328 0.213970149,4.91821289 C0.213970149,5.14681641 0.238208955,5.36428711 0.286507463,5.57050781 C0.334746269,5.7769043 0.394447761,5.96232422 0.465492537,6.12679688 C0.536477612,6.29138672 0.637373134,6.45304688 0.768029851,6.61201172 C0.898686567,6.77091797 1.02229851,6.90755859 1.13874627,7.02181641 C1.25525373,7.13604492 1.40725373,7.25458008 1.59468657,7.3772168 C1.78223881,7.4999707 1.94274627,7.59902344 2.07629851,7.67425781 C2.2098806,7.74925781 2.38740299,7.83597656 2.60892537,7.93333008 C2.83050746,8.03097656 3.00528358,8.10477539 3.13313433,8.15507813 C3.26098507,8.20520508 3.43567164,8.27499023 3.65734328,8.36402344 C3.9641194,8.48112305 4.19143284,8.57176758 4.33913433,8.63592773 C4.48695522,8.70008789 4.67438806,8.78929688 4.90179104,8.90361328 C5.12898507,9.0178125 5.29510448,9.12240234 5.40029851,9.21723633 C5.50540299,9.31207031 5.60053731,9.42916992 5.6858209,9.56853516 C5.77110448,9.70790039 5.8138209,9.85567383 5.8138209,10.0118848 C5.8138209,10.4524219 5.63910448,10.7925 5.28958209,11.0320898 C4.94020896,11.2719434 4.53525373,11.3918262 4.07510448,11.3918262 C3.86507463,11.3918262 3.65468657,11.3696484 3.44453731,11.3250586 C2.70591045,11.1798926 2.01561194,10.831377 1.37358209,10.2793652 L1.35653731,10.2626367 C1.30537313,10.2014648 1.23716418,10.1763281 1.15202985,10.1875488 C1.06110448,10.1986816 0.995731343,10.232168 0.956,10.2880371 L0.0781492537,11.4171387 C-0.00710447761,11.5286426 -0.00134328358,11.6429297 0.0952238806,11.7600293 C0.123671642,11.7935156 0.173373134,11.8438184 0.244358209,11.9106152 C0.315522388,11.9776758 0.447641791,12.0820605 0.640716418,12.2245313 C0.833850746,12.3667969 1.04408955,12.5004492 1.27140299,12.6260742 C1.49868657,12.7514941 1.78698507,12.8755078 2.13647761,12.9982324 C2.48597015,13.120752 2.84808955,13.2071484 3.22310448,13.2573047 L3.22310448,14.7210645 C3.22310448,14.7936621 3.2501194,14.8563281 3.3040597,14.9093555 C3.3580597,14.9624121 3.4219403,14.9887793 3.49579104,14.9887793 L4.64641791,14.9887793 C4.72608955,14.9887793 4.79146269,14.9637305 4.84253731,14.9136035 C4.89361194,14.8634766 4.91904478,14.7993164 4.91904478,14.7210938 L4.91904478,13.257334 C5.82259701,13.112373 6.55695522,12.7317773 7.12220896,12.1155762 C7.68752239,11.499375 7.97026866,10.7646973 7.97026866,9.91160156 C7.96997015,9.6328418 7.93310448,9.37075195 7.85853731,9.12524414 L7.85853731,9.12524414 Z" id="Shape"></path>
                            </g>
                        </g>
                    </g>
                </g>
            </g>
        </g>
    </g>
</svg>