<?xml version="1.0" encoding="UTF-8" standalone="no"?>
<svg width="15px" height="14px" viewBox="0 0 15 14" version="1.1" xmlns="http://www.w3.org/2000/svg" xmlns:xlink="http://www.w3.org/1999/xlink">
    <!-- Generator: Sketch 39.1 (31720) - http://www.bohemiancoding.com/sketch -->
    <title>interface</title>
    <desc>Created with Sketch.</desc>
    <defs></defs>
    <g id="Pages" stroke="none" stroke-width="1" fill="none" fill-rule="evenodd">
        <g id="dahsboard" transform="translate(-657.000000, -690.000000)" fill="#FFFFFF">
            <g id="cities" transform="translate(435.000000, 502.000000)">
                <g id="res" transform="translate(42.000000, 80.000000)">
                    <g id="Group-3">
                        <g id="interface" transform="translate(180.000000, 108.000000)">
                            <g id="Capa_1">
                                <g id="Group">
                                    <path d="M14.267116,12.2734588 C14.267116,12.7919529 13.8615282,13.2111529 13.3580643,13.2111529 L4.72664577,13.2111529 C4.47263323,13.2097647 4.17061129,13.2079294 3.86675549,13.2038118 C3.63731191,13.2001647 3.58394201,13.0532706 3.57637147,12.9370118 C3.58619906,12.7269647 3.63799373,12.4418588 3.6728605,12.2720941 C3.68177116,12.2322824 3.69,12.1929176 3.69789969,12.1521882 C3.70097962,12.1382118 3.70304859,12.1286118 3.70304859,12.1286118 L3.70304859,12.1286118 C3.80605016,11.6076 3.83280564,11.1140706 3.83280564,11.1140706 L3.83212382,11.1140706 C3.8365674,11.0401412 3.83863636,10.9753882 3.83863636,10.934 L3.83863636,10.8717412 L3.83863636,1.63910588 C3.83863636,1.12312941 4.24502351,0.700964706 4.74745298,0.700964706 L13.3580878,0.700964706 C13.8603997,0.700964706 14.2666928,1.12312941 14.2666928,1.63910588 L14.2666928,12.2734588 L14.267116,12.2734588 L14.267116,12.2734588 L14.267116,12.2734588 Z M3.14301724,10.5129647 C3.14301724,10.8381176 3.05031348,11.7119529 3.03190439,11.8833176 C3.02367555,11.9297647 3.01807994,11.9734588 3.00825235,12.022 L3.00893417,12.0215294 C3.00893417,12.0215294 2.92365987,12.5573882 2.78280564,12.9342588 C2.72724922,13.0930353 2.61039969,13.1511765 2.54835423,13.1708471 C1.86451411,13.2893647 1.50818182,13.0486824 1.42815047,12.9832235 C1.32766458,12.8875765 1.21998433,12.7553176 1.11561912,12.5560235 C1.11183386,12.5496235 1.10739028,12.5443765 1.10407524,12.5377412 C1.09664577,12.5233176 1.09217868,12.5093647 1.08507837,12.4944941 C1.06758621,12.4590118 1.05,12.4272235 1.03271944,12.3878588 C1.02380878,12.3668 1.01889498,12.3476 1.01282915,12.3279059 C0.806943574,11.8544941 0.714239812,11.4195294 0.716167712,10.8941647 C0.718001567,10.2917176 0.735822884,4.72677647 0.735822884,4.72677647 C0.735822884,4.72677647 0.688260188,3.45228235 1.53648903,3.45755294 C2.2559953,3.46211765 2.75863636,3.46522353 2.89605799,3.46590588 L2.89605799,3.46590588 L2.89673981,3.46590588 C2.92086207,3.46637647 2.93720219,3.46637647 2.93720219,3.46637647 L2.94303292,3.46637647 C3.01424765,3.47345882 3.14113636,3.51981176 3.1422884,3.76771765 L3.14181818,3.90854118 L3.14320533,3.90854118 L3.14301724,10.5129647 L3.14301724,10.5129647 L3.14301724,10.5129647 L3.14301724,10.5129647 Z M13.9424765,0.0155764706 L4.12946708,0.0155764706 C3.55605799,0.0155764706 3.09340909,0.487952941 3.09340909,1.06432941 L3.09340909,2.46898824 C3.08757837,2.58774118 3.0507837,2.77708235 2.87381661,2.77637647 C2.87381661,2.77637647 2.87381661,2.77637647 2.8735815,2.77637647 C2.4861442,2.77456471 1.92303292,2.77192941 1.23315047,2.76929412 C0.348550157,2.76517647 0.0810423197,3.39945882 0,3.83350588 L0,11.4451529 C0,11.4451529 0.026637931,12.1842118 0.206214734,12.6249176 C0.295274295,12.8207529 0.407868339,13.0184706 0.548487461,13.2250824 C0.775180251,13.558 1.12144984,13.7341882 1.40518025,13.8268706 L1.40449843,13.8268706 C1.40449843,13.8268706 1.54053292,13.9362118 2.55282132,13.9865647 L14.0503918,13.9865647 C14.5721238,13.9318824 14.9786285,13.4920941 14.9786285,12.9486824 L14.9786285,1.06432941 C14.9781583,0.487952941 14.5158621,0.0155764706 13.9424765,0.0155764706 L13.9424765,0.0155764706 L13.9424765,0.0155764706 Z" id="Shape"></path>
                                    <path d="M5.6738558,3.11983529 L12.455431,3.11983529 C12.455431,3.11983529 12.9319044,3.08138824 12.926873,3.46901176 C12.926873,3.61122353 12.9158934,3.81887059 12.4403605,3.81887059 L5.67409091,3.81887059 C5.67409091,3.81887059 5.31329154,3.76865882 5.32462382,3.4688 C5.32953762,3.30002353 5.4227116,3.11983529 5.6738558,3.11983529 L5.6738558,3.11983529 L5.6738558,3.11983529 Z" id="Shape"></path>
                                    <path d="M5.6738558,4.88204706 L12.455431,4.88204706 C12.455431,4.88204706 12.9319044,4.84395294 12.926873,5.23167059 C12.926873,5.37385882 12.9158934,5.58129412 12.4403605,5.58129412 L5.67409091,5.58129412 C5.67409091,5.58129412 5.31329154,5.53105882 5.32462382,5.23122353 C5.32953762,5.06244706 5.4227116,4.88204706 5.6738558,4.88204706 L5.6738558,4.88204706 L5.6738558,4.88204706 Z" id="Shape"></path>
                                    <path d="M5.61510188,6.65223529 L12.3973824,6.65223529 C12.3973824,6.65223529 12.8738558,6.61402353 12.8683307,7.00185882 C12.8683307,7.14395294 12.8573746,7.35124706 12.3822649,7.35124706 L5.61533699,7.35124706 C5.61533699,7.35124706 5.25524295,7.30136471 5.26610502,7.00141176 C5.27170063,6.83277647 5.36440439,6.65223529 5.61510188,6.65223529 L5.61510188,6.65223529 L5.61510188,6.65223529 Z" id="Shape"></path>
                                    <path d="M5.61510188,8.35618824 L12.3973824,8.35618824 C12.3973824,8.35618824 12.8738558,8.31821176 12.8683307,8.70581176 C12.8683307,8.84745882 12.8573746,9.05522353 12.3822649,9.05522353 L5.61533699,9.05522353 C5.61533699,9.05522353 5.25524295,9.00534118 5.26610502,8.70581176 C5.27170063,8.53696471 5.36440439,8.35618824 5.61510188,8.35618824 L5.61510188,8.35618824 L5.61510188,8.35618824 Z" id="Shape"></path>
                                    <path d="M5.61510188,10.1331529 L12.3973824,10.1331529 C12.3973824,10.1331529 12.8738558,10.0951765 12.8683307,10.4827765 C12.8683307,10.6244235 12.8573746,10.8321647 12.3822649,10.8321647 L5.61533699,10.8321647 C5.61533699,10.8321647 5.25524295,10.7827529 5.26610502,10.4827765 C5.27170063,10.3139059 5.36440439,10.1331529 5.61510188,10.1331529 L5.61510188,10.1331529 L5.61510188,10.1331529 Z" id="Shape"></path>
                                </g>
                            </g>
                        </g>
                    </g>
                </g>
            </g>
        </g>
    </g>
</svg>