<?xml version="1.0" encoding="UTF-8" standalone="no"?>
<svg width="16px" height="13px" viewBox="0 0 16 13" version="1.1" xmlns="http://www.w3.org/2000/svg" xmlns:xlink="http://www.w3.org/1999/xlink">
    <!-- Generator: Sketch 39.1 (31720) - http://www.bohemiancoding.com/sketch -->
    <title>note</title>
    <desc>Created with Sketch.</desc>
    <defs></defs>
    <g id="Pages" stroke="none" stroke-width="1" fill="none" fill-rule="evenodd">
        <g id="dahsboard" transform="translate(-438.000000, -1016.000000)" fill="#000000">
            <g id="personal-data-copy-3" transform="translate(135.000000, 937.000000)">
                <g id="fav" transform="translate(40.000000, 72.000000)">
                    <g id="note" transform="translate(263.000000, 7.000000)">
                        <g id="Layer_1">
                            <path d="M15.9999687,1.49829899 C15.9999687,1.24538693 15.90575,1.00763065 15.7346562,0.828831658 L15.3788437,0.456861809 C15.20775,0.278030151 14.98025,0.179550251 14.7382812,0.179550251 C14.4963125,0.179550251 14.2688437,0.278030151 14.0977187,0.456861809 L12.4210625,2.20934673 L12.4210625,0.341756281 C12.4210625,0.157796482 12.2783437,0.00862311558 12.1023437,0.00862311558 L0.31871875,0.00862311558 C0.1426875,0.00859045226 0,0.157796482 0,0.341756281 L0,12.6582437 C0,12.8422035 0.1426875,12.9913769 0.31871875,12.9913769 L12.1023125,12.9913769 C12.2783125,12.9913769 12.4210312,12.8422035 12.4210312,12.6582437 L12.4209062,5.63151508 L15.7346562,2.16786432 C15.90575,1.98903266 15.9999687,1.75121106 15.9999687,1.49829899 L15.9999687,1.49829899 Z M11.7835938,12.3250779 L0.6374375,12.3250779 L0.6374375,0.674922111 L11.7835625,0.674922111 L11.7835625,2.87564573 L5.94834375,8.97476884 C5.91334375,9.01135176 5.887,9.05596985 5.87134375,9.10499749 L5.27821875,10.9648141 C5.24003125,11.0845251 5.26984375,11.2165176 5.35521875,11.3057211 C5.41596875,11.3692186 5.4974375,11.4032864 5.58065625,11.4032864 C5.614375,11.4032864 5.648375,11.397701 5.68140625,11.3862035 L7.46075,10.7662864 C7.5076875,10.7499221 7.55034375,10.7223869 7.58534375,10.685804 L11.7835938,6.29768342 L11.7835938,12.3250779 L11.7835938,12.3250779 Z M7.18775,10.1590754 L6.0845,10.5434246 L6.45225,9.39027889 L13.2198438,2.31661307 L13.9553438,3.08537688 L7.18775,10.1590754 L7.18775,10.1590754 Z M15.2839063,1.69669598 L14.4060938,2.61424121 L14.0383438,2.2298593 L13.670625,1.84547739 L14.5484688,0.927932161 C14.5991875,0.874919598 14.6665625,0.845751256 14.7382813,0.845751256 C14.81,0.845751256 14.877375,0.874919598 14.9280938,0.927899497 L15.2839375,1.29986935 C15.2839375,1.29990201 15.2839375,1.29990201 15.2839688,1.29990201 C15.3346563,1.35291457 15.3625625,1.42333668 15.3625625,1.49826633 C15.3625625,1.57326131 15.334625,1.64371608 15.2839063,1.69669598 L15.2839063,1.69669598 Z" id="Shape"></path>
                            <path d="M9.94140625,2.09074623 L9.63753125,2.09074623 C9.46153125,2.09074623 9.3188125,2.2399196 9.3188125,2.4238794 C9.3188125,2.6078392 9.4615,2.75701256 9.63753125,2.75701256 L9.94140625,2.75701256 C10.1174062,2.75701256 10.260125,2.6078392 10.260125,2.4238794 C10.2601562,2.23995226 10.1174062,2.09074623 9.94140625,2.09074623 L9.94140625,2.09074623 Z" id="Shape"></path>
                            <path d="M8.25321875,2.09074623 L2.44584375,2.09074623 C2.2698125,2.09074623 2.127125,2.2399196 2.127125,2.4238794 C2.127125,2.6078392 2.2698125,2.75701256 2.44584375,2.75701256 L8.25325,2.75701256 C8.42925,2.75701256 8.57196875,2.6078392 8.57196875,2.4238794 C8.5719375,2.23995226 8.42921875,2.09074623 8.25321875,2.09074623 L8.25321875,2.09074623 Z" id="Shape"></path>
                            <path d="M7.94934375,4.03176382 L2.44584375,4.03176382 C2.2698125,4.03176382 2.127125,4.18093719 2.127125,4.36489698 C2.127125,4.54885678 2.2698125,4.69803015 2.44584375,4.69803015 L7.949375,4.69803015 C8.125375,4.69803015 8.26809375,4.54885678 8.26809375,4.36489698 C8.26809375,4.18093719 8.12534375,4.03176382 7.94934375,4.03176382 L7.94934375,4.03176382 Z" id="Shape"></path>
                            <path d="M5.95728125,5.97278141 L2.44584375,5.97278141 C2.2698125,5.97278141 2.127125,6.12195477 2.127125,6.30591457 C2.127125,6.48987437 2.2698125,6.63904774 2.44584375,6.63904774 L5.9573125,6.63904774 C6.13334375,6.63904774 6.27603125,6.48987437 6.27603125,6.30591457 C6.27603125,6.12195477 6.1333125,5.97278141 5.95728125,5.97278141 L5.95728125,5.97278141 Z" id="Shape"></path>
                            <path d="M4.4379375,7.87845729 L2.44584375,7.87845729 C2.2698125,7.87845729 2.127125,8.02763065 2.127125,8.21159045 C2.127125,8.39555025 2.2698125,8.54472362 2.44584375,8.54472362 L4.43790625,8.54472362 C4.6139375,8.54472362 4.756625,8.39555025 4.756625,8.21159045 C4.756625,8.02763065 4.61396875,7.87845729 4.4379375,7.87845729 L4.4379375,7.87845729 Z" id="Shape"></path>
                        </g>
                    </g>
                </g>
            </g>
        </g>
    </g>
</svg>