<?xml version="1.0" encoding="UTF-8" standalone="no"?>
<svg width="15px" height="16px" viewBox="0 0 15 16" version="1.1" xmlns="http://www.w3.org/2000/svg" xmlns:xlink="http://www.w3.org/1999/xlink">
    <!-- Generator: Sketch 39.1 (31720) - http://www.bohemiancoding.com/sketch -->
    <title>city</title>
    <desc>Created with Sketch.</desc>
    <defs></defs>
    <g id="Pages" stroke="none" stroke-width="1" fill="none" fill-rule="evenodd" opacity="0.498542444">
        <g id="dahsboard" transform="translate(-712.000000, -651.000000)" fill="#000000">
            <g id="cities" transform="translate(435.000000, 502.000000)">
                <g id="res" transform="translate(42.000000, 80.000000)">
                    <g id="Group-2" transform="translate(234.000000, 0.000000)">
                        <g id="city" transform="translate(1.000000, 69.000000)">
                            <g id="Layer_1">
                                <g id="Group">
                                    <path d="M1.2964939,11.733375 C1.15514005,11.733375 1.04040635,11.8528437 1.04040635,12.0000312 L1.04040635,12.533375 C1.04040635,12.6805625 1.15514005,12.8000312 1.2964939,12.8000312 C1.43784775,12.8000312 1.55258146,12.6805625 1.55258146,12.533375 L1.55258146,12.0000312 C1.55258146,11.8528437 1.43784775,11.733375 1.2964939,11.733375 L1.2964939,11.733375 Z" id="Shape"></path>
                                    <path d="M1.2964939,13.333375 C1.15514005,13.333375 1.04040635,13.4528437 1.04040635,13.6000312 L1.04040635,14.133375 C1.04040635,14.2805625 1.15514005,14.4000312 1.2964939,14.4000312 C1.43784775,14.4000312 1.55258146,14.2805625 1.55258146,14.133375 L1.55258146,13.6000312 C1.55258146,13.4528437 1.43784775,13.333375 1.2964939,13.333375 L1.2964939,13.333375 Z" id="Shape"></path>
                                    <path d="M1.2964939,10.133375 C1.15514005,10.133375 1.04040635,10.2528438 1.04040635,10.4000313 L1.04040635,10.933375 C1.04040635,11.0805625 1.15514005,11.2000313 1.2964939,11.2000313 C1.43784775,11.2000313 1.55258146,11.0805625 1.55258146,10.933375 L1.55258146,10.4000313 C1.55258146,10.2528438 1.43784775,10.133375 1.2964939,10.133375 L1.2964939,10.133375 Z" id="Shape"></path>
                                    <path d="M2.32087414,11.733375 C2.17952029,11.733375 2.06478659,11.8528437 2.06478659,12.0000312 L2.06478659,12.533375 C2.06478659,12.6805625 2.17952029,12.8000312 2.32087414,12.8000312 C2.46222799,12.8000312 2.5769617,12.6805625 2.5769617,12.533375 L2.5769617,12.0000312 C2.57699171,11.8528437 2.462258,11.733375 2.32087414,11.733375 L2.32087414,11.733375 Z" id="Shape"></path>
                                    <path d="M2.32087414,10.133375 C2.17952029,10.133375 2.06478659,10.2528438 2.06478659,10.4000313 L2.06478659,10.933375 C2.06478659,11.0805625 2.17952029,11.2000313 2.32087414,11.2000313 C2.46222799,11.2000313 2.5769617,11.0805625 2.5769617,10.933375 L2.5769617,10.4000313 C2.57699171,10.2528438 2.462258,10.133375 2.32087414,10.133375 L2.32087414,10.133375 Z" id="Shape"></path>
                                    <path d="M2.32087414,13.333375 C2.17952029,13.333375 2.06478659,13.4528437 2.06478659,13.6000312 L2.06478659,14.133375 C2.06478659,14.2805625 2.17952029,14.4000312 2.32087414,14.4000312 C2.46222799,14.4000312 2.5769617,14.2805625 2.5769617,14.133375 L2.5769617,13.6000312 C2.57699171,13.4528437 2.462258,13.333375 2.32087414,13.333375 L2.32087414,13.333375 Z" id="Shape"></path>
                                    <path d="M14.6135571,2.93334375 L14.1013519,2.93334375 L14.1013519,2.13334375 C14.1013519,1.98615625 13.9866182,1.8666875 13.8452644,1.8666875 L12.308679,1.8666875 C12.1673252,1.8666875 12.0525915,1.98615625 12.0525915,2.13334375 L12.0525915,2.93334375 L11.5403863,2.93334375 C11.3990325,2.93334375 11.2842988,3.0528125 11.2842988,3.2 L11.2842988,7.46665625 L11.0282112,7.46665625 L11.0282112,6.66665625 C11.0282112,6.51946875 10.9134775,6.4 10.7721237,6.4 L10.5160061,6.4 L10.5160061,6.13334375 C10.5160061,5.98615625 10.4012724,5.8666875 10.2599185,5.8666875 C10.1185647,5.8666875 10.003831,5.98615625 10.003831,6.13334375 L10.003831,6.4 L9.74771341,6.4 C9.60635957,6.4 9.49162586,6.51946875 9.49162586,6.66665625 L9.49162586,7.46665625 L8.72333317,7.46665625 L8.72333317,2.13334375 C8.72333317,1.98615625 8.60859947,1.8666875 8.46724562,1.8666875 L7.69895293,1.8666875 L7.69895293,0.2666875 C7.69892292,0.11946875 7.58418921,0 7.44283537,0 L4.36966463,0 C4.22831079,0 4.11357708,0.11946875 4.11357708,0.26665625 L4.11357708,1.86665625 L3.34528439,1.86665625 C3.20393054,1.86665625 3.08919684,1.986125 3.08919684,2.1333125 L3.08919684,9.06665625 L2.57699171,9.06665625 L2.57699171,8.26665625 C2.57699171,8.11946875 2.462258,8 2.32090415,8 L0.784318788,8 C0.642964939,8 0.528231231,8.11946875 0.528231231,8.26665625 L0.528231231,9.06665625 L0.272143674,9.06665625 C0.130789825,9.06665625 0.0160561166,9.186125 0.0160561166,9.3333125 L0.0160561166,15.7333125 C0.0160561166,15.8805 0.130789825,15.9999688 0.272143674,15.9999688 L3.34531441,15.9999688 L5.3941049,15.9999688 L11.5404464,15.9999688 L14.6136171,15.9999688 C14.7549709,15.9999688 14.8697046,15.8805 14.8697046,15.7333125 L14.8697046,3.2 C14.8696746,3.0528125 14.7549409,2.93334375 14.6135571,2.93334375 L14.6135571,2.93334375 Z M7.18674781,3.2 C7.18674781,3.0528125 7.30148152,2.93334375 7.44283537,2.93334375 C7.58418921,2.93334375 7.69892292,3.0528125 7.69892292,3.2 L7.69892292,7.46665625 L7.1867178,7.46665625 L7.1867178,3.2 L7.18674781,3.2 Z M6.16233756,1.33334375 C6.16233756,1.18615625 6.27707127,1.0666875 6.41842511,1.0666875 C6.55977896,1.0666875 6.67451267,1.18615625 6.67451267,1.33334375 L6.67451267,2.13334375 C6.67451267,2.28053125 6.55977896,2.4 6.41842511,2.4 C6.27707127,2.4 6.16233756,2.28053125 6.16233756,2.13334375 L6.16233756,1.33334375 L6.16233756,1.33334375 Z M6.16233756,3.2 C6.16233756,3.0528125 6.27707127,2.93334375 6.41842511,2.93334375 C6.55977896,2.93334375 6.67451267,3.0528125 6.67451267,3.2 L6.67451267,7.46665625 L6.16230755,7.46665625 L6.16230755,3.2 L6.16233756,3.2 Z M5.13795732,1.33334375 C5.13795732,1.18615625 5.25269103,1.0666875 5.39404487,1.0666875 C5.53539872,1.0666875 5.65013243,1.18615625 5.65013243,1.33334375 L5.65013243,2.13334375 C5.65013243,2.28053125 5.53539872,2.4 5.39404487,2.4 C5.25269103,2.4 5.13795732,2.28053125 5.13795732,2.13334375 L5.13795732,1.33334375 L5.13795732,1.33334375 Z M4.11357708,3.2 C4.11357708,3.0528125 4.22831079,2.93334375 4.36966463,2.93334375 C4.51101848,2.93334375 4.62575219,3.0528125 4.62575219,3.2 L4.62575219,9.06665625 L4.11354707,9.06665625 L4.11354707,3.2 L4.11357708,3.2 Z M5.13795732,14.9333437 L4.36966463,14.9333437 C4.22831079,14.9333437 4.11357708,14.813875 4.11357708,14.6666875 C4.11357708,14.5195 4.22831079,14.4000312 4.36966463,14.4000312 L5.13795732,14.4000312 L5.13795732,14.9333437 L5.13795732,14.9333437 Z M5.13795732,13.8666563 L4.36966463,13.8666563 C4.22831079,13.8666563 4.11357708,13.7471875 4.11357708,13.6 C4.11357708,13.4528125 4.22831079,13.3333438 4.36966463,13.3333438 L5.13795732,13.3333438 L5.13795732,13.8666563 L5.13795732,13.8666563 Z M5.13795732,12.8 L4.36966463,12.8 C4.22831079,12.8 4.11357708,12.6805312 4.11357708,12.5333437 C4.11357708,12.3861562 4.22831079,12.2666875 4.36966463,12.2666875 L5.13795732,12.2666875 L5.13795732,12.8 L5.13795732,12.8 Z M5.13795732,11.7333438 L4.36966463,11.7333438 C4.22831079,11.7333438 4.11357708,11.613875 4.11357708,11.4666875 C4.11357708,11.3195 4.22831079,11.2000313 4.36966463,11.2000313 L5.13795732,11.2000313 L5.13795732,11.7333438 L5.13795732,11.7333438 Z M5.13795732,10.1333438 L3.34528439,10.1333438 C3.20393054,10.1333438 3.08919684,10.2528125 3.08919684,10.4 L3.08919684,15.4666563 L0.52820122,15.4666563 L0.52820122,9.6 L0.784288777,9.6 L2.32087414,9.6 L3.34525438,9.6 L4.36966463,9.6 L5.13795732,9.6 L5.13795732,10.1333438 L5.13795732,10.1333438 Z M5.13795732,7.73334375 L5.13795732,3.2 C5.13795732,3.0528125 5.25269103,2.93334375 5.39404487,2.93334375 C5.53539872,2.93334375 5.65013243,3.0528125 5.65013243,3.2 L5.65013243,7.46665625 L5.39404487,7.46665625 C5.25269103,7.46665625 5.13795732,7.586125 5.13795732,7.73334375 L5.13795732,7.73334375 Z M11.2842988,15.4666562 L10.7720937,15.4666562 L10.7720937,8.8 C10.7720937,8.6528125 10.6573599,8.53334375 10.5160061,8.53334375 C10.3746522,8.53334375 10.2599185,8.6528125 10.2599185,8.8 L10.2599185,15.4666562 L9.74771341,15.4666562 L9.74771341,8.8 C9.74771341,8.6528125 9.63297971,8.53334375 9.49162586,8.53334375 C9.35027201,8.53334375 9.2355383,8.6528125 9.2355383,8.8 L9.2355383,15.4666562 L8.72333317,15.4666562 L8.72333317,8.8 C8.72333317,8.6528125 8.60859947,8.53334375 8.46724562,8.53334375 C8.32589177,8.53334375 8.21115806,8.6528125 8.21115806,8.8 L8.21115806,15.4666562 L7.69895293,15.4666562 L7.69895293,8.8 C7.69895293,8.6528125 7.58421923,8.53334375 7.44286538,8.53334375 C7.30151153,8.53334375 7.18677782,8.6528125 7.18677782,8.8 L7.18677782,15.4666562 L6.67454268,15.4666562 L6.67454268,8.8 C6.67454268,8.6528125 6.55980897,8.53334375 6.41845513,8.53334375 C6.27710128,8.53334375 6.16236757,8.6528125 6.16236757,8.8 L6.16236757,15.4666562 L5.65016244,15.4666562 L5.65016244,14.6666562 L5.65016244,13.6 L5.65016244,12.5333438 L5.65016244,11.4666875 L5.65016244,10.4 L5.65016244,9.33334375 L5.65016244,8 L6.41845513,8 L7.44283537,8 L8.46721561,8 L9.74771341,8 L10.7720937,8 L11.2842988,8 L11.2842988,15.4666562 L11.2842988,15.4666562 Z M12.8208841,14.452 C12.8208841,14.5991875 12.7061504,14.7186562 12.5647966,14.7186562 C12.4234427,14.7186562 12.308709,14.5991875 12.308709,14.452 L12.308709,13.9186562 C12.308709,13.7714687 12.4234427,13.652 12.5647966,13.652 C12.7061504,13.652 12.8208841,13.7714687 12.8208841,13.9186562 L12.8208841,14.452 L12.8208841,14.452 Z M12.8208841,12.852 C12.8208841,12.9991875 12.7061504,13.1186563 12.5647966,13.1186563 C12.4234427,13.1186563 12.308709,12.9991875 12.308709,12.852 L12.308709,12.3186563 C12.308709,12.1714688 12.4234427,12.052 12.5647966,12.052 C12.7061504,12.052 12.8208841,12.1714688 12.8208841,12.3186563 L12.8208841,12.852 L12.8208841,12.852 Z M12.8208841,11.252 C12.8208841,11.3991875 12.7061504,11.5186563 12.5647966,11.5186563 C12.4234427,11.5186563 12.308709,11.3991875 12.308709,11.252 L12.308709,10.7186563 C12.308709,10.5714688 12.4234427,10.452 12.5647966,10.452 C12.7061504,10.452 12.8208841,10.5714688 12.8208841,10.7186563 L12.8208841,11.252 L12.8208841,11.252 Z M12.8208841,9.652 C12.8208841,9.7991875 12.7061504,9.91865625 12.5647966,9.91865625 C12.4234427,9.91865625 12.308709,9.7991875 12.308709,9.652 L12.308709,9.11865625 C12.308709,8.97146875 12.4234427,8.852 12.5647966,8.852 C12.7061504,8.852 12.8208841,8.97146875 12.8208841,9.11865625 L12.8208841,9.652 L12.8208841,9.652 Z M12.8208841,8.052 C12.8208841,8.1991875 12.7061504,8.31865625 12.5647966,8.31865625 C12.4234427,8.31865625 12.308709,8.1991875 12.308709,8.052 L12.308709,7.51865625 C12.308709,7.37146875 12.4234427,7.252 12.5647966,7.252 C12.7061504,7.252 12.8208841,7.37146875 12.8208841,7.51865625 L12.8208841,8.052 L12.8208841,8.052 Z M12.8208841,6.452 C12.8208841,6.5991875 12.7061504,6.71865625 12.5647966,6.71865625 C12.4234427,6.71865625 12.308709,6.5991875 12.308709,6.452 L12.308709,5.91865625 C12.308709,5.77146875 12.4234427,5.652 12.5647966,5.652 C12.7061504,5.652 12.8208841,5.77146875 12.8208841,5.91865625 L12.8208841,6.452 L12.8208841,6.452 Z M12.8208841,4.852 C12.8208841,4.9991875 12.7061504,5.11865625 12.5647966,5.11865625 C12.4234427,5.11865625 12.308709,4.9991875 12.308709,4.852 L12.308709,4.31865625 C12.308709,4.17146875 12.4234427,4.052 12.5647966,4.052 C12.7061504,4.052 12.8208841,4.17146875 12.8208841,4.31865625 L12.8208841,4.852 L12.8208841,4.852 Z M13.8452644,14.452 C13.8452644,14.5991875 13.7305307,14.7186562 13.5891768,14.7186562 C13.447823,14.7186562 13.3330893,14.5991875 13.3330893,14.452 L13.3330893,13.9186562 C13.3330893,13.7714687 13.447823,13.652 13.5891768,13.652 C13.7305307,13.652 13.8452644,13.7714687 13.8452644,13.9186562 L13.8452644,14.452 L13.8452644,14.452 Z M13.8452644,12.852 C13.8452644,12.9991875 13.7305307,13.1186563 13.5891768,13.1186563 C13.447823,13.1186563 13.3330893,12.9991875 13.3330893,12.852 L13.3330893,12.3186563 C13.3330893,12.1714688 13.447823,12.052 13.5891768,12.052 C13.7305307,12.052 13.8452644,12.1714688 13.8452644,12.3186563 L13.8452644,12.852 L13.8452644,12.852 Z M13.8452644,11.252 C13.8452644,11.3991875 13.7305307,11.5186563 13.5891768,11.5186563 C13.447823,11.5186563 13.3330893,11.3991875 13.3330893,11.252 L13.3330893,10.7186563 C13.3330893,10.5714688 13.447823,10.452 13.5891768,10.452 C13.7305307,10.452 13.8452644,10.5714688 13.8452644,10.7186563 L13.8452644,11.252 L13.8452644,11.252 Z M13.8452644,9.652 C13.8452644,9.7991875 13.7305307,9.91865625 13.5891768,9.91865625 C13.447823,9.91865625 13.3330893,9.7991875 13.3330893,9.652 L13.3330893,9.11865625 C13.3330893,8.97146875 13.447823,8.852 13.5891768,8.852 C13.7305307,8.852 13.8452644,8.97146875 13.8452644,9.11865625 L13.8452644,9.652 L13.8452644,9.652 Z M13.8452644,8.052 C13.8452644,8.1991875 13.7305307,8.31865625 13.5891768,8.31865625 C13.447823,8.31865625 13.3330893,8.1991875 13.3330893,8.052 L13.3330893,7.51865625 C13.3330893,7.37146875 13.447823,7.252 13.5891768,7.252 C13.7305307,7.252 13.8452644,7.37146875 13.8452644,7.51865625 L13.8452644,8.052 L13.8452644,8.052 Z M13.8452644,6.452 C13.8452644,6.5991875 13.7305307,6.71865625 13.5891768,6.71865625 C13.447823,6.71865625 13.3330893,6.5991875 13.3330893,6.452 L13.3330893,5.91865625 C13.3330893,5.77146875 13.447823,5.652 13.5891768,5.652 C13.7305307,5.652 13.8452644,5.77146875 13.8452644,5.91865625 L13.8452644,6.452 L13.8452644,6.452 Z M13.8452644,4.852 C13.8452644,4.9991875 13.7305307,5.11865625 13.5891768,5.11865625 C13.447823,5.11865625 13.3330893,4.9991875 13.3330893,4.852 L13.3330893,4.31865625 C13.3330893,4.17146875 13.447823,4.052 13.5891768,4.052 C13.7305307,4.052 13.8452644,4.17146875 13.8452644,4.31865625 L13.8452644,4.852 L13.8452644,4.852 Z" id="Shape"></path>
                                </g>
                            </g>
                        </g>
                    </g>
                </g>
            </g>
        </g>
    </g>
</svg>