<?xml version="1.0" encoding="UTF-8" standalone="no"?>
<svg width="36px" height="39px" viewBox="0 0 36 39" version="1.1" xmlns="http://www.w3.org/2000/svg" xmlns:xlink="http://www.w3.org/1999/xlink">
    <!-- Generator: Sketch 39.1 (31720) - http://www.bohemiancoding.com/sketch -->
    <title>family-room-active</title>
    <desc>Created with Sketch.</desc>
    <defs></defs>
    <g id="category" stroke="none" stroke-width="1" fill="none" fill-rule="evenodd">
        <g id="category-empty-state" transform="translate(-155.000000, -336.000000)" fill="#FFFFFF">
            <g id="Categories" transform="translate(135.000000, 323.000000)">
                <g id="family-room-active" transform="translate(20.000000, 13.000000)">
                    <g id="Capa_1">
                        <path d="M35.9433613,6.39628329 C35.6859895,4.98189588 35.0410995,3.66675545 34.0782408,2.59222518 C34.076356,2.5901477 34.0745654,2.58797579 34.0726806,2.58589831 C33.5795183,2.02790557 32.7622618,1.26074818 31.669822,0.774617433 L31.6449424,0.763569007 C30.5905759,0.2568523 29.4591204,0 28.2821466,0 C26.5415183,0 24.8951309,0.562997579 23.520911,1.62827361 C23.5195916,1.62931235 23.5133717,1.63422276 23.5116754,1.63545036 C22.3302723,2.55983535 21.5506178,3.88073608 21.4541152,4.04901211 L21.4541152,4.04901211 C21.4497801,4.05637772 21.4455393,4.06383777 21.4414869,4.07129782 C20.8216649,5.20994673 20.4940838,6.50062954 20.4940838,7.80387167 C20.4940838,8.0745109 20.5082199,8.34845521 20.5363037,8.61796126 C20.5624084,8.86980872 20.7128168,9.09172155 20.9366387,9.20909927 C21.078377,9.28341646 21.2265236,9.34526877 21.3787225,9.39418402 C21.985445,11.2550412 23.3105654,12.7432736 24.9952147,13.5802155 C24.2730471,13.9498184 23.6244817,14.4384988 23.063466,15.0361525 C22.778199,15.3400315 22.7928063,15.8181356 23.0961675,16.1039782 C23.3994346,16.3897264 23.8765759,16.3750896 24.1618429,16.0712107 C24.431466,15.7839516 24.726534,15.528799 25.0447853,15.3074528 C25.5011937,16.6031404 26.6775079,17.5523608 28.015445,17.5523608 L28.1279686,17.5523608 C29.4681675,17.5523608 30.6433508,16.5350557 31.0728063,15.1585351 C32.6648168,16.1585593 33.6833717,17.9402833 33.6833717,19.846184 L33.6833717,27.6933051 L26.8260314,32.1518644 C26.4766806,32.3789709 26.3772565,32.8467821 26.604,33.1967433 C26.748377,33.4196949 26.9902932,33.5410387 27.2371099,33.5410387 C27.3778115,33.5410387 27.5200209,33.501661 27.6467749,33.4192228 L34.847623,28.7373341 C35.0618325,28.5980484 35.1912251,28.3595157 35.1912251,28.1036077 L35.1912251,19.846184 C35.1912251,17.1708596 33.700712,14.7728789 31.3450681,13.5763438 C33.5758429,12.4607361 35.1533403,10.2091235 35.3078953,7.58668039 C35.5206911,7.39338015 35.7056859,7.16627361 35.853644,6.91083777 C35.9438325,6.75559322 35.9755916,6.57305811 35.9433613,6.39628329 L35.9433613,6.39628329 Z M28.1280628,16.0415593 L28.0155393,16.0415593 C27.1132775,16.0415593 26.3509634,15.1652397 26.3509634,14.1279153 C26.3509634,14.1149782 26.3506806,14.1021356 26.3500209,14.089293 C26.9345969,14.2433099 27.5460314,14.3248039 28.1730157,14.3248039 C28.7088691,14.3248039 29.2318115,14.2649346 29.7347749,14.151523 C29.6757801,15.1728886 28.9503141,16.0415593 28.1280628,16.0415593 L28.1280628,16.0415593 Z M28.1729215,12.813908 C25.8995497,12.813908 23.8838325,11.4569346 23.0007958,9.42289104 C24.047623,9.12618886 24.8483874,8.23627119 25.017267,7.14021065 C25.4670785,7.19809685 25.9229215,7.22727603 26.3802723,7.22727603 C27.9137592,7.22727603 29.3910785,6.90517191 30.7141257,6.28834867 C31.055089,7.46165375 32.1381047,8.32154237 33.4177068,8.32154237 C33.5110052,8.32154237 33.6037382,8.31682082 33.695623,8.30756659 C33.1640105,10.874201 30.8828168,12.813908 28.1729215,12.813908 L28.1729215,12.813908 Z M33.4177068,6.81074092 C32.6968586,6.81074092 32.1103979,6.22328571 32.1103979,5.50107748 L32.1103979,5.0806707 C32.1103979,4.80578208 31.9614031,4.55261259 31.7212775,4.41955932 C31.4810576,4.28641162 31.1877801,4.29462712 30.9555707,4.44090073 C29.6289424,5.27538741 28.0468272,5.71647458 26.380178,5.71647458 C25.7284084,5.71647458 25.0809738,5.64763438 24.4558743,5.51184262 C24.2331832,5.46339952 24.0004084,5.51864165 23.8228586,5.66208232 C23.6454031,5.805523 23.5422094,6.02167554 23.5422094,6.25010412 L23.5422094,6.70837772 C23.5422094,7.43049153 22.9558429,8.01804116 22.235089,8.01804116 C22.1857068,8.01804116 22.1368901,8.01530266 22.0886387,8.0099201 C22.0774241,8.00822034 22.0662094,8.00680387 22.0549948,8.0056707 C22.0381257,8.00340436 22.021445,8.00066586 22.0047644,7.9977385 C22.0027853,7.93295884 22.0017487,7.86836804 22.0017487,7.8039661 C22.0017487,6.75578208 22.2642094,5.71817433 22.7608586,4.80266586 C22.7628377,4.79898305 22.764911,4.79539467 22.7665131,4.79265617 C22.7729215,4.78104116 23.4539058,3.59810412 24.4384398,2.82726392 C24.4404188,2.8256586 24.4429634,2.82376998 24.4434346,2.82339225 C25.5511414,1.96473123 26.8785236,1.51089588 28.2821466,1.51089588 C29.231623,1.51089588 30.1436859,1.71779419 30.9928901,2.12583051 C31.0075916,2.13291283 31.0293613,2.14282809 31.057822,2.15538741 C31.8962827,2.52857869 32.5400419,3.13255932 32.934911,3.57742373 C32.9392461,3.582523 32.9436754,3.58752785 32.948199,3.59262712 C33.6597173,4.38367554 34.1569319,5.33667312 34.3970576,6.36455448 C34.1504293,6.64444794 33.793822,6.81074092 33.4177068,6.81074092 L33.4177068,6.81074092 Z M21.7517277,26.1392542 C23.4601257,25.1319588 24.6092984,23.2698741 24.6092984,21.144138 C24.6092984,20.1875521 24.3765236,19.2842252 23.9649738,18.4882663 C23.950178,18.4548378 23.9333089,18.4230145 23.9144607,18.3927966 C22.9356754,16.5840654 21.0235288,15.3529685 18.8297906,15.3529685 C16.6355812,15.3529685 14.7230576,16.5844431 13.744555,18.3940242 C13.7262723,18.4234867 13.7097801,18.4545545 13.6953613,18.4870387 C13.2832461,19.2832809 13.050377,20.1869855 13.050377,21.144138 C13.050377,23.2694964 14.1989843,25.1312034 15.906911,26.1385932 C13.7928063,27.2337094 12.453644,29.4075109 12.453644,31.8132349 L12.453644,34.5685424 C12.453644,34.8268111 12.5852984,35.067138 12.802712,35.2058571 L18.4250262,38.7923462 C18.5485759,38.8711017 18.6891832,38.9104794 18.8298848,38.9104794 C18.9697382,38.9104794 19.1095916,38.8715738 19.2325759,38.7936683 L24.868178,35.2259709 C25.0879476,35.0868741 25.2206387,34.8441864 25.2194136,34.5837458 L25.2061257,31.8096465 C25.1946283,29.3982567 23.8568796,27.231632 21.7517277,26.1392542 L21.7517277,26.1392542 Z M18.8297906,16.8638644 C20.1420942,16.8638644 21.3178429,17.459724 22.1021152,18.395724 C21.086199,18.6874213 19.9720838,18.8395496 18.8299791,18.8395496 C17.6874974,18.8395496 16.573288,18.6874213 15.557466,18.395724 C16.3417382,17.459724 17.5175812,16.8638644 18.8297906,16.8638644 L18.8297906,16.8638644 Z M14.5581361,21.144138 C14.5581361,20.6533801 14.6409738,20.1815085 14.7934555,19.7421211 C16.0375288,20.1413753 17.4180628,20.3504455 18.8299791,20.3504455 C20.2415183,20.3504455 21.6218639,20.1413753 22.8661257,19.7421211 C23.0186073,20.1815085 23.101445,20.6533801 23.101445,21.144138 C23.101445,23.5042518 21.1852461,25.4244116 18.8297906,25.4244116 C16.4744293,25.4244116 14.5581361,23.5042518 14.5581361,21.144138 L14.5581361,21.144138 Z M20.1680105,26.7786465 C20.0737696,27.4933002 19.448199,27.9764092 18.8821885,27.9764092 L18.7903979,27.9764092 C18.1909319,27.9764092 17.5252147,27.4683705 17.4389843,26.7658039 C17.884555,26.876477 18.3504817,26.9353075 18.8296963,26.9353075 C19.2901571,26.9353075 19.7383665,26.8810097 20.1680105,26.7786465 L20.1680105,26.7786465 Z M18.8313927,37.2605811 L13.9614031,34.1539903 L13.9614031,31.8133293 C13.9614031,30.1521937 14.7990157,28.6354431 16.1548586,27.7415593 C16.6259686,28.8187337 17.7365026,29.4873051 18.7903979,29.4873051 L18.8821885,29.4873051 C20.0199581,29.4873051 21.0256963,28.7453608 21.4601466,27.7145521 C22.8355916,28.6031477 23.6901675,30.1317966 23.698178,31.8169177 L23.7094869,34.1724044 L18.8313927,37.2605811 L18.8313927,37.2605811 Z M13.4160314,16.9826586 C13.635801,16.6282591 13.5272356,16.162431 13.173644,15.9422179 C12.9440733,15.7992494 12.7060209,15.6695956 12.4617487,15.554201 C13.3934136,15.0769467 14.2175497,14.3933608 14.8717696,13.5382881 C15.1412042,13.6319637 15.4304293,13.6829564 15.7312461,13.6829564 C17.1800105,13.6829564 18.3586806,12.501908 18.3586806,11.0502203 L18.3586806,9.17283777 C18.3586806,6.78637772 17.4488796,4.52617191 15.7969319,2.80875545 C14.1496963,1.09634383 11.9382408,0.101607748 9.56996859,0.0077433414 L9.5693089,0.0077433414 C9.36348691,-0.000188861985 9.17189529,-0.00207748184 8.98350785,0.0025496368 C6.62579058,0.0595859564 4.40180105,1.01579419 2.72120419,2.6949661 C0.998198953,4.4164431 0.0492879581,6.71706538 0.0492879581,9.1729322 L0.0492879581,11.0503148 C0.0492879581,12.5020024 1.22795812,13.6830508 2.67681675,13.6830508 C2.97763351,13.6830508 3.2667644,13.6321525 3.53610471,13.538477 C4.2567644,14.4803317 5.18371728,15.214155 6.23346597,15.6932978 C3.90713089,16.919201 2.46826178,19.2922518 2.46826178,21.9200775 L2.46826178,28.1037966 C2.46826178,28.3597046 2.59756021,28.5982373 2.81186387,28.737523 L9.65139267,33.1843729 C9.7781466,33.2668111 9.92035602,33.3061889 10.0610576,33.3061889 C10.3078743,33.3061889 10.5498848,33.1847506 10.6941675,32.9618935 C10.9208168,32.6118378 10.8213927,32.1440266 10.4721361,31.9170145 L3.97611518,27.6934939 L3.97611518,21.9200775 C3.97611518,20.1721598 4.78837696,18.5673051 6.14912042,17.5316804 C6.61580105,18.8886538 7.81416754,19.9082252 9.13919372,19.9082252 L9.25171728,19.9082252 C10.6907749,19.9082252 11.8393822,18.603 12.2438639,17.1447966 C12.2888168,17.1710484 12.3333927,17.1979613 12.3775916,17.2254407 C12.7313717,17.4458426 13.1962618,17.3369637 13.4160314,16.9826586 L13.4160314,16.9826586 Z M4.54146597,6.42725666 C4.05405236,7.2567385 3.79639791,8.2061477 3.79639791,9.1729322 L3.79639791,11.0503148 C3.79639791,11.4082082 3.62827225,11.7274794 3.36694241,11.9330557 C3.34451309,11.9476925 3.32312042,11.963368 3.3027644,11.9799879 C3.12398953,12.1013317 2.90846073,12.172155 2.67672251,12.172155 C2.05935079,12.172155 1.55714136,11.6689322 1.55714136,11.0503148 L1.55714136,9.17283777 C1.55714136,4.97887409 4.83521466,1.61429782 9.01960209,1.51287893 C9.17604188,1.50900726 9.33672251,1.51070702 9.51087958,1.51741162 C13.6266597,1.68087167 16.850733,5.04346489 16.850733,9.17283777 L16.850733,11.0502203 C16.850733,11.6688378 16.3484293,12.1720605 15.7310576,12.1720605 C15.4993194,12.1720605 15.2836963,12.1011429 15.1048272,11.979799 C15.0845654,11.9632736 15.063267,11.9476925 15.0409319,11.9330557 C14.7796021,11.7274794 14.6113822,11.4081138 14.6113822,11.0502203 L14.6113822,9.17283777 C14.6113822,6.5062954 12.6289319,4.20199031 9.99998953,3.81284019 C9.79331937,3.78205569 9.58325654,3.83890315 9.41993717,3.96940678 C9.2566178,4.09991041 9.15455497,4.29236077 9.13815707,4.50105327 C9.09678534,5.02911138 9.00122513,5.54980387 8.85336126,6.05510412 L5.19106806,6.05510412 C4.92408377,6.05510412 4.67689005,6.19665617 4.54146597,6.42725666 L4.54146597,6.42725666 Z M9.25171728,18.3973293 L9.13919372,18.3973293 C8.28687958,18.3973293 7.45030366,17.3605714 7.45030366,16.3041719 C7.45030366,16.2390145 7.44191623,16.1748959 7.42589529,16.1134213 C7.99850262,16.2593172 8.5947644,16.3353341 9.20403141,16.3353341 C9.78078534,16.3353341 10.3460419,16.267155 10.8904712,16.1361792 C10.8392042,17.2346949 10.0095079,18.3973293 9.25171728,18.3973293 L9.25171728,18.3973293 Z M9.20403141,14.8244383 C7.44681675,14.8244383 5.82502618,14.0228136 4.75953927,12.6534697 C5.10087958,12.2091719 5.30415707,11.6529734 5.30415707,11.0502203 L5.30415707,9.17283777 C5.30415707,8.61635593 5.42233508,8.06818402 5.64832461,7.566 L9.39750785,7.566 C9.71312042,7.566 9.99527749,7.36911138 10.1046911,7.0724092 C10.2931728,6.56153753 10.4353822,6.03451816 10.53,5.4977724 C12.0394555,6.04830508 13.103623,7.51321308 13.103623,9.17283777 L13.103623,11.0502203 C13.103623,11.6529734 13.3069005,12.2091719 13.6483351,12.6534697 C12.5829424,14.022908 10.9612461,14.8244383 9.20403141,14.8244383 L9.20403141,14.8244383 Z" id="XMLID_173_"></path>
                    </g>
                </g>
            </g>
        </g>
    </g>
</svg>