<?xml version="1.0" encoding="UTF-8" standalone="no"?>
<svg width="35px" height="37px" viewBox="0 0 35 37" version="1.1" xmlns="http://www.w3.org/2000/svg" xmlns:xlink="http://www.w3.org/1999/xlink">
    <!-- Generator: Sketch 39.1 (31720) - http://www.bohemiancoding.com/sketch -->
    <title>game</title>
    <desc>Created with Sketch.</desc>
    <defs></defs>
    <g id="category" stroke="none" stroke-width="1" fill="none" fill-rule="evenodd">
        <g id="category-empty-state" transform="translate(-155.000000, -636.000000)" fill="#303030">
            <g id="Categories" transform="translate(135.000000, 323.000000)">
                <g id="game" transform="translate(20.000000, 313.000000)">
                    <g id="Layer_1">
                        <g id="Group">
                            <path d="M30.7349884,6.83593426 C27.4302413,2.49160359 22.5348918,0 17.3041451,0 C12.682077,0 8.33659939,1.92429482 5.06825313,5.41850996 C1.79990686,8.9127251 0,13.55851 0,18.5 C0,21.0768805 0.487480519,23.572759 1.44879128,25.9181315 C2.88951648,29.4329841 5.38613923,32.4504741 8.47861748,34.4147908 C8.47868642,34.4148645 8.4788243,34.4148645 8.47889324,34.4149382 C11.1415944,36.1061036 14.1933286,37 17.3041451,37 C18.0583577,37 18.8205674,36.9468586 19.5695404,36.8421235 C23.4811045,36.2950837 27.1369671,34.3003267 29.8635764,31.2253466 C32.8370628,27.8720558 34.5205976,23.4818805 34.603947,18.8635876 L34.603947,18.8634402 C34.6062221,18.74249 34.6082903,18.6215398 34.6082903,18.5 C34.6082903,14.2618048 33.2327142,10.1194263 30.7349884,6.83593426 L30.7349884,6.83593426 Z M29.361963,7.37892032 L26.819081,12.0876494 L20.5294723,12.0876494 L17.7764587,6.98968327 L20.3960719,1.7959004 C23.8612442,2.52410757 27.0119774,4.46690239 29.361963,7.37892032 L29.361963,7.37892032 Z M16.4957451,19.5861195 L19.4272466,25.604 L16.6165984,30.8087649 L10.4359162,30.8087649 L7.68386773,25.7126414 L10.9584187,19.5861195 L16.4957451,19.5861195 L16.4957451,19.5861195 Z M8.18644629,12.9255299 L10.9873049,7.73904382 L16.589022,7.73904382 L19.3898806,12.9255299 L16.589022,18.1120159 L10.9873049,18.1120159 L8.18644629,12.9255299 L8.18644629,12.9255299 Z M17.7348874,18.9383984 L20.6383988,13.561753 L26.7102234,13.561753 L29.5435531,18.8083825 L26.3226382,24.8852271 L20.6317805,24.8852271 L17.7348874,18.9383984 L17.7348874,18.9383984 Z M17.3041451,1.47410359 C17.8562232,1.47410359 18.4040269,1.50528088 18.9462465,1.56468725 L16.5755786,6.26494024 L10.9738614,6.26494024 L9.47012431,3.68120518 C11.7846744,2.27719522 14.4581993,1.47410359 17.3041451,1.47410359 L17.3041451,1.47410359 Z M8.30150852,4.46358566 L9.78635584,7.01481673 L7.00700679,12.1613546 L2.52419909,12.1613546 C3.70419011,9.02792629 5.73153273,6.35346016 8.30150852,4.46358566 L8.30150852,4.46358566 Z M1.37881635,18.5 C1.37881635,16.8101614 1.61142266,15.1775179 2.04223383,13.6354582 L6.97777588,13.6354582 L9.77870341,18.8221653 L6.53807135,24.8852271 L2.53764254,24.8852271 C1.76846985,22.8566394 1.37881635,20.711008 1.37881635,18.5 L1.37881635,18.5 Z M8.5906463,32.7517072 C6.31684027,31.1562849 4.43358396,28.9308307 3.17548299,26.3593307 L6.44100268,26.3593307 L9.24186126,31.5458167 L8.5906463,32.7517072 L8.5906463,32.7517072 Z M9.77560107,33.5055637 L10.4359162,32.2828685 L16.6165984,32.2828685 L18.3482538,35.4894124 C15.3555329,35.6977032 12.3845974,35.0037689 9.77560107,33.5055637 L9.77560107,33.5055637 Z M19.8434423,35.3099402 L17.8107223,31.5458167 L20.6115809,26.3593307 L26.213298,26.3593307 L28.504684,30.6024641 C26.1464944,33.095247 23.103102,34.7497809 19.8434423,35.3099402 L19.8434423,35.3099402 Z M29.4844019,29.4683625 L27.4625746,25.724508 L30.7161675,19.5861195 L33.1965202,19.5861195 C32.9810802,23.2284084 31.6827178,26.681496 29.4844019,29.4683625 L29.4844019,29.4683625 Z M30.7596002,18.1119422 L30.7596002,18.1119422 L27.9587416,12.9255299 L30.2792895,8.62851793 C32.1182169,11.3919462 33.1521223,14.7094163 33.2253375,18.1119422 L30.7596002,18.1119422 L30.7596002,18.1119422 Z" id="Shape"></path>
                            <path d="M20.8520464,4.36916932 C20.9398081,4.39378685 21.027225,4.41928884 21.1141594,4.445749 C21.9255928,4.69244024 22.7191016,5.02477689 23.4726937,5.43354582 C24.8270361,6.16816534 26.0461855,7.1395259 27.096361,8.32050398 C27.2318986,8.47292629 27.4138334,8.54972709 27.5961129,8.54972709 C27.7667415,8.54972709 27.9376457,8.48243426 28.0710462,8.34689044 C28.3469474,8.06644223 28.3580469,7.59988845 28.0956581,7.30484661 C26.9369008,6.00173904 25.5913829,4.92977092 24.0965392,4.11894024 C23.2641477,3.66742231 22.3875653,3.30037052 21.4911278,3.02780876 C21.3950243,2.99862151 21.2985761,2.97046614 21.2017143,2.94334263 C20.8335013,2.84000797 20.4566708,3.07556972 20.3600848,3.46930279 C20.2634987,3.86303586 20.4837646,4.26598207 20.8520464,4.36916932 L20.8520464,4.36916932 Z" id="Shape"></path>
                            <path d="M11.9271061,5.13238645 C12.0186595,5.13238645 12.1117296,5.11278088 12.2010769,5.07135857 C13.511504,4.46373307 14.9002478,4.08938446 16.3288394,3.95863147 C16.7081518,3.92391633 16.9894303,3.56703586 16.9568902,3.16143625 C16.9243502,2.75583665 16.5908834,2.45497211 16.2112264,2.48998207 C14.6338605,2.63429681 13.1000652,3.04785657 11.6525148,3.71901594 C11.3031228,3.88094622 11.1427664,4.31499602 11.2942983,4.68846016 C11.4070855,4.96640239 11.6607188,5.13238645 11.9271061,5.13238645 L11.9271061,5.13238645 Z" id="Shape"></path>
                        </g>
                    </g>
                </g>
            </g>
        </g>
    </g>
</svg>