<?xml version="1.0" encoding="UTF-8" standalone="no"?>
<svg width="27px" height="39px" viewBox="0 0 27 39" version="1.1" xmlns="http://www.w3.org/2000/svg" xmlns:xlink="http://www.w3.org/1999/xlink">
    <!-- Generator: Sketch 39.1 (31720) - http://www.bohemiancoding.com/sketch -->
    <title>global-active</title>
    <desc>Created with Sketch.</desc>
    <defs></defs>
    <g id="category" stroke="none" stroke-width="1" fill="none" fill-rule="evenodd">
        <g id="category-empty-state" transform="translate(-160.000000, -786.000000)" fill="#FFFFFF">
            <g id="Categories" transform="translate(135.000000, 323.000000)">
                <g id="global-active" transform="translate(25.000000, 463.000000)">
                    <g id="Layer_1">
                        <path d="M26.4794096,15.9208555 C26.4794096,7.14200917 19.798982,0 11.587691,0 C11.128273,0 10.7557855,0.398139908 10.7557855,0.889396789 C10.7557855,1.38056422 11.128273,1.77879358 11.587691,1.77879358 C12.5292845,1.77879358 13.4479531,1.88532798 14.3343261,2.08623165 L13.8957413,3.83631193 C11.130281,3.22993349 8.28885071,3.71850688 5.8232546,5.24040138 C3.15443024,6.88770413 1.24547368,9.54730734 0.447537196,12.7293853 C0.447537196,12.7295642 0.447453529,12.7296537 0.447369861,12.7298326 L0.447202526,12.7306376 C0.447202526,12.7307271 0.447202526,12.7308165 0.447118859,12.7308165 L0.440090793,12.7604243 C0.440007125,12.7606032 0.440007125,12.7607821 0.440007125,12.7610505 C-0.227240797,15.4498142 -0.0212515326,18.3149725 1.01747987,20.8575757 C1.02944432,20.9325344 1.04935717,21.0064197 1.07939379,21.0770849 C2.41773833,24.216406 4.88877284,26.5839564 7.92339129,27.666117 L7.49618528,29.3706674 C5.74469086,28.7619633 4.11786094,27.763617 2.72488155,26.4187431 C2.38393668,26.0896583 1.85800309,26.1181927 1.54993953,26.482789 C1.24204331,26.8473853 1.2688169,27.4097546 1.60984543,27.7389289 C3.74570812,29.8009197 6.36935205,31.1407844 9.17162599,31.6317729 C9.12544156,31.9360803 9.04629215,32.2327844 8.93325742,32.5185757 C8.36038639,33.9666743 7.03994667,34.902406 5.56940755,34.902406 C5.10998958,34.902406 4.73750208,35.3006353 4.73750208,35.7918028 L4.73750208,38.0341239 C4.73750208,38.5252913 5.10998958,38.9235206 5.56940755,38.9235206 L17.6319113,38.9235206 C18.0913293,38.9235206 18.4638168,38.5253807 18.4638168,38.0341239 L18.4638168,35.7918028 C18.4638168,35.3006353 18.0913293,34.902406 17.6319113,34.902406 C16.1213792,34.902406 14.7876363,33.931789 14.2340925,32.4296628 C14.1383769,32.1699014 14.0706063,31.9012844 14.0291909,31.6267638 C21.0829427,30.3775115 26.4794096,23.8108417 26.4794096,15.9208555 L26.4794096,15.9208555 Z M13.7115892,5.65884633 C13.8537402,5.69247936 13.9966442,5.72915367 14.1375402,5.76949541 C14.2781015,5.80974771 14.4190812,5.85438303 14.5582202,5.90134404 C15.644893,6.52337615 16.389115,8.33508716 16.5796258,10.7535344 C15.4289473,10.6571972 14.2468936,10.4384037 13.052959,10.0964381 C11.8590245,9.75438303 10.733028,9.3119656 9.69145186,8.78036697 C10.987628,6.78787844 12.4795023,5.61761009 13.7115892,5.65884633 L13.7115892,5.65884633 Z M19.8863308,10.6529931 C19.8156318,10.6646216 19.7449328,10.67625 19.6742338,10.6879679 C19.5362662,10.7106881 19.3960395,10.7251789 19.2569842,10.7399381 C19.1020321,10.7563073 18.946829,10.7694564 18.7914585,10.7800115 C18.6116572,10.7922661 18.4316885,10.8005849 18.2515525,10.8049679 C18.1939892,9.74758486 18.0113432,8.69807339 17.70922,7.68935092 C17.7142401,7.69355505 17.7193438,7.69784862 17.7243638,7.70223165 C18.6715631,8.50933486 19.4791213,9.50311927 20.0942444,10.6187339 C20.0942444,10.6238326 19.9042356,10.6500413 19.8863308,10.6529931 L19.8863308,10.6529931 Z M20.8321077,12.2783807 C20.8437374,12.3115665 20.8561202,12.3445734 20.8673316,12.3778486 C21.0127457,12.8088165 21.1318045,13.2486399 21.2239223,13.6960665 C21.2522856,13.8345344 21.2778042,13.9738073 21.3010637,14.1134381 C21.3816355,14.5969128 21.4315849,15.0969358 21.4480674,15.5912339 C21.4724147,16.3239151 21.4258956,17.0651835 21.3079244,17.787578 L17.7668669,16.7732202 C17.7724726,16.7471904 17.777158,16.7210711 17.7826801,16.6950413 C17.8926191,16.171672 17.9860756,15.6444564 18.0620457,15.1141995 C18.1070588,14.7999633 18.1460478,14.4847431 18.1783434,14.1687179 C18.198842,13.9674564 18.2167468,13.7658372 18.2318906,13.564039 C18.2548155,13.2579427 18.2713816,12.9514885 18.2810871,12.6445872 C18.2817564,12.6249083 18.2830114,12.6048716 18.2835134,12.5851927 C18.2907088,12.5696284 18.4310191,12.5783945 18.4586294,12.5783945 L18.4611394,12.5783945 C19.2555619,12.5528119 20.0547534,12.4579954 20.8321077,12.2783807 L20.8321077,12.2783807 Z M20.8807184,19.5065298 C20.2758028,21.2971307 19.2255253,22.8862018 17.8489447,24.0916239 C17.4493489,23.7060963 17.0233979,23.3517867 16.5816338,23.0234174 C16.5638126,23.0101789 16.5459078,22.9969404 16.528003,22.9837018 C16.4425785,22.9208188 16.3564847,22.8588303 16.2698889,22.7978257 C16.1163591,22.6895917 15.961156,22.5841307 15.8041122,22.4818005 C15.7980045,22.4777752 15.7921477,22.47375 15.7859563,22.4697248 C16.0496761,21.9503807 16.2904711,21.4177982 16.5109348,20.8759128 C16.6510778,20.5313532 16.7831887,20.1831261 16.9070165,19.8315 C17.0532672,19.4160069 17.1898125,18.9903165 17.314226,18.5643578 C17.3214214,18.5398486 17.3291188,18.5156972 17.3362305,18.4910986 L20.8807184,19.5065298 L20.8807184,19.5065298 Z M16.4259287,25.1289702 C16.4162232,25.1347844 16.4066015,25.1409564 16.3968961,25.1467706 C16.3709592,25.1620665 16.3450222,25.1773624 16.3190853,25.1925688 C15.9573909,25.4036697 15.5833138,25.5902615 15.1999495,25.7517179 C15.0308576,25.8229197 14.859925,25.8890229 14.6874027,25.9500275 C14.4204199,26.0443968 14.1497557,26.1267798 13.8762468,26.1965505 C13.6292605,26.2595229 13.3799314,26.3117615 13.1290964,26.3540711 C13.0778083,26.3627477 13.0264365,26.3707087 12.9750647,26.3784908 C13.6500936,25.7534174 14.3057955,24.9522179 14.9203329,23.9899197 C14.932632,23.9799014 15.0928552,24.1038784 15.1149434,24.1188165 C15.4638367,24.3542477 15.8036102,24.6060482 16.1301642,24.875828 C16.1618742,24.9020367 16.1934168,24.9283349 16.2249595,24.9548119 C16.2564184,24.981289 16.2877937,25.007945 16.318918,25.0348693 C16.3500423,25.0617936 16.3810829,25.0888968 16.4117889,25.1162683 C16.4168089,25.1199358 16.421327,25.1248555 16.4259287,25.1289702 L16.4259287,25.1289702 Z M16.6180291,12.5986995 C16.60322,13.0583807 16.5714264,13.5171674 16.5247399,13.974344 C16.4587263,14.6218693 16.3540583,15.2619702 16.2406053,15.9017133 C16.2186844,16.0159404 16.1958432,16.1302569 16.1721653,16.2445734 C16.1674799,16.2671147 16.1627109,16.289656 16.1580255,16.3121972 L7.45686158,13.8195963 C7.4627183,13.7995596 7.46849136,13.7795229 7.47434808,13.7595757 C7.50865173,13.6431124 7.54387573,13.5270069 7.5799364,13.4111697 C7.90724347,12.3604954 8.30901457,11.334867 8.79562447,10.3569151 C8.80382388,10.3405459 8.81202329,10.3242661 8.8202227,10.3079862 C9.99658706,10.9221468 11.2717627,11.4276261 12.6224063,11.8144954 C13.9728827,12.2013647 15.3137372,12.445383 16.6196188,12.5422569 C16.6190331,12.5610413 16.6186148,12.5798257 16.6180291,12.5986995 L16.6180291,12.5986995 Z M6.73648483,6.76891514 C6.87026908,6.6885 7.00597769,6.61130505 7.14319231,6.53759862 C7.51082709,6.34009404 7.89025898,6.16665138 8.27922896,6.02004358 C8.64226203,5.88318578 9.01617187,5.76627523 9.39301007,5.67458945 C9.6309603,5.6167156 9.87116955,5.5677867 10.1124665,5.52887615 C10.1245146,5.52690826 10.1366464,5.52529817 10.1486945,5.52341972 C9.47692852,6.15708028 8.82641409,6.96489908 8.21739871,7.93059633 C8.18409907,7.90877064 8.15121776,7.88676606 8.11816911,7.86476147 C7.85235762,7.68774083 7.59114784,7.50195413 7.33763546,7.30507569 C7.24635427,7.2341422 7.15549142,7.16222477 7.06596725,7.0887867 C6.94883282,6.99262844 6.8332044,6.89405505 6.71975134,6.79297706 C6.71657197,6.79011468 6.71347628,6.78725229 6.71155193,6.78358486 C6.719835,6.77857569 6.72820175,6.77383486 6.73648483,6.76891514 L6.73648483,6.76891514 Z M1.87348157,14.0615573 C3.05503331,14.4000344 4.23658505,14.7385115 5.4181368,15.0769885 C5.1155953,16.4795573 4.94106499,17.9136124 4.89780892,19.3521399 C4.80226069,19.3552706 4.70679613,19.3589381 4.6112479,19.3632317 C4.28059413,19.3781697 3.95069337,19.4009794 3.62121095,19.438906 C3.51679397,19.4508922 3.41254433,19.4642202 3.30837835,19.4790688 C2.98851769,19.5245986 2.6702467,19.5822936 2.35423474,19.6519748 C1.72932255,17.8796216 1.56131831,15.9260436 1.87348157,14.0615573 L1.87348157,14.0615573 Z M5.48247707,24.2193578 C5.02473244,23.8336514 4.59367774,23.3992844 4.20512609,22.9303899 C3.79473725,22.4351078 3.4275208,21.897695 3.11092317,21.3292431 C3.1077438,21.3235183 3.10464811,21.3176147 3.10146875,21.3118899 C3.10314209,21.3116216 3.10473178,21.3112638 3.10640512,21.310906 C3.24228107,21.2862179 3.38091803,21.2642133 3.52173035,21.2443555 C3.68044751,21.2219931 3.83975033,21.2029404 3.99913683,21.1872867 C4.14388152,21.1730642 4.29080156,21.1614358 4.43947862,21.152133 C4.59878145,21.1421147 4.75816794,21.1351376 4.91763811,21.1309335 C4.92441517,21.1307546 4.93119223,21.1304862 4.9379693,21.1303073 C5.02013073,22.2921674 5.21323521,23.3364908 5.50548562,24.2385894 C5.49795555,24.2321491 5.49017447,24.2258876 5.48247707,24.2193578 L5.48247707,24.2193578 Z M5.8479365,13.3586628 L2.3072973,12.3443945 C2.30821764,12.3416216 2.30897065,12.3388486 2.30997466,12.3361651 C2.31432537,12.3233739 2.31875974,12.3105826 2.32319412,12.2977913 C2.40895325,12.0506422 2.50475248,11.8068922 2.60766345,11.5673463 C2.73132394,11.2794083 2.86636321,10.9971055 3.01370159,10.7221376 C3.23650801,10.3062867 3.48508401,9.91029358 3.75733789,9.52968578 C4.08062893,9.07787615 4.44508434,8.64923394 4.83480733,8.25887615 C4.98381906,8.10958486 5.13801817,7.9666445 5.29548032,7.82772936 C5.5284105,8.0533211 5.77079511,8.2688945 6.01953844,8.47444954 C6.25564798,8.66953899 6.49836726,8.85595183 6.74568825,9.03449312 C6.9470758,9.17984862 7.15164272,9.3204633 7.35922167,9.45562156 C7.35654431,9.45392202 6.89160428,10.4547729 6.84776254,10.5564771 C6.67674627,10.9535436 6.51710877,11.3562454 6.36851538,11.7635092 C6.17708425,12.2883096 6.00330695,12.820445 5.8479365,13.3586628 L5.8479365,13.3586628 Z M6.57341696,19.0981927 C6.59282781,18.6477248 6.62637846,18.1980619 6.67398524,17.7500092 C6.75305098,17.0063257 6.87077109,16.2672936 7.02672721,15.5375642 C9.9268084,16.3683716 12.8268059,17.1991789 15.7268871,18.0299862 C15.3710494,19.2707408 14.9005874,20.4739266 14.324788,21.6163761 C14.3266287,21.6127982 13.3354204,21.1416674 13.2442228,21.1013257 C12.8760861,20.9385275 12.5037659,20.7865528 12.1277644,20.6455803 C11.375845,20.3635459 10.6096185,20.1253417 9.8335192,19.9323096 C9.05741992,19.7392775 8.27153155,19.5915069 7.48037213,19.4900711 C7.28258228,19.4647569 7.08445776,19.442305 6.88608223,19.422805 C6.77882056,19.41225 6.66779385,19.4026789 6.5589425,19.3931972 L6.57341696,19.0981927 L6.57341696,19.0981927 Z M9.03667039,26.1208761 C7.7544667,25.7536858 6.84182215,23.8573555 6.61341001,21.1856766 C7.75480137,21.2833555 8.92656403,21.5012546 10.1096218,21.8400894 C11.2925959,22.1790138 12.4093053,22.6166904 13.443435,23.1422064 C11.9971595,25.3323784 10.3212168,26.4868142 9.03918042,26.1215917 C9.03834374,26.1213234 9.03750707,26.1211445 9.03667039,26.1208761 L9.03667039,26.1208761 Z M16.8000058,36.6125917 L16.8000058,37.1445482 L6.40131302,37.1445482 L6.40131302,36.6116078 C8.19690019,36.3094472 9.741485,35.0415894 10.4655431,33.2113624 C10.6426671,32.763578 10.7633992,32.2980826 10.8279905,31.8205115 C11.0804152,31.8341972 11.3336766,31.8418005 11.587691,31.8418005 C11.8510761,31.8418005 12.1128716,31.8341972 12.3729937,31.8197064 C12.4313936,32.2513005 12.5357269,32.6734128 12.6860773,33.0814817 C13.3884655,34.9874725 14.9537162,36.3056009 16.8000058,36.6125917 L16.8000058,36.6125917 Z M11.587691,30.0630069 C10.7490084,30.0630069 9.91927833,29.9779404 9.10778773,29.8128165 L9.5355794,28.1061193 C10.2191425,28.2384151 10.9069726,28.3055917 11.5918743,28.3055917 C13.9666913,28.3055023 16.3036069,27.5187936 18.2869438,26.0063807 C18.3458457,25.9614771 18.4140346,25.9171995 18.4654065,25.8665711 C20.553495,24.2205206 22.0491344,21.8333807 22.7301038,19.1458693 C22.7302711,19.1452431 22.7304384,19.1447064 22.7306058,19.1440803 L22.7378849,19.1164404 C24.3006255,12.8808234 21.0831937,6.45924083 15.497973,4.31611927 L15.9368924,2.56505505 C21.1006802,4.49251376 24.8156823,9.75125229 24.8156823,15.920945 C24.8156823,23.7188876 18.881652,30.0630069 11.587691,30.0630069 L11.587691,30.0630069 Z" id="Shape"></path>
                    </g>
                </g>
            </g>
        </g>
    </g>
</svg>