<?xml version="1.0" encoding="UTF-8" standalone="no"?>
<svg width="23px" height="22px" viewBox="0 0 23 22" version="1.1" xmlns="http://www.w3.org/2000/svg" xmlns:xlink="http://www.w3.org/1999/xlink">
    <!-- Generator: Sketch 39.1 (31720) - http://www.bohemiancoding.com/sketch -->
    <title>Capa_1</title>
    <desc>Created with Sketch.</desc>
    <defs></defs>
    <g id="Pages" stroke="none" stroke-width="1" fill="none" fill-rule="evenodd" opacity="0.497201493">
        <g id="Roadmap" transform="translate(-175.000000, -315.000000)" fill="#000000">
            <g id="process" transform="translate(136.000000, 315.000000)">
                <g id="wedding-planning" transform="translate(39.000000, 0.000000)">
                    <g id="Capa_1">
                        <g id="Group">
                            <path d="M22.4518114,0.0148189911 L5.48418571,0.0148189911 C5.21193143,0.0148189911 4.99132857,0.233970326 4.99132857,0.504433234 L4.99132857,10.2381602 L0.492857143,10.2381602 C0.220602857,10.2381602 0,10.4573116 0,10.7277745 L0,19.0266053 C0,20.6636142 1.34057143,21.9955608 2.98848857,21.9955608 L19.9561143,21.9955608 C21.6039657,21.9955608 22.9447343,20.6636795 22.9447343,19.0266053 L22.9447343,0.504433234 C22.9446686,0.233970326 22.7240657,0.0148189911 22.4518114,0.0148189911 L22.4518114,0.0148189911 Z M0.985714286,19.0266053 L0.985714286,11.2173887 L4.99132857,11.2173887 L4.99132857,19.0266053 C4.99132857,20.1236677 4.09288286,21.0163323 2.98842286,21.0163323 C1.88416,21.0163323 0.985714286,20.1236677 0.985714286,19.0266053 L0.985714286,19.0266053 Z M21.9589543,19.0266053 C21.9589543,20.1236677 21.0605086,21.0163323 19.9560486,21.0163323 L5.20476857,21.0163323 C5.68441714,20.4895074 5.97704286,19.7912522 5.97704286,19.0266053 L5.97704286,0.994047478 L21.9589543,0.994047478 L21.9589543,19.0266053 L21.9589543,19.0266053 Z" id="Shape"></path>
                            <path d="M13.2757971,5.67005935 L19.5927143,5.67005935 C19.8649686,5.67005935 20.0855714,5.45090801 20.0855714,5.1804451 C20.0855714,4.9099822 19.8649686,4.69083086 19.5927143,4.69083086 L13.2757971,4.69083086 C13.0035429,4.69083086 12.78294,4.9099822 12.78294,5.1804451 C12.78294,5.45090801 13.0036086,5.67005935 13.2757971,5.67005935 L13.2757971,5.67005935 Z" id="Shape"></path>
                            <path d="M13.2757971,11.0488309 L19.5927143,11.0488309 C19.8649686,11.0488309 20.0855714,10.8296795 20.0855714,10.5592166 C20.0855714,10.2887537 19.8649686,10.0696024 19.5927143,10.0696024 L13.2757971,10.0696024 C13.0035429,10.0696024 12.78294,10.2887537 12.78294,10.5592166 C12.78294,10.8296795 13.0036086,11.0488309 13.2757971,11.0488309 L13.2757971,11.0488309 Z" id="Shape"></path>
                            <path d="M13.2757971,16.4277329 L19.5927143,16.4277329 C19.8649686,16.4277329 20.0855714,16.2085816 20.0855714,15.9381187 C20.0855714,15.6676558 19.8649686,15.4485045 19.5927143,15.4485045 L13.2757971,15.4485045 C13.0035429,15.4485045 12.78294,15.6676558 12.78294,15.9381187 C12.78294,16.2085163 13.0036086,16.4277329 13.2757971,16.4277329 L13.2757971,16.4277329 Z" id="Shape"></path>
                            <path d="M8.72777714,6.22103858 C8.82096,6.31896142 8.95061429,6.37445104 9.08611714,6.37445104 L9.09025714,6.37445104 C9.22733714,6.37327596 9.35771429,6.31556677 9.45017429,6.21496736 L12.1574057,3.26938279 C12.3409457,3.06968546 12.3266857,2.75998813 12.1257314,2.57765579 C11.9247114,2.39545401 11.6129629,2.40948961 11.4294229,2.60912166 L9.08000571,5.1652997 L8.34867143,4.39595252 C8.16164857,4.19932344 7.84963714,4.19057567 7.65183714,4.37617211 C7.45390571,4.56183383 7.4451,4.87166172 7.63192571,5.0682908 L8.72777714,6.22103858 L8.72777714,6.22103858 Z" id="Shape"></path>
                            <path d="M11.4294229,8.22166766 L9.08000571,10.7777151 L8.34854,10.0084985 C8.16164857,9.81173887 7.84963714,9.8029911 7.65183714,9.9887181 C7.45390571,10.1743798 7.4451,10.4842077 7.63192571,10.6808368 L8.72777714,11.833454 C8.82096,11.9313769 8.95061429,11.9868665 9.08611714,11.9868665 L9.09025714,11.9868665 C9.22733714,11.9856914 9.35771429,11.9279822 9.45017429,11.8273828 L12.1574057,8.88192878 C12.3408143,8.68223145 12.3266857,8.37253412 12.1257314,8.19020178 C11.9247771,8.00786944 11.6129629,8.02190504 11.4294229,8.22166766 L11.4294229,8.22166766 Z" id="Shape"></path>
                            <path d="M11.4294229,13.8341484 L9.08000571,16.3901958 L8.34854,15.6209792 C8.16164857,15.4242196 7.84963714,15.4154065 7.65183714,15.6011988 C7.45390571,15.7868605 7.4451,16.0966884 7.63192571,16.2933175 L8.72777714,17.4459347 C8.82096,17.5438576 8.95061429,17.5993472 9.08611714,17.5993472 L9.09025714,17.5993472 C9.22733714,17.5981721 9.35771429,17.5404629 9.45017429,17.4398635 L12.1574057,14.4944095 C12.3408143,14.2947122 12.3266857,13.9850148 12.1257314,13.8026825 C11.9247114,13.6203501 11.6129629,13.634451 11.4294229,13.8341484 L11.4294229,13.8341484 Z" id="Shape"></path>
                        </g>
                    </g>
                </g>
            </g>
        </g>
    </g>
</svg>