<?xml version="1.0" encoding="UTF-8" standalone="no"?>
<svg width="15px" height="23px" viewBox="0 0 15 23" version="1.1" xmlns="http://www.w3.org/2000/svg" xmlns:xlink="http://www.w3.org/1999/xlink">
    <!-- Generator: Sketch 39.1 (31720) - http://www.bohemiancoding.com/sketch -->
    <title>Capa_1</title>
    <desc>Created with Sketch.</desc>
    <defs></defs>
    <g id="Pages" stroke="none" stroke-width="1" fill="none" fill-rule="evenodd">
        <g id="profile" transform="translate(-649.000000, -393.000000)" fill="#196CA7">
            <g id="closed-lock" transform="translate(649.000000, 393.000000)">
                <g id="Capa_1">
                    <g id="Group">
                        <path d="M12.6236429,9.56764063 L12.6236429,4.63759062 C12.6236429,2.08042187 10.6952143,0 8.32492857,0 L6.67507143,0 C4.30471429,0 2.37628571,2.08042187 2.37628571,4.63759062 L2.37628571,9.56756875 C0.925714286,10.9862375 0.0183571429,12.9982344 0.0183571429,15.2265031 C0.0184285714,19.5128406 3.37464286,23 7.5,23 C11.6253571,23 14.9815714,19.5128406 14.9815714,15.226575 C14.9815714,12.9983063 14.0742857,10.9863094 12.6236429,9.56764063 L12.6236429,9.56764063 Z M3.80492857,8.4671625 L3.80492857,4.6376625 C3.80492857,2.87305938 5.09242857,1.43757188 6.67514286,1.43757188 L8.325,1.43757188 C9.90764286,1.43757188 11.1952143,2.87313125 11.1952143,4.6376625 L11.1952143,8.4671625 C11.0002143,8.35209063 10.8003571,8.24700938 10.5966429,8.15076875 C10.5893571,8.14731875 10.5821429,8.14365313 10.5748571,8.14020313 C10.5463571,8.12683438 10.5176429,8.1141125 10.489,8.10110313 C10.4464286,8.08176875 10.4036429,8.06272188 10.3607143,8.04417813 C10.3405714,8.03555313 10.3205,8.02692813 10.3002857,8.01844688 C10.2366429,7.9916375 10.1726429,7.96569063 10.1082143,7.94067813 C10.1067857,7.94010313 10.1053571,7.93952813 10.104,7.939025 C9.44464286,7.68386875 8.74164286,7.52294063 8.01014286,7.47155 C7.99321429,7.47032813 7.97628571,7.46925 7.95935714,7.46817188 C7.90078571,7.46443438 7.842,7.4614875 7.78307143,7.4591875 C7.76371429,7.45839688 7.74435714,7.4574625 7.72492857,7.4568875 C7.65021429,7.4545875 7.57535714,7.45307813 7.50014286,7.45307813 C7.42492857,7.45307813 7.35007143,7.4545875 7.27535714,7.4568875 C7.25592857,7.4574625 7.23657143,7.45839688 7.21721429,7.4591875 C7.15828571,7.4614875 7.0995,7.46443438 7.04092857,7.46817188 C7.024,7.46925 7.00707143,7.47032813 6.99014286,7.47155 C6.25864286,7.52294063 5.55564286,7.68386875 4.89628571,7.939025 C4.89485714,7.9396 4.89342857,7.940175 4.89207143,7.94067813 C4.82757143,7.96569063 4.76357143,7.9916375 4.7,8.01844688 C4.67978571,8.02692813 4.65971429,8.03548125 4.63957143,8.04417813 C4.59657143,8.06272188 4.55385714,8.08176875 4.51128571,8.10110313 C4.48264286,8.11404063 4.45392857,8.12683438 4.42542857,8.14020313 C4.41814286,8.14365313 4.41092857,8.14731875 4.40364286,8.15076875 C4.19978571,8.2469375 3.99985714,8.35209063 3.80492857,8.4671625 L3.80492857,8.4671625 Z M7.5,21.5625 C4.16235714,21.5625 1.447,18.7202031 1.447,15.226575 C1.447,12.8580781 2.69528571,10.7893 4.53914286,9.70219063 C4.56785714,9.68537188 4.59642857,9.66826563 4.62535714,9.65195 C4.65692857,9.63405313 4.68878571,9.6165875 4.72071429,9.59919375 C4.77671429,9.5688625 4.833,9.53910625 4.88985714,9.51064375 C4.90785714,9.5015875 4.92607143,9.49289063 4.94421429,9.48405 C5.575,9.17649688 6.25435714,8.983225 6.95271429,8.9168125 C6.95878571,8.9162375 6.96492857,8.9156625 6.97107143,8.9150875 C7.05378571,8.90746875 7.13678571,8.90164688 7.21992857,8.89762188 C7.22957143,8.89719063 7.23935714,8.89690313 7.249,8.89647188 C7.3325,8.89280625 7.41621429,8.89057813 7.50007143,8.89057813 C7.58392857,8.89057813 7.66764286,8.89280625 7.75114286,8.89647188 C7.76085714,8.89690313 7.77057143,8.89719063 7.78021429,8.89762188 C7.86342857,8.90164688 7.94635714,8.90746875 8.02907143,8.9150875 C8.03521429,8.9156625 8.04128571,8.9162375 8.04742857,8.9168125 C8.74578571,8.983225 9.42514286,9.17649688 10.0559286,9.48405 C10.0740714,9.49289063 10.0922857,9.5015875 10.1102857,9.51064375 C10.1671429,9.53910625 10.2233571,9.5688625 10.2794286,9.59919375 C10.3113571,9.61651563 10.3432143,9.63398125 10.3747857,9.65195 C10.4037143,9.66826563 10.4323571,9.68537188 10.461,9.70219063 C12.3048571,10.7893 13.5531429,12.8580781 13.5531429,15.226575 C13.553,18.7202031 10.8376429,21.5625 7.5,21.5625 L7.5,21.5625 Z" id="Shape"></path>
                        <path d="M9.60742857,14.0560906 C9.60742857,12.8864688 8.66207143,11.9348438 7.49992857,11.9348438 C6.33792857,11.9348438 5.39257143,12.8863969 5.39257143,14.0560906 C5.39257143,14.6539469 5.63914286,15.2104031 6.05992857,15.6055 L5.55457143,17.8860219 C5.54321429,17.9374125 5.5375,17.9898094 5.5375,18.0424938 C5.5375,18.6654344 6.14378571,19.1351375 6.94778571,19.1351375 L8.05257143,19.1351375 C8.85642857,19.1351375 9.46257143,18.6654344 9.46257143,18.0424938 C9.46257143,17.9898813 9.45685714,17.9374125 9.44542857,17.8860219 L8.94,15.6055 C9.36078571,15.2103313 9.60742857,14.6539469 9.60742857,14.0560906 L9.60742857,14.0560906 Z M7.06,17.6975656 L7.49992857,15.7122344 L7.94,17.6975656 L7.06,17.6975656 L7.06,17.6975656 Z M7.81142857,14.6635063 C7.67257143,14.7361 7.5655,14.8497344 7.49992857,14.9837094 C7.43435714,14.8497344 7.32728571,14.7361 7.18842857,14.6635063 C6.96192857,14.5451281 6.82114286,14.312325 6.82114286,14.0560906 C6.82114286,13.6791063 7.12564286,13.3723438 7.49992857,13.3723438 C7.87428571,13.3723438 8.17885714,13.6791063 8.17885714,14.0560906 C8.17885714,14.3122531 8.03807143,14.5449844 7.81142857,14.6635063 L7.81142857,14.6635063 Z" id="Shape"></path>
                    </g>
                </g>
            </g>
        </g>
    </g>
</svg>