<?xml version="1.0" encoding="UTF-8" standalone="no"?>
<svg width="20px" height="19px" viewBox="0 0 20 19" version="1.1" xmlns="http://www.w3.org/2000/svg" xmlns:xlink="http://www.w3.org/1999/xlink">
    <!-- Generator: Sketch 39.1 (31720) - http://www.bohemiancoding.com/sketch -->
    <title>download</title>
    <desc>Created with Sketch.</desc>
    <defs></defs>
    <g id="category" stroke="none" stroke-width="1" fill="none" fill-rule="evenodd">
        <g id="all-results" transform="translate(-1265.000000, -254.000000)" fill="#FFFFFF">
            <g id="heading" transform="translate(135.000000, 203.000000)">
                <g id="download" transform="translate(1130.000000, 51.000000)">
                    <g id="Capa_1">
                        <g id="Group">
                            <path d="M19.3940678,9.2673913 C19.0762712,9.2673913 18.8220339,9.52826087 18.8220339,9.85434783 L18.8220339,15.1934783 C18.8220339,16.6456522 17.6694915,17.823913 16.2584746,17.823913 L3.70762712,17.823913 C2.29237288,17.823913 1.1440678,16.6413043 1.1440678,15.1934783 L1.1440678,9.7673913 C1.1440678,9.44130435 0.889830508,9.18043478 0.572033898,9.18043478 C0.254237288,9.18043478 0,9.44130435 0,9.7673913 L0,15.1934783 C0,17.2934783 1.66525424,18.9978261 3.70762712,18.9978261 L16.2584746,18.9978261 C18.3050847,18.9978261 19.9661017,17.2891304 19.9661017,15.1934783 L19.9661017,9.85434783 C19.9661017,9.5326087 19.7118644,9.2673913 19.3940678,9.2673913 L19.3940678,9.2673913 Z" id="Shape"></path>
                            <path d="M9.58050847,14.3369565 C9.69067797,14.45 9.83898305,14.5108696 9.98305085,14.5108696 C10.1271186,14.5108696 10.2754237,14.4543478 10.3855932,14.3369565 L14.0211864,10.6065217 C14.2457627,10.376087 14.2457627,10.0065217 14.0211864,9.77608696 C13.7966102,9.54565217 13.4364407,9.54565217 13.2118644,9.77608696 L10.5550847,12.5065217 L10.5550847,0.597826087 C10.5550847,0.27173913 10.3008475,0.0108695652 9.98305085,0.0108695652 C9.66525424,0.0108695652 9.41101695,0.27173913 9.41101695,0.597826087 L9.41101695,12.5065217 L6.75,9.77608696 C6.52542373,9.54565217 6.16525424,9.54565217 5.94067797,9.77608696 C5.71610169,10.0065217 5.71610169,10.376087 5.94067797,10.6065217 L9.58050847,14.3369565 L9.58050847,14.3369565 Z" id="Shape"></path>
                        </g>
                    </g>
                </g>
            </g>
        </g>
    </g>
</svg>