<?xml version="1.0" encoding="UTF-8" standalone="no"?>
<svg width="15px" height="11px" viewBox="0 0 15 11" version="1.1" xmlns="http://www.w3.org/2000/svg" xmlns:xlink="http://www.w3.org/1999/xlink">
    <!-- Generator: Sketch 39.1 (31720) - http://www.bohemiancoding.com/sketch -->
    <title>Shape</title>
    <desc>Created with Sketch.</desc>
    <defs></defs>
    <g id="Pages" stroke="none" stroke-width="1" fill="none" fill-rule="evenodd">
        <g id="Roadmap" transform="translate(-957.000000, -156.000000)" stroke="#196CA7" fill="#FFFFFF">
            <g id="heading" transform="translate(135.000000, 143.000000)">
                <g id="quicklinks" transform="translate(790.000000, 0.000000)">
                    <path d="M40.9740764,14.1353536 C40.7997019,14.3097281 40.7997019,14.5999458 40.9740764,14.7739138 L44.2449192,18.0447566 L33.4515852,18.0447566 C33.1999819,18.045163 33,18.245145 33,18.4967483 C33,18.7483515 33.1999819,18.954837 33.4515852,18.954837 L44.2449192,18.954837 L40.9740764,22.2195827 C40.7997019,22.4000542 40.7997019,22.6906783 40.9740764,22.8646464 C41.1545479,23.0451179 41.4451721,23.0451179 41.6191401,22.8646464 L45.6643031,18.8194833 C45.8447746,18.6451088 45.8447746,18.3548912 45.6643031,18.1809231 L41.6191401,14.1353536 C41.4447656,13.9548821 41.1545479,13.9548821 40.9740764,14.1353536 Z" id="Shape" transform="translate(39.399828, 18.500000) rotate(180.000000) translate(-39.399828, -18.500000) "></path>
                </g>
            </g>
        </g>
    </g>
</svg>