<?xml version="1.0" encoding="UTF-8" standalone="no"?>
<svg width="23px" height="14px" viewBox="0 0 23 14" version="1.1" xmlns="http://www.w3.org/2000/svg" xmlns:xlink="http://www.w3.org/1999/xlink">
    <!-- Generator: Sketch 39.1 (31720) - http://www.bohemiancoding.com/sketch -->
    <title>road</title>
    <desc>Created with Sketch.</desc>
    <defs></defs>
    <g id="Pages" stroke="none" stroke-width="1" fill="none" fill-rule="evenodd">
        <g id="dahsboard" transform="translate(-475.000000, -232.000000)" fill="#808080">
            <g id="process" transform="translate(435.000000, 208.000000)">
                <g id="road" transform="translate(40.000000, 24.000000)">
                    <g id="Capa_1">
                        <g id="Group">
                            <path d="M8.67077,4.27855305 C8.67077,1.93920257 6.725936,0.0359678457 4.335408,0.0359678457 C1.94488,0.0359678457 0,1.93924759 0,4.27855305 C0,4.96410289 0.16721,5.61206431 0.46345,6.1857492 L4.335362,13.9995498 L8.207826,6.18457878 C8.50379,5.611209 8.67077,4.96365273 8.67077,4.27855305 L8.67077,4.27855305 Z M4.335408,6.62645659 C3.012494,6.62645659 1.93614,5.57321543 1.93614,4.27859807 C1.93614,2.98402572 3.012494,1.93073955 4.335408,1.93073955 C5.658276,1.93073955 6.734538,2.98402572 6.734538,4.27859807 C6.734538,5.57317042 5.65823,6.62645659 4.335408,6.62645659 L4.335408,6.62645659 Z" id="Shape"></path>
                            <path d="M20.357254,0.156160772 C18.90531,0.156160772 17.724214,1.31212862 17.724214,2.73292605 C17.724214,3.14927974 17.825736,3.54281029 18.005688,3.89123473 L20.357254,8.63691961 L22.709188,3.89051447 C22.888864,3.54222508 22.990294,3.14891961 22.990294,2.73288103 C22.990294,1.31212862 21.809106,0.156160772 20.357254,0.156160772 L20.357254,0.156160772 Z M20.357254,4.15890032 C19.553772,4.15890032 18.899974,3.51917685 18.899974,2.73292605 C18.899974,1.94667524 19.553772,1.30695177 20.357254,1.30695177 C21.160644,1.30695177 21.81435,1.94667524 21.81435,2.73292605 C21.81435,3.51917685 21.160644,4.15890032 20.357254,4.15890032 L20.357254,4.15890032 Z" id="Shape"></path>
                            <polygon id="Shape" points="11.507452 7.33699035 11.057572 7.32924759 10.831896 7.78706109 8.901414 11.7032797 6.100704 11.6433183 4.933224 13.9995498 9.590724 13.8999293 10.414262 13.882283 10.627932 13.2087974 12.043122 8.7488746 19.840306 8.61540193 19.272666 7.46992283"></polygon>
                        </g>
                    </g>
                </g>
            </g>
        </g>
    </g>
</svg>