<?xml version="1.0" encoding="UTF-8" standalone="no"?>
<svg width="10px" height="22px" viewBox="0 0 10 22" version="1.1" xmlns="http://www.w3.org/2000/svg" xmlns:xlink="http://www.w3.org/1999/xlink">
    <!-- Generator: Sketch 39.1 (31720) - http://www.bohemiancoding.com/sketch -->
    <title>info</title>
    <desc>Created with Sketch.</desc>
    <defs></defs>
    <g id="Pages" stroke="none" stroke-width="1" fill="none" fill-rule="evenodd" opacity="0.298507463">
        <g id="top-cities" transform="translate(-425.000000, -323.000000)" fill="#000000">
            <g id="info" transform="translate(425.000000, 323.000000)">
                <g id="Capa_1">
                    <path d="M9.5924,19.5517143 L9.2806,20.8035536 C8.3452,21.1661607 7.598,21.4421429 7.0416,21.6318929 C6.4846,21.8222321 5.8374,21.9169107 5.1,21.9169107 C3.9676,21.9169107 3.0868,21.6444643 2.4586,21.1033036 C1.8304,20.5599821 1.5162,19.8715 1.5162,19.0362857 C1.5162,18.7129643 1.539,18.3804107 1.5864,18.0415714 C1.6342,17.7023393 1.7102,17.3202857 1.8142,16.89325 L2.9832,12.8295357 C3.0872,12.4404107 3.1756,12.0717143 3.2464,11.7230536 C3.3182,11.3765536 3.3528,11.05775 3.3528,10.7707679 C3.3528,10.2518036 3.2434,9.88880357 3.0256,9.68471429 C2.8078,9.48121429 2.3922,9.37789286 1.7752,9.37789286 C1.473,9.37789286 1.1624,9.42542857 0.8458,9.51735714 C0.5278,9.60967857 0.256,9.69885714 0.0278,9.78175 L0.3404,8.52892857 C1.1062,8.22269643 1.8382,7.96046429 2.5384,7.74282143 C3.2386,7.52458929 3.9002,7.415375 4.526,7.415375 C5.6506,7.415375 6.5184,7.68232143 7.1278,8.21621429 C7.7372,8.7505 8.0418,9.44310714 8.0418,10.2965893 C8.0418,10.4731786 8.0218,10.7843214 7.9788,11.2290357 C7.9368,11.6747321 7.8586,12.0831071 7.7446,12.4545536 L6.5806,16.5019643 C6.4852,16.8270536 6.3994,17.1986964 6.3248,17.6168929 C6.2478,18.0323393 6.211,18.3497679 6.211,18.5626964 C6.211,19.100125 6.333,19.4670536 6.5776,19.6621071 C6.824,19.8571607 7.2484,19.9541964 7.8512,19.9541964 C8.1342,19.9541964 8.4562,19.9048929 8.814,19.8080536 C9.1708,19.7112143 9.431,19.6261607 9.5924,19.5517143 L9.5924,19.5517143 Z M9.8876,2.55946429 C9.8876,3.26464286 9.617,3.86689286 9.0732,4.36208929 C8.5308,4.85905357 7.8772,5.10773214 7.1126,5.10773214 C6.3456,5.10773214 5.6904,4.85905357 5.1418,4.36208929 C4.5942,3.86669643 4.3198,3.26464286 4.3198,2.55946429 C4.3198,1.85566071 4.5942,1.25242857 5.1418,0.750946429 C5.6894,0.25025 6.3458,0 7.1126,0 C7.877,0 8.5308,0.250839286 9.0732,0.750946429 C9.6174,1.25242857 9.8876,1.85585714 9.8876,2.55946429 L9.8876,2.55946429 Z" id="Shape"></path>
                </g>
            </g>
        </g>
    </g>
</svg>