<?xml version="1.0" encoding="UTF-8" standalone="no"?>
<svg width="10px" height="13px" viewBox="0 0 10 13" version="1.1" xmlns="http://www.w3.org/2000/svg" xmlns:xlink="http://www.w3.org/1999/xlink">
    <!-- Generator: Sketch 39.1 (31720) - http://www.bohemiancoding.com/sketch -->
    <title>Capa_1</title>
    <desc>Created with Sketch.</desc>
    <defs></defs>
    <g id="Pages" stroke="none" stroke-width="1" fill="none" fill-rule="evenodd">
        <g id="profile-picture" transform="translate(-562.000000, -489.000000)" fill="#FF757C">
            <g id="rubbish-bin" transform="translate(562.000000, 488.000000)">
                <g id="Capa_1" transform="translate(0.000000, 1.000000)">
                    <g id="Group">
                        <path d="M9.12479608,1.52928645 L7.43835237,1.52928645 L7.43835237,0.402429677 C7.43835237,0.175609032 7.26042414,0 7.03985318,0 C7.01845024,0 7.00417618,0.00734709677 6.99721044,0.0146774194 C6.99006525,0.00734709677 6.97579119,0 6.96866232,0 L3.00508972,0 L2.97670473,0 L2.94815661,0 C2.72758564,0 2.55680261,0.175609032 2.55680261,0.402429677 L2.55680261,1.52930323 L0.863230016,1.52930323 C0.379265905,1.52930323 0.00216965742,1.91705548 0.00216965742,2.41469548 L0.00216965742,3.05860645 L0.00216965742,3.86344903 L0.749363785,3.86344903 L0.749363785,12.1096426 C0.749363785,12.6072994 1.11933116,12.9877045 1.60329527,12.9877045 L8.38474715,12.9877045 C8.86871126,12.9877045 9.24579119,12.6072994 9.24579119,12.1096426 L9.24579119,3.86344903 L9.98585644,3.86344903 L9.98585644,3.05860645 L9.98585644,2.41469548 C9.98585644,1.91705548 9.60861338,1.52928645 9.12479608,1.52928645 L9.12479608,1.52928645 Z M3.33952692,0.804842581 L6.64849918,0.804842581 L6.64849918,1.52928645 L3.33952692,1.52928645 L3.33952692,0.804842581 L3.33952692,0.804842581 Z M8.45593801,12.1096594 C8.45593801,12.1610052 8.43453507,12.1828452 8.38474715,12.1828452 L1.60329527,12.1828452 C1.55350734,12.1828452 1.5321044,12.1609884 1.5321044,12.1096594 L1.5321044,3.86343226 L8.45593801,3.86343226 L8.45593801,12.1096594 L8.45593801,12.1096594 Z M9.19600326,3.05858968 L0.792022839,3.05858968 L0.792022839,2.41467871 C0.792022839,2.3634671 0.813425775,2.33412903 0.863213703,2.33412903 L9.12479608,2.33412903 C9.17460033,2.33412903 9.19600326,2.3634671 9.19600326,2.41467871 L9.19600326,3.05858968 L9.19600326,3.05858968 Z" id="Shape"></path>
                        <rect id="Rectangle-path" x="6.42791191" y="4.80736645" width="0.789853181" height="6.65838194"></rect>
                        <rect id="Rectangle-path" x="4.60621533" y="4.80736645" width="0.789853181" height="6.65838194"></rect>
                        <rect id="Rectangle-path" x="2.78450245" y="4.80736645" width="0.789853181" height="6.65838194"></rect>
                    </g>
                </g>
            </g>
        </g>
    </g>
</svg>