<?xml version="1.0" encoding="UTF-8" standalone="no"?>
<svg width="15px" height="17px" viewBox="0 0 15 17" version="1.1" xmlns="http://www.w3.org/2000/svg" xmlns:xlink="http://www.w3.org/1999/xlink">
    <!-- Generator: Sketch 39.1 (31720) - http://www.bohemiancoding.com/sketch -->
    <title>clip</title>
    <desc>Created with Sketch.</desc>
    <defs></defs>
    <g id="Pages" stroke="none" stroke-width="1" fill="none" fill-rule="evenodd" opacity="0.501107743">
        <g id="profile-picture" transform="translate(-572.000000, -430.000000)" fill="#000000">
            <g id="short-field" transform="translate(562.000000, 396.000000)">
                <g id="clip" transform="translate(10.000000, 34.000000)">
                    <g id="Capa_1">
                        <path d="M3.41805344,16.9870831 C2.50736641,16.9870831 1.65118321,16.6222702 1.00725191,15.9598984 C-0.322061069,14.5925173 -0.322061069,12.3675982 1.00725191,11.0002171 L8.6569084,3.13149423 C9.55946565,2.20305081 11.0281679,2.20305081 11.9307252,3.13149423 C12.8333206,4.05993764 12.8333206,5.57066051 11.9307252,6.49910393 L6.30396947,12.2869954 C6.08041985,12.5169861 5.71790076,12.5169861 5.49431298,12.2869954 C5.27072519,12.0570046 5.27072519,11.6841432 5.49431298,11.4541524 L11.1210687,5.66622171 C11.5772137,5.19701386 11.5772137,4.43354503 11.1210687,3.96433718 C10.9000763,3.73701617 10.6062977,3.61185219 10.2938168,3.61185219 C9.98133588,3.61185219 9.68751908,3.73701617 9.46656489,3.96433718 L1.8169084,11.83306 C0.934045802,12.7412055 0.934045802,14.2189099 1.8169084,15.1270554 C2.24461832,15.5669746 2.81324427,15.809254 3.41805344,15.809254 C4.0228626,15.809254 4.59152672,15.5669746 5.01919847,15.1270554 L12.8483969,7.07364896 C13.4827863,6.42109238 13.8321374,5.55350346 13.8321374,4.6306351 C13.8321374,3.70776674 13.4827863,2.84017783 12.8483969,2.18762125 C11.5387786,0.840498845 9.40793893,0.840538106 8.09835878,2.18762125 L2.29206107,8.16015704 C2.06851145,8.39014781 1.70599237,8.39014781 1.48240458,8.16015704 C1.25881679,7.93016628 1.25881679,7.55730485 1.48240458,7.32731409 L7.28870229,1.35473903 C9.04473282,-0.451579677 11.9020229,-0.451579677 13.6580534,1.35473903 C14.5087405,2.22974827 14.9772137,3.39316859 14.9772137,4.6306351 C14.9772137,5.86810162 14.5087405,7.03148268 13.6580534,7.90653118 L5.82885496,15.9598984 C5.18492366,16.6223095 4.32874046,16.9870831 3.41805344,16.9870831 L3.41805344,16.9870831 Z" id="Shape"></path>
                    </g>
                </g>
            </g>
        </g>
    </g>
</svg>