<?xml version="1.0" encoding="UTF-8" standalone="no"?>
<svg width="36px" height="32px" viewBox="0 0 36 32" version="1.1" xmlns="http://www.w3.org/2000/svg" xmlns:xlink="http://www.w3.org/1999/xlink">
    <!-- Generator: Sketch 39.1 (31720) - http://www.bohemiancoding.com/sketch -->
    <title>medical-active</title>
    <desc>Created with Sketch.</desc>
    <defs></defs>
    <g id="category" stroke="none" stroke-width="1" fill="none" fill-rule="evenodd">
        <g id="category-empty-state" transform="translate(-155.000000, -714.000000)" fill="#FFFFFF">
            <g id="Categories" transform="translate(135.000000, 323.000000)">
                <g id="medical-active" transform="translate(20.000000, 391.000000)">
                    <g id="Layer_1">
                        <path d="M32.4500417,6.50656744 L24.8768797,6.50656744 L24.8768797,4.51170233 C24.8768797,2.0424186 23.0116251,0.0335627907 20.7190098,0.0335627907 L14.6583659,0.0335627907 C12.3657506,0.0335627907 10.5004959,2.0424186 10.5004959,4.51170233 L10.5004959,6.50664186 L2.92726483,6.50664186 C1.31317522,6.50656744 0,7.92096744 0,9.65938605 L0,28.8136186 C0,30.5520372 1.31317522,31.9663628 2.92726483,31.9663628 L32.4499726,31.9663628 C34.0640622,31.9663628 35.3772374,30.5520372 35.3772374,28.8136186 L35.3772374,9.65938605 C35.3773065,7.92096744 34.0641313,6.50656744 32.4500417,6.50656744 L32.4500417,6.50656744 Z M11.9099223,4.51177674 C11.9099223,2.87955349 13.1428767,1.55162791 14.6583659,1.55162791 L20.7190098,1.55162791 C22.234499,1.55162791 23.4674534,2.87955349 23.4674534,4.51177674 L23.4674534,6.50671628 L11.9099223,6.50671628 L11.9099223,4.51177674 L11.9099223,4.51177674 Z M33.9678802,28.8136186 C33.9678802,29.7150512 33.2870052,30.4483721 32.4500417,30.4483721 L2.92726483,30.4483721 C2.09030132,30.4483721 1.40942636,29.7150512 1.40942636,28.8136186 L1.40942636,9.65938605 C1.40942636,8.75795349 2.09030132,8.02463256 2.92726483,8.02463256 L32.4499726,8.02463256 C33.2869361,8.02463256 33.9678111,8.75795349 33.9678111,9.65938605 L33.9678111,28.8136186 L33.9678802,28.8136186 Z" id="Shape"></path>
                        <path d="M25.5111147,15.6446512 L21.1194228,15.6446512 L21.1194228,10.9146791 C21.1194228,10.4954791 20.80386,10.1556837 20.4147097,10.1556837 L14.9627351,10.1556837 C14.5735847,10.1556837 14.2580219,10.4954791 14.2580219,10.9146791 L14.2580219,15.6446512 L9.86626094,15.6446512 C9.47711057,15.6446512 9.16154776,15.9844465 9.16154776,16.4036465 L9.16154776,22.2755721 C9.16154776,22.6947721 9.47711057,23.0345674 9.86626094,23.0345674 L14.2579528,23.0345674 L14.2579528,27.764614 C14.2579528,28.183814 14.5735156,28.5236093 14.962666,28.5236093 L20.4146406,28.5236093 C20.8037909,28.5236093 21.1193538,28.183814 21.1193538,27.764614 L21.1193538,23.0346419 L25.5111147,23.0346419 C25.9002651,23.0346419 26.2158279,22.6948465 26.2158279,22.2756465 L26.2158279,16.4037209 C26.2158279,15.9844465 25.9002651,15.6446512 25.5111147,15.6446512 L25.5111147,15.6446512 Z M24.8064015,21.5166512 L20.4147097,21.5166512 C20.0255593,21.5166512 19.7099965,21.8564465 19.7099965,22.2756465 L19.7099965,27.0056186 L15.6674482,27.0056186 L15.6674482,22.2756465 C15.6674482,21.8564465 15.3518854,21.5166512 14.9627351,21.5166512 L10.5709741,21.5166512 L10.5709741,17.1627163 L14.962666,17.1627163 C15.3518163,17.1627163 15.6673792,16.8229209 15.6673792,16.4037209 L15.6673792,11.6736744 L19.7099274,11.6736744 L19.7099274,16.4036465 C19.7099274,16.8228465 20.0254902,17.1626419 20.4146406,17.1626419 L24.8064015,17.1626419 L24.8064015,21.5166512 L24.8064015,21.5166512 Z" id="Shape"></path>
                        <path d="M10.9937744,9.01707907 L6.06064392,9.01707907 C5.67149355,9.01707907 5.35593074,9.35687442 5.35593074,9.77607442 C5.35593074,10.1952744 5.67149355,10.5350698 6.06064392,10.5350698 L10.9937053,10.5350698 C11.3828557,10.5350698 11.6984185,10.1952744 11.6984185,9.77607442 C11.6984876,9.35694884 11.3829248,9.01707907 10.9937744,9.01707907 L10.9937744,9.01707907 Z" id="Shape"></path>
                        <path d="M3.59411324,9.01707907 L3.2417221,9.01707907 C2.85257172,9.01707907 2.53700891,9.35687442 2.53700891,9.77607442 C2.53700891,10.1952744 2.85257172,10.5350698 3.2417221,10.5350698 L3.59411324,10.5350698 C3.98326361,10.5350698 4.29882642,10.1952744 4.29882642,9.77607442 C4.29882642,9.35694884 3.98326361,9.01707907 3.59411324,9.01707907 L3.59411324,9.01707907 Z" id="Shape"></path>
                    </g>
                </g>
            </g>
        </g>
    </g>
</svg>