<?xml version="1.0" encoding="UTF-8" standalone="no"?>
<svg width="11px" height="16px" viewBox="0 0 11 16" version="1.1" xmlns="http://www.w3.org/2000/svg" xmlns:xlink="http://www.w3.org/1999/xlink">
    <!-- Generator: Sketch 39.1 (31720) - http://www.bohemiancoding.com/sketch -->
    <title>Shape</title>
    <desc>Created with Sketch.</desc>
    <defs></defs>
    <g id="Pages" stroke="none" stroke-width="1" fill="none" fill-rule="evenodd">
        <g id="notes" transform="translate(-1033.000000, -1004.000000)" fill="#BEC2C3">
            <g id="navi-copy" transform="translate(986.000000, 994.000000)">
                <path d="M59.9065079,13.9558946 L59.1062149,13.0834183 C58.9995765,12.9669088 58.8767348,12.9088375 58.7378581,12.9088375 C58.5993179,12.9088375 58.4765323,12.9669088 58.3698938,13.0834183 L52.0787299,19.9421346 L45.7878464,13.0836017 C45.6811519,12.9670922 45.5583663,12.9090209 45.4196578,12.9090209 C45.2808933,12.9090209 45.1581077,12.9670922 45.0514692,13.0836017 L44.2512884,13.9561391 C44.1444257,14.0724041 44.0911625,14.2062739 44.0911625,14.357565 C44.0911625,14.5087339 44.1445939,14.6426037 44.2512884,14.7588687 L51.7105413,22.8916706 C51.8171798,23.0079967 51.9400215,23.0661292 52.0787299,23.0661292 C52.2174384,23.0661292 52.3400558,23.0079967 52.4466382,22.8916706 L59.9065079,14.7588687 C60.0131463,14.6425426 60.0661292,14.5086728 60.0661292,14.357565 C60.0661292,14.2062739 60.0131463,14.0724041 59.9065079,13.9558946 L59.9065079,13.9558946 Z" id="Shape" transform="translate(52.078646, 17.987483) rotate(270.000000) translate(-52.078646, -17.987483) "></path>
            </g>
        </g>
    </g>
</svg>