<?xml version="1.0" encoding="UTF-8" standalone="no"?>
<svg width="11px" height="16px" viewBox="0 0 11 16" version="1.1" xmlns="http://www.w3.org/2000/svg" xmlns:xlink="http://www.w3.org/1999/xlink">
    <!-- Generator: Sketch 39.1 (31720) - http://www.bohemiancoding.com/sketch -->
    <title>Shape</title>
    <desc>Created with Sketch.</desc>
    <defs></defs>
    <g id="Pages" stroke="none" stroke-width="1" fill="none" fill-rule="evenodd">
        <g id="notes" transform="translate(-998.000000, -1004.000000)" fill="#BEC2C3">
            <g id="navi-copy" transform="translate(986.000000, 994.000000)">
                <path d="M24.9065079,13.9558946 L24.1062149,13.0834183 C23.9995765,12.9669088 23.8767348,12.9088375 23.7378581,12.9088375 C23.5993179,12.9088375 23.4765323,12.9669088 23.3698938,13.0834183 L17.0787299,19.9421346 L10.7878464,13.0836017 C10.6811519,12.9670922 10.5583663,12.9090209 10.4196578,12.9090209 C10.2808933,12.9090209 10.1581077,12.9670922 10.0514692,13.0836017 L9.25128838,13.9561391 C9.14442567,14.0724041 9.09116251,14.2062739 9.09116251,14.357565 C9.09116251,14.5087339 9.14459387,14.6426037 9.25128838,14.7588687 L16.7105413,22.8916706 C16.8171798,23.0079967 16.9400215,23.0661292 17.0787299,23.0661292 C17.2174384,23.0661292 17.3400558,23.0079967 17.4466382,22.8916706 L24.9065079,14.7588687 C25.0131463,14.6425426 25.0661292,14.5086728 25.0661292,14.357565 C25.0661292,14.2062739 25.0131463,14.0724041 24.9065079,13.9558946 L24.9065079,13.9558946 Z" id="Shape" transform="translate(17.078646, 17.987483) rotate(90.000000) translate(-17.078646, -17.987483) "></path>
            </g>
        </g>
    </g>
</svg>