<?xml version="1.0" encoding="UTF-8" standalone="no"?>
<svg width="21px" height="19px" viewBox="0 0 21 19" version="1.1" xmlns="http://www.w3.org/2000/svg" xmlns:xlink="http://www.w3.org/1999/xlink">
    <!-- Generator: Sketch 39.1 (31720) - http://www.bohemiancoding.com/sketch -->
    <title>checked</title>
    <desc>Created with Sketch.</desc>
    <defs></defs>
    <g id="Pages" stroke="none" stroke-width="1" fill="none" fill-rule="evenodd">
        <g id="Roadmap" transform="translate(-177.000000, -551.000000)" fill="#303030">
            <g id="process" transform="translate(136.000000, 315.000000)">
                <g id="checked" transform="translate(41.000000, 236.000000)">
                    <g id="Layer_1">
                        <path d="M18.4453828,8.82079204 C18.4231113,8.50405531 18.1549102,8.2663031 17.8454062,8.28858186 C17.5363125,8.31140708 17.3038359,8.5866969 17.3260664,8.90347566 C17.3398887,9.09915044 17.3468203,9.2999115 17.3468203,9.5 C17.3468203,14.0844226 13.707668,17.8140553 9.23450391,17.8140553 C4.76133984,17.8140553 1.1221875,14.0843805 1.1221875,9.5 C1.1221875,4.91561947 4.76133984,1.18598673 9.23454492,1.18598673 C11.0060508,1.18598673 12.6884707,1.76052655 14.0998184,2.84743584 C14.3475937,3.03819248 14.6992617,2.9870354 14.8854316,2.73318363 C15.0716426,2.47928982 15.0217266,2.11879425 14.7739922,1.92803761 C13.1666309,0.690221239 11.2511191,0.0359402655 9.23450391,0.0359402655 C4.14261914,0.0358982301 0,4.28151549 0,9.5 C0,14.7184845 4.14261914,18.9640597 9.23454492,18.9640597 C14.3264707,18.9640597 18.4690078,14.7185265 18.4690078,9.5 C18.4690078,9.27242035 18.4610098,9.04391593 18.4453828,8.82079204 L18.4453828,8.82079204 Z" id="Shape"></path>
                        <path d="M20.3599512,1.3354646 C19.506498,0.460834071 18.117791,0.460834071 17.2643379,1.3354646 L9.17974805,9.62097788 L6.31382227,6.68375442 C5.46036914,5.80912389 4.07166211,5.80912389 3.21820898,6.68375442 C2.36475586,7.55842699 2.36475586,8.9816615 3.21820898,9.85633407 L8.15407031,14.9149159 C8.43687305,15.20475 8.80831055,15.349646 9.17974805,15.349646 C9.55122656,15.349646 9.92266406,15.20475 10.2054668,14.9149159 L20.3599512,4.50796018 C21.2133223,3.63332965 21.2133223,2.2101792 20.3599512,1.3354646 L20.3599512,1.3354646 Z M19.5664629,3.6947854 L9.4119375,14.1018252 C9.28396875,14.2329757 9.07560937,14.2329757 8.94764062,14.1018252 L4.0117793,9.04320133 C3.59583984,8.61692035 3.59583984,7.92337832 4.0117793,7.49709735 C4.21972852,7.28389381 4.49285156,7.17737611 4.76605664,7.17737611 C5.03926172,7.17737611 5.31242578,7.28393584 5.52033398,7.49709735 L8.46861914,10.5186858 C8.65860352,10.7133518 8.91121875,10.820542 9.17978906,10.820542 C9.44848242,10.820542 9.70109766,10.7133097 9.89104102,10.5186438 L18.0578672,2.14868142 C18.4736836,1.72240044 19.1505234,1.72240044 19.5664629,2.14868142 C19.9823613,2.57496239 19.9823613,3.26850442 19.5664629,3.6947854 L19.5664629,3.6947854 Z" id="Shape"></path>
                    </g>
                </g>
            </g>
        </g>
    </g>
</svg>