<?xml version="1.0" encoding="UTF-8" standalone="no"?>
<svg width="16px" height="20px" viewBox="0 0 16 20" version="1.1" xmlns="http://www.w3.org/2000/svg" xmlns:xlink="http://www.w3.org/1999/xlink">
    <!-- Generator: Sketch 39.1 (31720) - http://www.bohemiancoding.com/sketch -->
    <title>symbol</title>
    <desc>Created with Sketch.</desc>
    <defs></defs>
    <g id="Pages" stroke="none" stroke-width="1" fill="none" fill-rule="evenodd">
        <g id="Roadmap" transform="translate(-180.000000, -589.000000)" fill="#303030">
            <g id="process" transform="translate(136.000000, 315.000000)">
                <g id="symbol" transform="translate(44.000000, 274.000000)">
                    <path d="M15.8039583,0.192354212 C15.6792083,0.0652699784 15.513875,-0.00311015119 15.3409167,8.63930886e-05 C13.4452917,0.0342548596 11.637,0.337365011 9.72254167,0.658228942 C7.70529167,0.99637149 5.619375,1.34600432 3.3455,1.37701944 C2.99333333,1.38181425 2.70683333,1.68103672 2.70683333,2.04401728 L2.70683333,2.07036717 L1.9985,2.07036717 L1.9985,1.70319654 C1.9985,1.14345572 1.55925,0.688077754 1.01933333,0.688077754 C0.479416667,0.688077754 0.0401666667,1.14345572 0.0401666667,1.70319654 L0.0401666667,18.9818143 C0.0401666667,19.5415551 0.479416667,19.996933 1.01933333,19.996933 C1.55925,19.996933 1.9985,19.5415551 1.9985,18.9818143 L1.9985,11.7055724 L2.70683333,11.7055724 L2.70683333,11.7223758 C2.70683333,11.9031965 2.77554167,12.0730454 2.90029167,12.2006048 C3.02266667,12.3257451 3.1835,12.3943413 3.354125,12.3943413 C3.35708333,12.3943413 3.360125,12.3942981 3.36308333,12.3942549 C5.67933333,12.3618143 7.78545833,12.0088121 9.82225,11.6673866 C11.7178333,11.349676 13.5082917,11.0495464 15.3631667,11.0172354 C15.7135,11.0111015 15.9985417,10.7121382 15.9985417,10.3507991 L15.9985417,0.672570194 C15.9985417,0.49075594 15.9294167,0.320215983 15.8039583,0.192354212 L15.8039583,0.192354212 Z M1.37354167,18.9818143 C1.37354167,19.1842765 1.21466667,19.3489849 1.019375,19.3489849 C0.824083333,19.3489849 0.665208333,19.1842765 0.665208333,18.9818143 L0.665208333,1.70319654 C0.665208333,1.50073434 0.824083333,1.33602592 1.019375,1.33602592 C1.21466667,1.33602592 1.37354167,1.50073434 1.37354167,1.70319654 L1.37354167,18.9818143 L1.37354167,18.9818143 Z M1.99854167,11.0576242 L1.99854167,2.71831533 L2.706875,2.71831533 L2.706875,11.0576242 L1.99854167,11.0576242 L1.99854167,11.0576242 Z M15.3735417,10.3508423 C15.3735417,10.3627646 15.3630417,10.3692441 15.3527083,10.3694168 C13.4529167,10.4025054 11.6409167,10.7062635 9.7225,11.0277754 C7.708,11.3654428 5.62495833,11.7146004 3.354625,11.7464363 C3.34795833,11.7459611 3.343875,11.7441469 3.33925,11.7393952 C3.335875,11.7359395 3.331875,11.7301944 3.331875,11.7223758 L3.331875,2.04401728 C3.331875,2.03347732 3.34145833,2.025054 3.35375,2.02488121 C5.67370833,1.99330454 7.78270833,1.63978402 9.82233333,1.29788337 C11.7140833,0.980820734 13.5009583,0.681339093 15.3517917,0.647948164 L15.3523333,0.647948164 C15.354625,0.647948164 15.3599167,0.648336933 15.3659167,0.654427646 C15.3694167,0.658012959 15.373625,0.664060475 15.373625,0.672570194 L15.373625,10.3508423 L15.3735417,10.3508423 L15.3735417,10.3508423 Z" id="Shape"></path>
                </g>
            </g>
        </g>
    </g>
</svg>