<?xml version="1.0" encoding="UTF-8" standalone="no"?>
<svg width="22px" height="19px" viewBox="0 0 22 19" version="1.1" xmlns="http://www.w3.org/2000/svg" xmlns:xlink="http://www.w3.org/1999/xlink">
    <!-- Generator: Sketch 39.1 (31720) - http://www.bohemiancoding.com/sketch -->
    <title>interface</title>
    <desc>Created with Sketch.</desc>
    <defs></defs>
    <g id="Pages" stroke="none" stroke-width="1" fill="none" fill-rule="evenodd">
        <g id="Roadmap" transform="translate(-176.000000, -512.000000)" fill="#303030">
            <g id="process" transform="translate(136.000000, 315.000000)">
                <g id="interface" transform="translate(40.000000, 197.000000)">
                    <g id="Layer_1">
                        <path d="M3.41292188,0.0275157658 L0.976980469,0.0275157658 C0.437378906,0.0275157658 0,0.463103604 0,1.0004527 L0,3.42646171 C0,3.96381081 0.437378906,4.39944144 0.976980469,4.39944144 L3.41296484,4.39944144 C3.95252344,4.39944144 4.38994531,3.9638536 4.38994531,3.42646171 L4.38994531,1.0004527 C4.38990234,0.463103604 3.95252344,0.0275157658 3.41292188,0.0275157658 L3.41292188,0.0275157658 Z M3.4381875,3.3950518 L0.975519531,3.39363964 L0.975519531,0.967587838 L1.00220313,0.966175676 L3.43960547,0.967587838 L3.4381875,3.3950518 L3.4381875,3.3950518 Z" id="Shape"></path>
                        <path d="M21.5122188,1.48482432 L6.87921094,1.48482432 C6.60958203,1.48482432 6.39142969,1.70208333 6.39142969,1.97060811 C6.39142969,2.23909009 6.60958203,2.45639189 6.87921094,2.45639189 L21.5122188,2.45639189 C21.7818047,2.45639189 22,2.23913288 22,1.97060811 C22,1.70208333 21.7818477,1.48482432 21.5122188,1.48482432 L21.5122188,1.48482432 Z" id="Shape"></path>
                        <path d="M3.41292188,7.31405856 L0.976980469,7.31405856 C0.437378906,7.31405856 0,7.7496464 0,8.2869955 L0,10.7130045 C0,11.2503536 0.437378906,11.6859842 0.976980469,11.6859842 L3.41296484,11.6859842 C3.95252344,11.6859842 4.38994531,11.2503964 4.38994531,10.7130045 L4.38994531,8.2869955 C4.38990234,7.7496464 3.95252344,7.31405856 3.41292188,7.31405856 L3.41292188,7.31405856 Z M3.4381875,10.6815946 L0.975519531,10.6801824 L0.975519531,8.25417342 L1.00220313,8.25276126 L3.43960547,8.25417342 L3.4381875,10.6815946 L3.4381875,10.6815946 Z" id="Shape"></path>
                        <path d="M6.87921094,8.77136712 C6.60958203,8.77136712 6.39142969,8.98862613 6.39142969,9.2571509 C6.39142969,9.52567568 6.60958203,9.74293468 6.87921094,9.74293468 L21.5122188,9.74293468 C21.7818047,9.74293468 22,9.52567568 22,9.2571509 C22,8.98862613 21.7818477,8.77136712 21.5122188,8.77136712 L6.87921094,8.77136712 Z" id="Shape"></path>
                        <path d="M3.41292188,14.6005586 L0.976980469,14.6005586 C0.437378906,14.6005586 0,15.0361892 0,15.5735383 L0,17.9995473 C0,18.5368964 0.437378906,18.972527 0.976980469,18.972527 L3.41296484,18.972527 C3.95252344,18.972527 4.38994531,18.5369392 4.38994531,17.9995473 L4.38994531,15.5735383 C4.38990234,15.0361892 3.95252344,14.6005586 3.41292188,14.6005586 L3.41292188,14.6005586 Z M3.4381875,17.9680946 L0.975519531,17.9666824 L0.975519531,15.5406734 L1.00220313,15.5392613 L3.43960547,15.5406734 L3.4381875,17.9680946 L3.4381875,17.9680946 Z" id="Shape"></path>
                        <path d="M21.5122188,16.0578671 L6.87921094,16.0578671 C6.60958203,16.0578671 6.39142969,16.2751261 6.39142969,16.5436509 C6.39142969,16.8121757 6.60958203,17.0294347 6.87921094,17.0294347 L21.5122188,17.0294347 C21.7818047,17.0294347 22,16.8121757 22,16.5436509 C22,16.2751261 21.7818477,16.0578671 21.5122188,16.0578671 L21.5122188,16.0578671 Z" id="Shape"></path>
                    </g>
                </g>
            </g>
        </g>
    </g>
</svg>