<?xml version="1.0" encoding="UTF-8" standalone="no"?>
<svg width="25px" height="25px" viewBox="0 0 25 25" version="1.1" xmlns="http://www.w3.org/2000/svg" xmlns:xlink="http://www.w3.org/1999/xlink">
    <!-- Generator: Sketch 39.1 (31720) - http://www.bohemiancoding.com/sketch -->
    <title>Capa_1</title>
    <desc>Created with Sketch.</desc>
    <defs></defs>
    <g id="category" stroke="none" stroke-width="1" fill="none" fill-rule="evenodd" opacity="0.785739272">
        <g transform="translate(-482.000000, -61.000000)" id="Questions" fill="#000000">
            <g transform="translate(435.000000, 61.000000)">
                <g id="question-images">
                    <g id="magnifying-glass" transform="translate(47.000000, 0.000000)">
                        <g id="Capa_1">
                            <path d="M24.7810421,23.7250554 L18.7056541,17.6496674 C20.3353659,15.7760532 21.3220621,13.3314856 21.3220621,10.6596452 C21.3220621,4.77827051 16.5382483,0 10.6624169,0 C4.78104213,0 0.00277161863,4.78381375 0.00277161863,10.6596452 C0.00277161863,16.5354767 4.78658537,21.3192905 10.6624169,21.3192905 C13.3342572,21.3192905 15.7788248,20.3325942 17.652439,18.7028825 L23.7278271,24.7782705 C23.8719512,24.9223947 24.0659645,25 24.2544346,25 C24.4429047,25 24.636918,24.9279379 24.7810421,24.7782705 C25.0692905,24.4900222 25.0692905,24.0133038 24.7810421,23.7250554 L24.7810421,23.7250554 Z M1.49390244,10.6596452 C1.49390244,5.60421286 5.60698448,1.49667406 10.6568736,1.49667406 C15.712306,1.49667406 19.8198448,5.6097561 19.8198448,10.6596452 C19.8198448,15.7095344 15.712306,19.8281596 10.6568736,19.8281596 C5.60698448,19.8281596 1.49390244,15.7150776 1.49390244,10.6596452 L1.49390244,10.6596452 Z" id="Shape"></path>
                        </g>
                    </g>
                </g>
            </g>
        </g>
    </g>
</svg>