<?xml version="1.0" encoding="UTF-8" standalone="no"?>
<svg width="13px" height="8px" viewBox="0 0 13 8" version="1.1" xmlns="http://www.w3.org/2000/svg" xmlns:xlink="http://www.w3.org/1999/xlink">
    <!-- Generator: Sketch 39.1 (31720) - http://www.bohemiancoding.com/sketch -->
    <title>Capa_1</title>
    <desc>Created with Sketch.</desc>
    <defs></defs>
    <g id="Pages" stroke="none" stroke-width="1" fill="none" fill-rule="evenodd" opacity="0.493353545">
        <g id="profile" transform="translate(-342.000000, -707.000000)" fill="#303030">
            <g id="Setting" transform="translate(179.000000, 505.000000)">
                <g id="short-field-copy-3" transform="translate(0.000000, 164.000000)">
                    <g id="Capa_1" transform="translate(163.000000, 38.000000)">
                        <path d="M12.8668982,0.838850299 L12.2158035,0.155113772 C12.1290456,0.0638083832 12.0291053,0.0182994012 11.9161193,0.0182994012 C11.803407,0.0182994012 11.7035123,0.0638083832 11.6167544,0.155113772 L6.49844912,5.53010778 L1.38037193,0.155257485 C1.29356842,0.0639520958 1.19367368,0.0184431138 1.08082456,0.0184431138 C0.967929825,0.0184431138 0.868035088,0.0639520958 0.781277193,0.155257485 L0.130273684,0.839041916 C0.0433333333,0.930155689 0,1.03506587 0,1.15362874 C0,1.27209581 0.0434701754,1.37700599 0.130273684,1.46811976 L6.19890175,7.84158084 C6.28565965,7.93274251 6.3856,7.9782994 6.49844912,7.9782994 C6.61129825,7.9782994 6.71105614,7.93274251 6.79776842,7.84158084 L12.8668982,1.46811976 C12.9536561,1.37695808 12.9967614,1.2720479 12.9967614,1.15362874 C12.9967614,1.03506587 12.9536561,0.930155689 12.8668982,0.838850299 L12.8668982,0.838850299 Z" id="Shape"></path>
                    </g>
                </g>
            </g>
        </g>
    </g>
</svg>