<?xml version="1.0" encoding="UTF-8" standalone="no"?>
<svg width="16px" height="15px" viewBox="0 0 16 15" version="1.1" xmlns="http://www.w3.org/2000/svg" xmlns:xlink="http://www.w3.org/1999/xlink">
    <!-- Generator: Sketch 39.1 (31720) - http://www.bohemiancoding.com/sketch -->
    <title>star</title>
    <desc>Created with Sketch.</desc>
    <defs></defs>
    <g id="category" stroke="none" stroke-width="1" fill="none" fill-rule="evenodd">
        <g id="category-empty-state" transform="translate(-884.000000, -1199.000000)" fill="#ED8A19">
            <g id="Questions" transform="translate(435.000000, 528.000000)">
                <g id="question-slider" transform="translate(0.000000, 627.000000)">
                    <g id="star" transform="translate(449.000000, 44.000000)">
                        <g id="Capa_1">
                            <path d="M8.76166667,0.484565217 L10.564,4.05717391 C10.6893333,4.30565217 10.9316667,4.47782609 11.212,4.5176087 L15.2423333,5.09054348 C15.9483333,5.19097826 16.23,6.03945652 15.7193333,6.52630435 L12.803,9.30717391 C12.6003333,9.50054348 12.5076667,9.77934783 12.5556667,10.0522826 L13.244,13.9790217 C13.3646667,14.6667391 12.6266667,15.191087 11.9953333,14.8666304 L8.39066667,13.0128261 C8.14,12.8840217 7.84033333,12.8840217 7.58966667,13.0128261 L3.985,14.8666304 C3.35366667,15.191413 2.61566667,14.6667391 2.73633333,13.9790217 L3.42466667,10.0522826 C3.47266667,9.77934783 3.38,9.50054348 3.17733333,9.30717391 L0.261,6.52630435 C-0.249666667,6.03913043 0.032,5.19065217 0.738,5.09054348 L4.76833333,4.5176087 C5.04866667,4.47782609 5.291,4.30565217 5.41633333,4.05717391 L7.21866667,0.484565217 C7.534,-0.141195652 8.446,-0.141195652 8.76166667,0.484565217 L8.76166667,0.484565217 Z" id="Shape"></path>
                        </g>
                    </g>
                </g>
            </g>
        </g>
    </g>
</svg>