<?xml version="1.0" encoding="UTF-8" standalone="no"?>
<svg width="16px" height="15px" viewBox="0 0 16 15" version="1.1" xmlns="http://www.w3.org/2000/svg" xmlns:xlink="http://www.w3.org/1999/xlink">
    <!-- Generator: Sketch 39.1 (31720) - http://www.bohemiancoding.com/sketch -->
    <title>star</title>
    <desc>Created with Sketch.</desc>
    <defs></defs>
    <g id="category" stroke="none" stroke-width="1" fill="none" fill-rule="evenodd">
        <g id="category-empty-state" transform="translate(-1249.000000, -612.000000)" fill="#000000">
            <g id="Questions" transform="translate(435.000000, 528.000000)">
                <g id="question" transform="translate(0.000000, 79.000000)">
                    <g id="star" transform="translate(814.000000, 5.000000)">
                        <g id="Capa_1">
                            <path d="M14.7761466,4.77230277 L10.8755356,4.49724947 C10.7940692,4.49085288 10.7223788,4.44287846 10.6930509,4.3661194 L9.20710387,0.816012793 C9.00180855,0.326673774 8.53907943,0.0228358209 7.99814257,0.0228358209 C7.4572057,0.0228358209 6.99773523,0.326673774 6.78918126,0.819211087 L5.29997556,4.37251599 C5.267389,4.44607676 5.19895723,4.49724947 5.11749084,4.50364606 L1.22339715,4.77869936 C0.695494908,4.80748401 0.245800407,5.1465032 0.0730916497,5.6454371 C-0.102875764,6.15076759 0.0437637475,6.68168443 0.46087169,7.03029851 L3.47512831,9.47379531 C3.53704277,9.52496802 3.56637067,9.60812367 3.54681874,9.68488273 L2.6278778,13.3757143 C2.52034216,13.7595096 2.59529124,14.1560981 2.83317312,14.4663326 C3.0775723,14.7797655 3.45883503,14.9684648 3.85964969,14.9684648 C4.10730754,14.9684648 4.34844807,14.8949041 4.54722607,14.763774 L7.84172709,12.7520469 C7.91015886,12.7104691 7.99814257,12.7104691 8.06657434,12.7520469 L11.3936619,14.7573774 C11.6022159,14.8949041 11.8433564,14.9684648 12.0877556,14.9684648 C12.462501,14.9684648 12.8339878,14.7925586 13.0751283,14.4951173 C13.3260448,14.188081 13.4172872,13.7882942 13.3260448,13.3885075 L12.4038452,9.68808102 C12.3842933,9.60812367 12.4136212,9.52496802 12.4755356,9.47379531 L15.5354134,7.02390192 C15.9460041,6.67848614 16.0926436,6.1475693 15.9199348,5.64223881 C15.7504847,5.1433049 15.2975316,4.80108742 14.7761466,4.77230277 L14.7761466,4.77230277 Z M15.0270631,6.41942431 L11.9737026,8.8661194 C11.6739063,9.10599147 11.5370428,9.50257996 11.6315438,9.87358209 L12.5537434,13.5676119 C12.6026232,13.7850959 12.5146395,13.9354158 12.4559837,14.0057783 C12.3647413,14.1177186 12.2278778,14.188081 12.0910143,14.188081 C12.0062892,14.188081 11.9215642,14.1624947 11.8303218,14.1017271 L8.49019959,12.0868017 C8.33052546,11.9908529 8.14804073,11.9396802 7.9590387,11.9396802 C7.77003666,11.9396802 7.58429328,11.9908529 7.42461914,12.09 L4.1170835,14.1081237 C3.90527088,14.2456503 3.62176782,14.1848827 3.47186965,13.9929851 C3.40995519,13.9130277 3.34478208,13.7755011 3.40343788,13.5740085 L4.32563747,9.8703838 C4.41687984,9.50257996 4.28327495,9.10918977 3.98673727,8.8693177 L0.978997963,6.42901919 C0.74111609,6.22752665 0.806289206,5.96846482 0.832358452,5.89490405 C0.858427699,5.82134328 0.96596334,5.57507463 1.2787943,5.55908316 L5.1794053,5.28402985 C5.56392668,5.2552452 5.89630957,5.02176972 6.04294908,4.66995736 L7.53215479,1.11665245 C7.65272505,0.82880597 7.92319348,0.80641791 8.00140122,0.80641791 C8.07960896,0.80641791 8.35007739,0.82880597 8.47064766,1.11665245 L9.95985336,4.66995736 C10.1064929,5.02176972 10.4388758,5.2552452 10.8233971,5.28402985 L14.7305255,5.56228145 C15.0368391,5.57827292 15.1443747,5.82454158 15.170444,5.89810235 C15.1899959,5.96526652 15.255169,6.22432836 15.0270631,6.41942431 L15.0270631,6.41942431 Z" id="Shape"></path>
                        </g>
                    </g>
                </g>
            </g>
        </g>
    </g>
</svg>