<?xml version="1.0" encoding="UTF-8" standalone="no"?>
<svg width="533px" height="339px" viewBox="0 0 533 339" version="1.1" xmlns="http://www.w3.org/2000/svg" xmlns:xlink="http://www.w3.org/1999/xlink">
    <!-- Generator: Sketch 39.1 (31720) - http://www.bohemiancoding.com/sketch -->
    <title>blank-us-map</title>
    <desc>Created with Sketch.</desc>
    <defs></defs>
    <g id="category" stroke="none" stroke-width="1" fill="none" fill-rule="evenodd">
        <g id="all-results" transform="translate(-737.000000, -502.000000)">
            <g id="Results" transform="translate(435.000000, 401.000000)">
                <g id="blank-us-map" transform="translate(302.000000, 102.000000)">
                    <g id="svg2">
                        <path d="M133.874615,294.621663 L134.988821,292.576344 L136.288732,292.390407 L136.474432,292.855249 L135.267371,294.621663 L133.874615,294.621663 L133.874615,294.621663 Z M139.72421,292.483375 L143.252538,293.970874 L144.459593,293.784937 L145.388099,291.553681 L145.016699,289.601335 L142.602576,289.32243 L140.28131,290.345087 L139.72421,292.483375 L139.72421,292.483375 Z M157.365838,298.247456 L159.501399,301.408395 L160.89416,301.222458 L161.544115,300.943553 L162.379771,301.687305 L164.515338,301.594337 L165.072443,300.757617 L163.401127,299.73496 L162.286921,297.596666 L161.07986,295.551352 L157.737238,297.224793 L157.365838,298.247456 L157.365838,298.247456 Z M168.972171,303.360752 L169.714977,302.245121 L172.407643,302.802931 L172.779049,302.524026 L176.307371,302.895899 L176.121671,303.639657 L174.63606,304.476372 L172.129093,304.290435 L168.972171,303.360752 L168.972171,303.360752 Z M172.036243,306.335755 L173.150455,308.567011 L174.91461,307.916227 L175.100316,306.986533 L174.17181,305.777939 L172.036243,305.592003 L172.036243,306.335755 L172.036243,306.335755 Z M176.028821,305.684971 L177.328732,304.01153 L180.021399,305.406066 L182.528366,306.05685 L185.035338,307.637322 L185.035338,308.752948 L182.992627,309.77561 L180.207099,310.33342 L178.814344,309.4967 L176.028821,305.684971 L176.028821,305.684971 Z M185.592444,314.60999 L186.520949,313.866244 L188.470816,314.795938 L192.834794,316.841252 L194.78466,318.049846 L195.71316,319.444382 L196.827371,321.954543 L199.148638,323.442047 L198.962938,324.185805 L196.734521,326.045182 L194.320405,326.881903 L193.484749,326.51003 L191.720582,327.532681 L190.327827,329.392064 L189.027916,331.065505 L188.006555,330.972536 L185.963844,329.485032 L185.778144,326.881903 L186.149544,325.487367 L185.221038,322.233454 L184.013977,321.210791 L183.921127,319.723287 L185.221038,319.165477 L186.428099,317.399068 L186.706649,316.841252 L185.778144,315.81859 L185.592444,314.60999 L185.592444,314.60999 Z" id="HI" stroke="#FFFFFF" stroke-width="0.75" fill="#D3D3D3"></path>
                        <path d="M90.7919035,256.876249 L90.6062035,305.963881 L91.5347033,306.521691 L93.2988701,306.61466 L94.1345199,305.963881 L95.6201311,305.963881 L95.7129868,307.637322 L99.7055646,311.542019 L99.9841203,313.029524 L101.933981,311.913893 L102.305387,311.820924 L102.491087,310.054515 L103.326737,309.124826 L103.976698,309.031858 L105.090904,308.195132 L106.855065,309.403731 L107.22647,311.077178 L108.340676,311.727956 L108.990631,313.122492 L111.219054,314.145149 L113.168915,317.585004 L114.74737,319.816255 L116.047281,321.396733 L116.882943,323.535015 L119.761309,324.557678 L122.732537,325.766272 L123.289637,328.276439 L123.568187,330.042848 L123.011087,331.995199 L121.989726,333.296761 L121.06122,332.83192 L120.225565,331.065505 L118.647104,330.22879 L117.625748,329.578001 L117.161493,330.042848 L117.997148,331.623326 L118.089998,333.761608 L117.440043,334.040513 L116.325837,332.924888 L115.118782,332.181136 L115.397332,333.110824 L116.140131,334.133487 L115.675881,334.598329 C115.675881,334.598329 115.211632,334.412392 114.933082,334.040513 C114.65452,333.66864 113.72602,332.088167 113.72602,332.088167 L113.168915,330.7866 C113.168915,330.7866 112.983215,331.530352 112.611809,331.34441 C112.240404,331.158473 111.869004,330.507695 111.869004,330.507695 L112.890359,329.392064 L112.054704,328.555344 L112.054704,325.673303 L111.590454,325.673303 L111.126204,327.625649 L110.476242,327.904566 L109.919143,325.766272 L109.547737,323.627984 L109.083481,323.349079 L109.269187,326.602998 L109.269187,327.253776 L108.433526,326.51003 L106.390815,323.070174 L105.183754,322.791269 L104.812354,320.652981 L103.883848,318.97954 L102.955337,318.328751 L102.955337,317.027189 L104.162398,316.283437 L103.883848,316.0975 L102.398237,316.469373 L100.44837,315.074843 L98.962759,313.401397 L96.1772424,311.913893 L93.85597,310.426388 L94.5987813,308.567011 L94.5987813,307.637322 L93.5774201,308.567011 L91.906109,309.217795 L89.7705422,308.567011 L86.5207643,307.172481 L83.3638478,307.172481 L82.9924479,307.451386 L79.27842,305.220124 L78.0713588,305.034187 L76.4928977,301.687305 L74.4501809,301.873242 L72.4074642,302.709962 L72.6860198,305.313098 L73.3359697,303.639657 L73.893081,303.825593 L73.0574198,306.335755 L74.9144308,304.755282 L75.2858365,305.684971 L73.0574198,308.195132 L72.3146142,308.009195 L72.0360642,306.893564 L71.2932587,306.428723 L70.5504531,307.079507 L68.971992,306.05685 L67.2078252,307.265449 L66.1864754,308.474043 L64.2366086,309.682642 L61.5439363,309.589668 L61.2653863,308.381074 L63.4009473,308.009195 L63.4009473,307.265449 L62.1010361,306.893564 L62.6581475,305.499034 L63.9580529,303.267778 L63.9580529,302.245121 L64.0509029,301.780274 L66.5578753,300.478706 L67.1149752,301.222458 L68.693442,301.222458 L67.9506365,299.73496 L65.815064,299.549017 L62.9366974,301.12949 L61.5439363,303.081836 L60.5225808,304.569346 L59.8726252,305.870913 L57.4585085,306.707628 L55.6943417,308.195132 L55.5086411,309.124826 L56.8085506,309.682642 L57.272808,310.89123 L55.6943417,312.750613 L51.9803201,315.167812 L47.5234827,317.585004 L46.3164232,318.235782 L43.2523521,318.886572 L40.1882764,320.188134 L41.2096348,320.931886 L40.3739769,321.768606 L40.0954258,322.41939 L38.5169659,321.861575 L36.6599548,321.954543 L36.195698,323.256111 L35.6385964,323.256111 L35.824297,321.861575 L33.7815796,322.605333 L32.1102691,323.163142 L30.1604046,322.41939 L28.489093,323.535015 L26.6320796,323.535015 L25.4250201,324.278773 L24.4965134,324.743615 L23.2894551,324.557678 L21.803844,323.906894 L20.5039345,324.278773 L19.9468306,324.836583 L19.0183234,324.185805 L19.0183234,323.070174 L20.7824867,322.326422 L24.4036629,322.698301 L26.9106313,321.768606 L28.1176902,320.560013 L29.7890024,320.188134 L30.8103596,319.723287 L32.3888213,319.816255 L33.317328,320.560013 L33.8744296,320.374076 L35.1743391,318.793604 L36.9385059,318.235782 L38.8883669,317.863909 L39.6311748,317.677973 L40.0025759,317.956878 L40.4668326,317.956878 L41.2096348,315.81859 L43.5309032,314.981875 L44.6451121,312.843587 L45.9450227,310.240452 L46.8735311,309.403731 L47.0592317,307.916227 L46.1307233,308.659979 L44.1808548,309.031858 L43.8094537,307.637322 L43.0666516,307.451386 L42.5095442,308.009195 L42.4166943,309.682642 L41.5810358,309.589668 L40.7453837,306.242786 L40.0025759,306.986533 L39.3526237,306.707628 L39.1669238,305.592003 L36.8456553,305.684971 L35.6385964,306.335755 L34.1529864,306.149818 L34.9886385,305.313098 L35.267189,303.825593 L34.8957886,302.709962 L35.7314464,302.152153 L36.4742485,302.059184 L36.1028475,301.036522 L36.1028475,298.52636 L35.5457459,297.968545 L35.0814891,298.805265 L31.5531652,298.805265 L30.7175091,298.061513 L30.3461063,295.830263 L29.1390474,293.784937 L29.1390474,293.227128 L30.3461063,292.76228 L30.4389569,291.553681 L31.0889113,290.902903 L30.6246585,290.623998 L29.881853,290.902903 L29.2318985,289.32243 L29.7890024,286.440385 L32.3888213,284.581013 L33.8744296,283.651319 L34.9886385,281.513036 L36.5671048,280.769278 L38.0527148,281.420068 L38.2384154,282.814604 L39.6311748,282.628656 L41.4881859,281.234126 L42.4166943,281.606005 L42.9737953,281.977878 L43.9023037,281.977878 L45.2022143,281.234126 L45.6664716,278.723959 C45.6664716,278.723959 45.8521722,277.050524 46.2235732,276.771613 C46.5949743,276.492708 46.7806748,276.213803 46.7806748,276.213803 L46.1307233,275.098172 L44.6451121,275.563019 L42.7880953,276.027861 L41.6738864,275.748956 L39.6311748,274.726293 L36.7528054,274.633325 L34.710088,272.495043 L34.9886385,270.263786 L35.3600453,268.869251 L34.1529864,267.846594 L33.0387764,265.7083 L33.317328,265.243458 L37.2170564,264.964553 L38.4241153,264.964553 L38.9812169,265.522363 L39.3526237,265.522363 L39.2597737,264.592675 L41.4881859,264.220801 L42.9737953,264.406738 L43.8094537,265.057522 L42.9737953,266.266121 L42.6952448,267.102836 L44.2737111,268.03253 L47.1520816,269.055187 L48.1734406,268.497377 L46.8735311,265.987216 L46.3164232,264.127833 L46.8735311,263.662986 L44.9236638,262.547361 L44.6451121,261.896571 L44.9236638,260.966888 L44.4594116,258.735632 L42.7880953,256.039528 L41.3953353,253.622335 L43.0666516,252.506704 L44.9236638,252.506704 L45.9450227,252.878583 L48.3591405,252.785615 L50.4947044,250.740301 L51.1446617,248.973886 L53.2802296,247.57935 L54.2087317,248.137166 L55.7871922,247.765287 L57.9227584,246.556688 L58.5727197,246.463719 L59.1298196,246.928572 L61.7296362,246.835598 L63.3080973,245.069189 L63.9580529,245.069189 L66.0007697,246.463719 L67.1149752,247.672319 L66.8364252,248.323102 L67.2078252,248.973886 L68.1363364,248.044198 L70.3647531,248.230134 L70.5504531,250.368416 L71.6646643,251.205143 L75.7500921,251.577016 L79.37127,253.994209 L80.2069198,253.436399 L83.1781478,254.923903 L84.3852033,254.55203 L85.4994145,254.087177 L88.2849311,255.202808 L90.7919035,256.876249 L90.7919035,256.876249 Z M24.6822151,273.5177 L25.889274,276.585676 L25.7964229,277.143492 L24.1251107,276.95755 L23.1037534,274.633325 L22.0823962,273.79661 L20.6896356,273.79661 L20.5967856,272.3091 L21.6181429,270.914565 L22.2680979,272.3091 L23.1037534,273.145821 L24.6822151,273.5177 L24.6822151,273.5177 Z M23.196604,292.76228 L25.3321701,293.227128 L27.4677351,293.784937 L27.9319891,294.342759 L27.0034824,296.481041 L25.239319,296.388072 L23.2894551,294.342759 L23.196604,292.76228 L23.196604,292.76228 Z M11.3117171,284.673981 L11.9616727,286.16148 L12.6116272,287.091174 L11.9616727,287.556016 L10.7546132,285.789607 L10.7546132,284.673981 L11.3117171,284.673981 L11.3117171,284.673981 Z M3.41940998,326.695966 L5.36927406,325.394399 L7.3191382,324.836583 L8.80474934,325.02252 L9.083301,325.952208 L10.1975094,326.231119 L11.3117171,325.115494 L11.126016,324.185805 L12.7044777,323.813926 L14.37579,325.30143 L13.725835,326.324087 L11.2188672,326.974871 L9.64040489,326.695966 L7.50483987,326.045182 L4.99787133,326.881903 L4.06936465,327.067839 L3.41940998,326.695966 L3.41940998,326.695966 Z M31.5531652,324.092837 L32.4816719,325.208462 L33.6887291,324.278773 L32.8530747,323.535015 L31.5531652,324.092837 L31.5531652,324.092837 Z M33.2244775,325.85924 L33.8744296,324.557678 L35.0814891,324.743615 L34.6172375,325.85924 L33.2244775,325.85924 L33.2244775,325.85924 Z M46.7806748,324.743615 L47.6163327,325.766272 L48.1734406,325.115494 L47.7091832,323.999863 L46.7806748,324.743615 L46.7806748,324.743615 Z M51.7946139,317.585004 L52.4445712,320.931886 L54.1158817,321.396733 L56.9942511,319.723287 L59.5012195,318.235782 L58.5727197,316.841252 L58.8512697,315.446716 L57.6442085,316.190469 L55.9728985,315.725621 L56.9014012,315.074843 L58.0156084,315.539685 L60.2440251,314.517022 L60.5225808,313.680307 L59.1298196,313.21546 L59.5940695,312.099829 L58.0156084,313.21546 L55.3229406,315.26078 L52.5374217,316.934221 L51.7946139,317.585004 L51.7946139,317.585004 Z M76.121492,306.149818 L77.5142532,305.313098 L76.9571476,304.290435 L75.9357921,304.84825 L76.121492,306.149818 L76.121492,306.149818 Z" id="AK" stroke="#FFFFFF" stroke-width="0.75" fill="#D3D3D3"></path>
                        <path d="M436.403342,248.518982 L437.704631,252.727802 L439.846797,258.330432 L442.910852,263.722605 L445.046408,267.34838 L447.831919,270.509313 L450.153174,272.64759 L451.081674,274.321025 L450.431724,275.064771 L449.967474,275.808518 L451.638773,280.085076 L453.310079,281.758506 L454.795684,284.826471 L456.838389,288.173341 L459.438195,292.914735 L460.181,297.284257 L460.45955,304.163933 L460.83095,305.186585 L460.64525,307.138925 L459.252495,307.882677 L459.438195,308.998296 L459.066795,310.113921 L459.252495,311.508446 L459.531045,312.624071 L457.952595,314.483443 L456.18844,315.320157 L453.960034,315.413126 L453.124379,316.342814 L451.731629,316.900624 L450.988824,316.621719 L450.338874,316.06391 L450.153174,314.390474 L449.688918,312.438135 L447.739063,309.463138 L445.696358,308.161582 L443.467952,307.975645 L443.003702,308.719391 L441.239547,306.209242 L440.868147,304.163933 L439.382542,301.83972 L438.361192,301.188937 L437.432686,302.39753 L436.411337,302.211594 L435.204281,299.329565 L433.532976,297.09832 L431.861671,294.030361 L430.376071,292.263957 L428.333366,290.125681 L429.540415,288.731151 L431.397421,285.570217 L431.304571,284.640534 L428.704766,284.082725 L427.77626,284.454598 L427.961966,284.826471 L429.447565,285.384281 L428.611916,287.987404 L428.147666,288.266309 L427.12631,285.942096 L426.38351,283.153036 L426.19781,281.572569 L427.03346,278.876483 L427.03346,273.391336 L425.269305,271.25306 L424.526505,269.486656 L421.555294,268.74291 L420.441094,268.371037 L419.512589,266.883538 L417.562734,265.95385 L416.912784,264.00151 L415.334328,263.4437 L413.941573,261.305424 L411.527468,260.468709 L409.856162,259.631989 L408.370563,259.631989 L406.049302,260.096836 L405.956452,261.212455 L406.420708,261.770265 L406.142152,262.421049 L404.378002,262.328081 L402.242447,264.373389 L400.199736,265.489008 L397.971331,265.489008 L396.114325,266.23276 L395.928625,264.652294 L395.000126,263.536668 L393.32882,262.88589 L392.400321,262.04917 L387.757804,259.817925 L383.393844,258.795274 L380.886889,259.167147 L377.451428,259.446052 L374.015967,260.654646 L372.017654,261.00715 L371.881004,256.377857 L370.395398,255.262237 L369.374043,254.23958 L369.559743,252.473171 L375.409314,251.729425 L390.07968,250.05599 L393.979396,249.684117 L397.101582,249.845296 L398.587187,252.076546 L399.422837,252.913261 L404.074043,253.209556 L410.288404,252.837683 L422.644119,252.093931 L425.771887,251.706111 L428.705443,251.823722 L428.950595,253.497157 L430.233126,253.961998 L430.368064,251.299353 L429.490326,248.899551 L430.24181,248.071526 L433.432131,248.333046 L436.403342,248.518982 L436.403342,248.518982 Z M443.608841,324.663201 L445.001602,324.291327 L445.744402,324.151875 L446.580063,322.803823 L447.926394,321.874135 L448.669199,322.153045 L449.64413,322.338982 L449.876255,322.943276 L447.879975,323.640544 L445.465852,324.477264 L444.119522,325.174532 L443.608841,324.663201 L443.608841,324.663201 Z M451.361866,321.781166 L452.058247,322.385466 L453.636708,321.176872 L456.700774,318.759679 L458.836335,316.528423 L460.275521,312.7167 L460.832627,311.740527 L460.925477,309.788182 L460.507646,310.067087 L459.950547,311.694043 L459.114885,314.343651 L457.257874,317.365149 L454.750913,319.782336 L452.801052,320.897962 L451.361866,321.781166 L451.361866,321.781166 Z" id="FL" stroke="#FFFFFF" stroke-width="0.75" fill="#D3D3D3"></path>
                        <polygon id="NH" stroke="#FFFFFF" stroke-width="0.75" fill="#D3D3D3" points="505.889954 77.880792 506.389068 77.2617127 507.015239 75.3690954 505.554612 74.8437722 505.276057 73.0773631 503.047651 72.426585 502.861952 70.8461125 498.683674 57.365641 496.040832 49.002182 495.525591 48.9992721 495.154191 49.9289579 494.782791 49.6500524 494.225686 49.0922409 493.390036 50.2078633 493.362197 53.1017237 493.541194 56.3608576 494.655394 57.9413301 494.655394 60.265549 492.519833 63.1770795 491.034228 63.827869 491.034228 64.4786471 491.684183 65.501304 491.684183 70.4286466 491.219928 75.7278681 491.127078 78.5169284 491.684183 79.2606862 491.591333 81.8638042 491.312778 82.8864669 491.869217 83.294329 501.511273 80.7498352 502.760417 80.403375 503.819278 78.8084737"></polygon>
                        <path d="M121.188578,279.491468 L121.188578,311.12116 L141.865302,337 M0,240.385666 L82.7068966,240.385666 L121.188578,279.491468 L170.582974,279.491468 L201.023707,310.546075 L201.023707,337" id="path57" stroke="#A9A9A9" stroke-width="2"></path>
                        <g id="MI" transform="translate(325.658405, 38.530717)" stroke="#FFFFFF" stroke-width="0.75" fill="#D3D3D3">
                            <path d="M75.1599324,59.3700204 L73.3029271,54.6286201 L72.0030217,49.4223842 L70.610272,47.5630126 L69.1246666,46.5403556 L68.1961668,47.1911394 L65.9677559,48.2137906 L64.8535561,51.0958192 L63.2751007,53.2340957 L62.6251509,53.6059689 L61.7894953,53.2340957 C61.7894953,53.2340957 60.3038957,52.3973753 60.3967457,52.0255022 C60.4895956,51.653629 60.6752956,49.1434793 60.6752956,49.1434793 L62.6251509,48.3997272 L63.0894008,46.4473873 L63.4608007,44.9598946 L64.8535561,44.0302059 L64.6678562,38.2661545 L63.7393506,36.9645984 L62.9965508,36.4997511 L62.5323009,35.2911633 L62.9965508,34.8263219 L63.9250506,35.0122584 L64.0179006,34.0825698 L62.6251509,32.7810079 L61.8823453,31.2935152 L60.3967457,31.2935152 L57.7969348,30.4567948 L54.6400298,28.5044549 L53.0615744,28.5044549 L52.6901745,28.8763338 L52.1330689,28.5974232 L50.3689193,27.2958671 L48.6976139,28.3185183 L47.0263086,29.6200802 L47.2120085,31.6653884 L47.7691084,31.851325 L48.9761639,32.1302298 L49.2547138,32.5950713 L47.7691084,33.0599185 L46.2835087,33.2458551 L45.4478532,34.2685063 L45.2621532,35.4770999 L45.4478532,36.4067828 L45.6335531,39.5677163 L43.5908479,40.7763099 L43.219448,40.6833359 L43.219448,38.2661545 L43.9622478,36.8716301 L44.3336534,35.4770999 L43.8693978,35.0122584 L42.7551981,35.4770999 L42.1980925,37.8942813 L40.6196428,38.5450594 L39.5982873,39.6606846 L39.5054373,40.2184944 L39.8768373,40.6833359 L39.5054373,42.1708343 L38.2055319,42.4497392 L38.2055319,43.100523 L38.6697875,44.4950474 L38.0198319,48.027854 L37.0913322,50.3520671 L37.4627321,53.0481591 L37.741282,53.6989372 L37.2770321,55.0934674 L37.0913322,55.5583088 L36.9056322,57.1387756 L38.9483375,60.5786082 L40.6196428,64.2973514 L41.4552926,67.0864117 L40.9910427,69.782498 L40.4339429,73.2223363 L39.0411874,76.1973275 L38.8554875,77.7777942 L36.9837443,79.5520187 L39.5158446,79.4588261 L51.8176282,78.1572643 L55.9976807,77.5896206 L56.0530312,78.547914 L59.9884665,77.850646 L65.9032043,76.986218 L68.1168773,76.7211555 L68.1961668,76.3832641 L68.2890168,75.5465494 L69.4960665,73.4082729 L70.6450951,72.4088609 L70.517422,69.5035931 L71.4346587,68.5851876 L72.0610601,68.3879678 L72.1887274,66.3426596 L73.0708022,64.599507 L73.674327,64.9481352 L73.767177,65.3200084 L74.2314327,65.4129767 L75.3456324,64.8551669 L75.1599324,59.3700204 L75.1599324,59.3700204 Z" id="MI-"></path>
                            <path d="M8.39665111,4.63461608 L9.44713782,3.45131822 L10.6945876,2.99114587 L13.7803819,0.756020969 L15.0934802,0.427325776 L15.3561091,0.690285841 L12.4016234,3.64853625 L10.4976188,4.76609324 L9.31582339,5.29200646 L8.39665111,4.63461608 L8.39665111,4.63461608 Z M57.8912034,23.1110632 L58.2626033,24.5520775 L60.1196144,24.6450458 L60.86242,23.9477778 C60.86242,23.9477778 60.815995,23.1110632 60.630295,23.0180891 C60.4445893,22.9251209 59.7017895,21.948948 59.7017895,21.948948 L58.448309,22.0884005 L57.5197978,22.1813688 L57.3340978,22.8321526 L57.8912034,23.1110632 L57.8912034,23.1110632 Z M0.282633588,21.4007537 L0.694031476,21.0669742 L2.27248685,20.6021269 L4.31519212,19.3005708 L4.31519212,18.7427553 L4.68659778,18.3708822 L8.12205273,17.8130724 L9.51480815,16.6974471 L12.0217633,15.4888593 L12.1146133,14.7451095 L13.2288188,13.071675 L14.2501685,12.6068324 L14.9929741,11.5841783 L16.2928738,10.2826182 L18.7998347,8.88808976 L21.4924898,8.6091843 L22.1424397,9.25996408 L21.9567397,9.81777557 L19.8211845,10.3755871 L18.9855347,12.1419898 L17.6856292,12.6068324 L17.4070793,14.0013609 L16.0143239,15.8607325 L15.8286239,17.3482309 L16.2928738,17.6271358 L16.8499794,16.9763577 L18.8926847,15.3029227 L19.6354845,16.0466691 L20.93539,16.0466691 L22.7923953,16.6044788 L23.6280451,17.2552626 L24.4636949,19.021666 L26.0421503,20.6021269 L28.2705555,20.5091587 L29.106211,19.9513489 L30.0347108,20.6950952 L30.9632163,20.9740059 L31.7060162,20.5091587 L32.355966,20.5091587 L33.2844716,19.9513489 L35.6057268,17.9060407 L37.555582,17.2552626 L41.3624427,17.069326 L43.9622478,15.9537008 L45.4478532,15.2099544 L46.2835087,15.3029227 L46.2835087,18.5568187 L46.5620587,18.7427553 L48.2333583,19.2076025 L49.3475638,18.9286919 L52.8758744,17.999009 L53.5258243,17.3482309 L54.3614798,17.6271358 L54.3614798,21.6247839 L56.2184852,23.3911873 L56.961285,23.7630604 L57.7040848,24.3208702 L56.961285,24.5068068 L56.4970351,24.3208702 L54.3614798,24.0419653 L53.1544244,24.4138385 L51.8545189,24.3208702 L49.9975136,25.1575906 L48.9761639,25.1575906 L45.6335531,24.4138385 L42.6623481,24.5068068 L41.5481426,25.9943052 L37.555582,26.3661784 L36.1628266,26.8310199 L35.5128768,28.5974232 L34.770077,29.248207 L34.491527,29.1552387 L33.6558715,28.22555 L31.0560663,29.6200802 L30.6846664,29.6200802 L30.0347108,28.6903915 L29.5704609,28.7833598 L28.4562612,31.2935152 L27.8991556,33.6177283 L26.0720683,37.6437856 L25.3961922,37.0489921 L24.6083286,36.4558951 L23.4936349,30.5394058 L21.4578506,29.7515102 L20.2789442,28.4367328 L13.3175736,26.8589978 L11.6776394,26.2668669 L6.95046933,25.017356 L2.41882637,24.3599645 L0.282633588,21.4007537 L0.282633588,21.4007537 Z" id="SP-"></path>
                        </g>
                        <polygon id="VT" stroke="#FFFFFF" stroke-width="0.75" fill="#D3D3D3" points="485.032389 84.5708459 485.214287 81.4966525 483.553998 75.2948346 483.182598 75.108898 481.511287 74.3651459 481.975537 72.6917109 481.511287 71.4831173 479.960504 68.8147329 480.517609 66.5834824 480.053354 63.6084797 478.660598 59.889725 478.197916 57.0588617 493.371967 53.1874908 493.54927 56.3632327 494.64988 57.940249 494.64988 60.2644678 492.520666 63.1732436 491.035061 63.8303764 491.028714 64.4747997 491.7811 65.3484234 491.602516 70.0054471 491.252488 75.3300816 491.121564 78.5257962 491.678664 79.2695483 491.585814 81.8980851 491.307264 82.869916 491.889762 83.288095 487.617979 84.1545818"></polygon>
                        <path d="M530.036198,41.3087923 L531.150404,42.5173836 L532.450309,44.6556607 L532.450309,45.7712836 L531.243254,48.4673716 L530.129048,48.839246 L528.179193,50.6056487 L525.393688,53.7665787 L524.650888,53.7665787 C524.279488,53.7665787 524.093783,52.5579886 524.093783,52.5579886 L523.072433,52.6509569 L522.515333,53.4876739 L521.122577,54.3243942 L520.565478,55.1611089 L521.493977,55.9978235 L521.215427,56.3697025 L520.936877,57.9501634 L519.822672,57.8571952 L519.822672,56.9275122 L519.636972,56.1837601 L518.801322,56.3697025 L517.779967,54.5103308 L516.572917,55.2540772 L517.315717,56.0907918 L517.501417,56.7415756 L517.037167,57.485322 L517.222867,59.2517253 L517.315717,60.1814082 L516.387217,61.6689067 L514.715912,61.9478116 L514.530212,63.6212466 L511.466151,65.3876499 L510.723351,65.6665548 L509.794846,64.8298402 L508.03069,66.8751484 L508.587796,68.73452 L507.75214,69.4782663 L507.65929,71.988416 L507.014131,75.5880821 L505.599929,74.9233122 L505.321373,73.1569031 L503.092968,72.5061193 L502.907268,70.9256468 L498.72899,57.4451753 L496.030345,49.0260745 L496.846237,48.9581195 L497.715687,49.1938464 L497.715687,47.7063491 L498.467114,45.1205033 L499.952719,42.4244153 L500.788375,40.1002011 L499.674169,38.7056726 L499.674169,35.265836 L500.138419,34.7080245 L500.602675,33.1275589 L500.509825,32.290842 L500.416969,29.5017851 L501.438325,26.7127283 L503.10963,21.5994572 L504.31668,19.1822746 L505.059485,19.1822746 L505.802285,19.2752429 L505.802285,19.9260227 L506.545091,21.2275828 L508.12354,21.5994572 L508.587796,21.134614 L508.587796,20.5768031 L510.909051,18.9033686 L511.930401,17.8807145 L512.766056,17.9736834 L516.201511,19.3682118 L517.315717,19.9260227 L522.515333,37.125207 L525.950788,37.125207 L526.415043,38.24083 L526.507893,41.0298869 L528.179193,42.3314464 L528.643449,42.3314464 L528.736299,42.052541 L528.457749,41.4017612 L530.036198,41.3087923 L530.036198,41.3087923 Z M518.013976,58.646195 L518.896056,57.7629904 L519.685287,58.3672901 L520.010262,59.761826 L519.035331,60.2731516 L518.013976,58.646195 L518.013976,58.646195 Z M521.867273,55.252835 L522.888628,56.3219761 C522.888628,56.3219761 523.631434,56.3684545 523.631434,56.1825179 C523.631434,55.9965813 523.770709,55.0204085 523.770709,55.0204085 L524.281389,54.555567 L523.817134,53.5329043 L522.656503,53.9512674 L521.867273,55.252835 L521.867273,55.252835 Z" id="ME" stroke="#FFFFFF" stroke-width="0.75" fill="#D3D3D3"></path>
                        <polygon id="RI" stroke="#FFFFFF" stroke-width="0.75" fill="#D3D3D3" points="502.025124 98.8544988 499.902435 90.2535285 503.503217 89.1924155 504.7617 90.300674 506.660794 92.7854164 508.204599 95.3169937 506.481918 96.2513866 505.739118 96.1584183 505.089168 97.1810753 503.696412 98.2966948"></polygon>
                        <polygon id="NY" stroke="#FFFFFF" stroke-width="0.75" fill="#D3D3D3" points="476.931295 104.519227 476.281339 103.961418 474.795728 103.868449 473.495828 102.75283 472.559282 99.228057 470.572903 99.2801252 469.16935 97.7226792 458.035325 100.242669 433.337104 105.262985 429.012424 105.969184 428.588459 102.249337 429.408693 101.602147 430.151493 100.951369 430.708599 100.021681 431.729948 99.3709025 432.844154 98.3482455 433.122704 97.4185625 434.329753 95.8380958 434.979709 95.280286 434.886859 94.7224705 434.144053 92.956073 433.122704 92.8631047 432.008498 89.330298 433.679804 88.307641 436.186759 87.4709264 438.50802 86.7271743 440.365025 86.4482694 443.98618 86.3553011 445.100385 87.0990532 446.028885 87.1920215 447.235941 86.4482694 448.721546 85.7974913 451.692751 85.5185865 452.899807 84.4959295 453.921156 82.6365579 454.849662 81.5209383 456.056712 81.5209383 457.170917 80.8701545 457.263767 79.5685984 456.428117 78.3600049 456.242417 77.5232902 456.892367 76.3146967 456.892367 75.477982 455.871012 75.477982 454.849662 75.0131405 454.385412 74.3623567 454.292562 72.8748583 457.635167 69.7139306 458.006567 69.2490891 458.842222 67.5756541 460.513528 64.9725303 462.091983 62.8342538 463.299033 61.4397294 464.686154 60.3898479 466.455944 59.6733261 469.612849 58.929574 471.469854 59.0225423 474.069665 58.1858277 478.414758 56.9947282 478.713301 59.8584633 480.106062 63.5772181 480.570312 66.5522207 480.013212 68.7834713 481.498818 71.386595 481.963067 72.5951885 481.498818 74.2686293 483.170129 75.0123757 483.541529 75.1983123 485.30569 81.5201907 484.99767 84.4299327 484.71912 90.6588371 485.18337 93.8197763 485.647619 95.8650903 486.483275 100.048687 486.483275 104.697124 485.833319 105.998686 486.889745 107.14471 487.347246 108.109945 486.233046 109.132602 486.418746 109.876348 487.161546 109.690412 487.997202 108.946665 489.297102 107.459167 489.947057 107.087294 490.875557 107.459167 492.175462 107.552135 496.725123 105.32089 498.396428 103.740424 499.139228 102.903709 501.553333 103.833392 499.603478 105.8787 497.375073 107.552135 493.289662 110.620095 491.804062 111.17791 488.461452 112.29353 486.140196 112.944314 485.465481 112.637833 485.325327 110.516614 485.603877 108.936141 485.511027 107.727554 483.895078 106.750484 481.295267 106.192668 479.066856 105.54189"></polygon>
                        <polygon id="PA" stroke="#FFFFFF" stroke-width="0.75" fill="#D3D3D3" points="473.912642 125.191503 474.664138 125.035655 476.002111 124.314929 476.698159 122.886952 477.626664 121.58539 479.48367 119.818981 479.48367 119.35414 478.090914 118.424457 476.048203 117.029921 475.491103 115.542423 473.912642 115.356486 473.819792 114.705702 473.355542 113.125235 474.655454 112.474457 474.748304 111.079921 474.005492 110.336169 474.098342 109.406481 475.212554 107.640077 475.212554 105.873668 476.761947 104.352062 476.233381 103.96389 474.783667 103.852951 473.465818 102.737331 472.575616 99.2200748 470.562749 99.2778824 469.152579 97.723237 458.761957 100.137313 434.063736 105.15763 428.956958 105.994344 428.600474 102.243988 425.520487 105.15832 424.777681 105.437225 422.364081 107.167593 424.035887 118.17326 425.461237 123.768472 427.512712 134.845472 429.390452 134.478752 436.250288 133.614703 458.033579 129.206559 466.577781 127.582909 471.345116 126.649914 471.498531 126.512739 472.705593 125.583044"></polygon>
                        <polygon id="NJ" stroke="#FFFFFF" stroke-width="0.75" fill="#D3D3D3" points="476.529236 104.355075 475.195271 105.927513 475.195271 107.693923 474.08106 109.460326 473.98821 110.39002 474.731021 111.133767 474.638171 112.528303 473.33826 113.179081 473.80251 114.759547 473.89536 115.410331 475.473821 115.596268 476.030921 117.083766 478.073632 118.478302 479.466387 119.407985 479.466387 119.872832 477.752971 121.423584 476.824465 122.72514 475.988809 124.305613 474.688904 125.049359 474.423294 125.970922 474.284014 126.66819 473.9341 128.167288 474.561449 129.457889 476.418455 131.131324 479.20396 132.432886 481.525215 132.804759 481.618065 133.641473 481.153815 134.199283 481.339515 135.77975 481.803765 135.77975 483.01082 134.385225 483.47507 131.596165 485.053526 129.271952 486.817681 125.553209 487.467631 122.392281 487.096231 121.741497 487.003381 116.349319 486.074875 114.396985 485.424925 114.861826 483.84647 115.047763 483.56792 114.768858 484.217876 114.211043 485.424925 113.095423 485.461144 112.466377 485.240368 110.491626 485.569685 108.911154 485.502216 107.778805 483.889696 106.772205 480.965008 106.096042 478.588655 105.301487"></polygon>
                        <polygon id="DE" stroke="#FFFFFF" stroke-width="0.75" fill="#D3D3D3" points="474.201198 127.254363 474.412738 126.019718 474.62816 125.04722 473.695985 125.275966 472.76814 125.544853 471.500967 126.559476 472.488924 129.459562 473.788835 132.713464 474.995884 138.29159 475.924396 141.917377 478.802757 141.824408 482.330504 141.145417 481.030036 136.897681 480.47293 137.176586 478.430225 135.782062 477.408875 133.08597 476.29467 131.040661 474.487111 129.389988 473.990777 128.18339"></polygon>
                        <path d="M482.337287,141.134427 L478.886256,141.826738 L475.932414,141.894287 L474.873559,137.913357 L473.768037,132.640215 L472.290444,129.081329 L471.550459,126.551913 L467.23935,127.484909 L458.695148,129.108559 L437.18479,133.450971 L437.834556,136.333103 L438.391656,139.586999 L438.577356,139.401062 L439.784417,138.006538 L441.084317,136.50116 L442.477072,136.14716 L443.312733,135.31044 L444.334083,133.822942 L445.076883,134.19482 L446.748188,134.008878 L448.233799,132.80029 L449.386464,131.964536 L450.446278,131.685631 L451.390716,132.335449 L453.062021,133.172163 L454.176221,134.19482 L454.872602,135.078025 L457.240287,136.054192 L457.240287,137.727627 L460.397198,138.471379 L461.054511,138.783064 L461.865441,137.616607 L463.52071,138.749617 L462.786589,140.176939 L462.347054,142.469033 L461.325704,143.956532 L461.325704,145.165125 L461.697104,146.187782 L464.605601,146.96742 L467.081696,146.931925 L468.845846,147.489741 L470.052901,147.675677 L470.610001,146.467084 L469.774351,145.258496 L469.774351,144.235839 L468.381596,143.027245 L467.174546,139.866318 L467.917346,136.798352 L467.824496,135.589765 L467.081696,134.846013 C467.081696,134.846013 467.917346,133.91633 467.917346,133.544456 C467.917346,133.172578 468.195896,132.335863 468.195896,132.335863 L469.310101,131.592117 L470.424301,130.662428 L470.702851,131.220243 L469.867201,132.149926 L469.124401,134.288203 L469.310101,134.938981 L470.331451,135.124917 L470.610001,138.285851 L469.402951,138.843661 L469.588651,140.888969 L469.867201,140.796001 L470.517151,139.680381 L471.445656,140.703032 L470.517151,141.446784 L470.331451,143.399124 L471.817056,145.351464 L474.045462,145.630369 L474.973967,145.165528 L476.832891,147.571069 L477.613064,147.879488 L481.434622,146.271003 L482.587683,143.956934 L482.337287,141.134427 L482.337287,141.134427 Z M473.165104,146.326711 L473.815054,147.767731 L473.907904,148.790388 L474.55786,149.859529 C474.55786,149.859529 475.06854,149.348198 475.06854,149.162261 C475.06854,148.976325 474.650715,147.395852 474.650715,147.395852 L474.232885,146.047801 L473.165104,146.326711 L473.165104,146.326711 Z" id="MD" stroke="#FFFFFF" stroke-width="0.75" fill="#D3D3D3"></path>
                        <path d="M477.654641,148.986734 L477.571986,147.867025 L481.278536,146.400627 L480.836048,148.251159 L479.158965,150.42447 L478.918833,153.061708 L479.184041,155.0115 L478.13414,157.874367 L476.891084,158.976311 L476.046589,156.307449 L476.302688,153.173746 L477.214187,150.768124 L477.654641,148.986734 L477.654641,148.986734 Z M479.573091,165.262431 L446.16055,172.494376 L424.664241,175.530292 L420.828519,175.314531 L419.343672,176.422364 L415.128417,176.54928 L410.314123,177.111523 L404.045078,178.040067 L410.058231,174.813149 L410.050696,173.619887 L410.923742,172.385679 L416.985342,165.771375 L419.252154,168.346297 L421.424939,168.900668 L422.885784,168.244886 L424.170739,167.490858 L425.62765,168.263496 L427.875767,167.442412 L428.953673,164.822128 L430.44752,165.132686 L432.087437,163.907035 L433.120854,164.190897 L434.744672,162.076556 L434.944691,160.87859 L434.391209,160.145028 L434.967154,159.071557 L437.996449,152.011148 L438.350693,148.712987 L439.05651,148.411907 L440.307756,149.816766 L442.568331,149.643568 L443.676379,145.288084 L445.281117,144.965542 L445.884045,143.389193 L447.365773,142.039536 L448.957783,138.764316 L449.006563,135.850043 L454.647581,138.04849 C455.03863,138.244261 455.125949,135.144798 455.125949,135.144798 L457.223809,136.063974 L457.263055,137.753667 L460.585259,138.500985 L461.810326,139.1774 L462.763707,140.359597 L462.387764,142.457894 L461.269245,143.947928 L461.332338,145.132069 L461.670609,146.197651 L464.530171,146.927106 L467.086773,146.95004 L468.849366,147.50134 L469.965628,147.679214 L470.376182,149.455342 L472.208622,149.686831 L472.707201,150.376945 L472.454778,153.074141 L473.244359,153.708202 L472.969273,154.818341 L473.675388,155.272526 L473.547997,156.068789 L472.000694,156.01419 L472.051789,156.943252 L473.361883,157.830534 L473.43169,158.642497 L474.450082,159.669243 L474.732543,161.120833 L473.266196,161.915204 L474.169206,162.774554 L477.501042,161.805058 L479.573091,165.262431 L479.573091,165.262431 Z" id="VA" stroke="#FFFFFF" stroke-width="0.75" fill="#D3D3D3"></path>
                        <path d="M437.189522,133.400996 L437.828209,136.244522 L438.450487,139.713052 L439.674026,138.229136 L440.973926,136.462727 L442.431853,136.108733 L443.267509,135.272019 L444.288864,133.78452 L445.118793,134.156393 L446.790099,133.970457 L448.27571,132.761863 L449.428374,131.926115 L450.488188,131.647204 L451.237099,132.231761 L453.329612,133.279354 L454.443818,134.302011 L455.233049,135.045757 L454.795552,138.240321 L451.444251,136.778903 L449.005977,135.846103 L448.947887,138.824142 L447.369771,142.008234 L445.916639,143.403771 L445.231958,144.984905 L443.713609,145.272505 L443.197932,147.343893 L442.598749,149.615291 L440.319576,149.811245 L438.984934,148.408681 L438.369715,148.73039 L438.006333,151.875934 L437.23079,153.908573 L434.382916,160.208615 L434.897933,160.876117 L434.779696,161.97369 L433.166515,164.207592 L432.127797,163.894579 L430.423087,165.136613 L428.962863,164.807544 L427.814598,167.427385 C427.814598,167.427385 425.942602,168.249884 425.561461,168.213941 C425.469272,168.205246 424.143325,167.495602 424.143325,167.495602 L422.801337,168.288857 L421.41726,168.889477 L419.266484,168.378157 L418.622404,167.706296 L417.363295,165.967606 L415.558338,164.824267 L414.575292,162.740595 L412.114256,160.74609 L411.74285,159.444528 L410.257245,158.607808 L409.792989,157.678125 L409.653714,154.656638 L410.907195,154.610154 L412.021406,154.145312 L412.114256,152.564846 L413.042756,151.728125 L413.135606,148.846097 L413.692706,146.614846 L414.435511,146.242973 L415.178311,146.893751 L415.456867,147.916408 L416.478222,147.358593 L416.756772,146.42891 L416.106822,145.406253 L416.106822,144.011722 L416.663922,143.26797 L417.963828,141.31563 L418.706627,140.478916 L419.913689,140.757821 L421.213588,139.828126 L422.977744,137.875786 L424.277655,135.644536 L424.463355,132.39064 L424.741905,129.508605 L424.741905,126.812513 L424.091955,125.04611 L424.649055,124.209384 L425.386226,123.465638 L427.391437,134.867923 L430.051274,134.435948 L437.189522,133.400996 L437.189522,133.400996 Z" id="WV" stroke="#FFFFFF" stroke-width="0.75" fill="#D3D3D3"></path>
                        <path d="M422.336432,107.154682 L418.836586,109.485704 L416.608181,110.787266 L414.658326,112.925543 L412.337071,115.156788 L410.480065,115.621629 L408.80876,115.900534 L405.651849,117.388032 L404.4448,117.481001 L402.494944,115.714597 L399.523733,116.086476 L398.038134,115.249756 L396.670558,114.472913 L393.860494,114.877434 L388.010922,115.807123 L381.574218,117.063529 L382.317023,125.477188 L383.338379,133.379533 L384.823978,146.859994 L385.148959,149.638329 L387.516645,149.564131 L388.9094,149.099284 L390.84141,149.963718 L392.030604,152.473867 L394.982171,152.464033 L396.068699,153.682467 L397.080233,153.644913 L398.538166,152.87346 L399.976445,153.087104 L403.090175,153.364686 L404.082067,152.138213 L405.429299,151.394467 L406.618492,151.00292 L406.989892,152.583392 L408.011253,153.141202 L410.007528,154.489242 L411.261008,154.442764 L412.02669,154.159546 L412.132779,152.57143 L413.043336,151.734704 L413.100289,148.978481 L413.688404,146.615421 L414.434644,146.269634 L415.193566,146.929682 L415.502654,147.905614 L416.490042,147.309009 L416.742172,146.468953 L416.100797,145.374531 L416.138871,144.043536 L416.569062,143.426866 L417.805507,141.525358 L418.408705,140.637806 L419.61576,140.916711 L420.915665,139.987022 L422.679821,138.034682 L424.271636,135.689065 L424.455618,132.781715 L424.734168,129.899681 L424.632634,126.847772 L424.084218,125.183026 L424.285954,124.498801 L425.322312,123.492339 L424.007737,118.289352 L422.336432,107.154682 L422.336432,107.154682 Z" id="OH" stroke="#FFFFFF" stroke-width="0.75" fill="#D3D3D3"></path>
                        <polygon id="IN" stroke="#FFFFFF" stroke-width="0.75" fill="#D3D3D3" points="355.851902 168.483507 355.889396 166.839579 356.167951 164.23645 357.467851 162.56302 358.489212 160.331764 359.974812 157.914583 359.696262 154.567707 358.674912 152.98724 358.489212 151.127869 358.953462 147.966929 358.674912 143.969275 357.932101 134.765374 357.189301 125.933352 356.631908 119.19334 358.395782 119.704884 359.231438 120.262694 359.881387 120.076758 361.088443 118.961138 362.713616 118.031231 365.638683 117.938044 378.266344 116.636476 381.468783 116.329864 382.332117 125.506046 384.773895 146.693081 385.117622 150.012243 384.90425 151.313805 385.609544 152.346296 385.664906 153.135629 384.216795 154.055484 382.183911 154.94762 380.344757 155.264078 380.001029 158.062978 377.37354 159.967931 375.767407 162.274276 375.953106 163.641098 375.619212 164.523394 373.708642 164.523394 372.797988 163.593711 371.365947 164.319584 369.824979 165.184018 369.917835 166.940587 369.232178 167.088976 368.963449 166.503459 367.718894 165.639025 365.852062 166.410491 364.961061 168.139341 364.135233 167.6745 363.299577 166.754645 360.735468 167.033555 357.523207 167.591365"></polygon>
                        <polygon id="IL" stroke="#FFFFFF" stroke-width="0.75" fill="#D3D3D3" points="355.835768 168.696932 355.853717 166.839573 356.179599 164.16775 357.519296 162.490882 358.591413 160.146972 359.873955 157.849316 359.660583 154.828738 358.508884 152.791458 358.453528 150.866832 358.852606 147.836414 358.378529 143.708238 357.766072 134.634858 357.023273 125.998607 356.493558 119.305074 356.337041 118.775196 355.872791 117.287697 355.129991 115.149421 354.201486 114.126764 353.365836 112.639271 353.231684 109.482651 326.928347 110.976866 327.059655 112.34094 328.372759 112.735374 328.897994 113.392759 329.160617 114.444579 331.392888 116.416742 331.786825 117.731519 331.392888 119.703682 330.342407 121.807322 329.948481 123.253569 328.635377 124.305394 327.584896 124.699828 324.564762 125.48869 324.17083 126.54051 323.776898 127.723811 324.17083 128.512678 325.221311 129.433022 325.090002 131.799613 324.039515 132.719957 323.645589 133.6403 323.645589 135.21803 322.595108 135.480982 321.675936 136.138373 321.544627 136.927241 321.675936 138.110536 320.691109 138.866526 320.100215 140.477133 320.362832 142.580766 321.675936 146.78805 325.877866 151.12681 329.029303 153.230449 328.897994 155.728522 329.42324 156.51739 333.099924 156.780342 334.675645 157.569209 334.281719 159.672849 332.968615 163.091265 332.574683 164.931952 333.887782 167.167067 337.564471 170.19105 340.190679 170.585484 341.372463 173.47799 342.554258 175.318672 342.029018 177.027877 342.94819 179.394474 343.998671 180.577775 344.810824 180.071303 345.332142 178.878122 346.603232 177.873333 347.827449 177.520001 349.322221 178.198486 351.405395 178.989631 352.088273 178.818123 352.203069 177.519322 351.463704 176.132337 351.638433 174.76552 352.694325 173.990621 354.430331 173.524635 355.154533 173.260947 354.802679 172.463373 354.348153 171.109409 355.170971 170.545274"></polygon>
                        <polygon id="CT" stroke="#FFFFFF" stroke-width="0.75" fill="#D3D3D3" points="502.024148 98.8358201 499.912003 90.2792348 497.201733 90.8084916 485.00891 93.536173 485.583372 95.3912085 486.419028 99.5748047 486.520562 104.731549 485.819839 105.982285 486.923052 107.093545 489.37642 104.847469 491.419125 102.988097 492.533325 101.779504 492.99758 102.151377 494.57603 101.314662 497.547241 100.663884"></polygon>
                        <polygon id="WI" stroke="#FFFFFF" stroke-width="0.75" fill="#D3D3D3" points="353.265215 109.478223 353.226882 107.662437 352.549657 105.059313 352.178257 101.526512 351.528307 100.131982 352.085407 98.3655785 352.549657 96.6921435 353.385312 95.2046508 353.013906 93.2523109 352.642507 91.2070027 352.921057 90.1843457 354.035262 88.7898156 354.128112 87.2093488 353.663862 86.4656025 354.035262 84.978104 353.775356 82.5795899 355.353811 79.3256939 357.025116 75.4210141 357.117966 74.1194522 356.932266 73.5616424 356.468011 73.8405473 354.053906 77.4663223 352.47545 79.7905354 351.36125 80.8131923 350.897 82.1147484 349.774168 82.5795899 349.124218 83.6952152 348.288563 83.5092786 348.195713 82.4866216 348.938518 81.0920972 350.145568 78.3960052 351.166924 77.4663223 351.73601 76.1103573 350.265407 75.0169246 349.131162 69.0550208 347.093661 68.2832678 345.97582 66.9557811 339.009079 65.3906059 337.357301 64.8085908 332.640068 63.5622141 328.092383 62.895834 325.92985 59.945261 325.498856 60.263864 324.810832 60.1708957 324.439426 59.5201176 323.673233 59.6906592 323.023277 59.7836275 322.001928 60.3414372 321.444822 59.9695641 321.816228 58.8539388 322.930427 57.0875355 323.580377 56.4367574 322.466177 55.6000428 321.259122 56.0648842 319.587817 57.1805038 315.316706 59.0398754 313.645401 59.4117485 311.974101 59.1328437 311.410241 58.627775 310.194507 60.2582454 310.063199 61.8359747 310.063199 66.7006387 309.406644 67.620988 306.386509 69.8560974 305.073411 73.2745138 305.336028 73.4059898 306.780441 74.5892912 307.174367 76.4299783 306.123886 78.2706596 306.123886 80.5057805 306.386509 84.3186249 308.09354 86.027836 310.063199 86.027836 311.113679 87.8685231 313.083327 88.1314751 315.315603 91.4184156 319.386219 93.7850124 320.568008 95.3627418 321.093254 99.6357638 321.48718 101.542183 322.800285 102.462527 322.931593 103.251394 321.749804 105.223552 321.881112 107.064244 323.325525 109.29936 324.769938 109.956745 326.476968 110.219697 327.247946 111.013384"></polygon>
                        <path d="M479.574521,165.23095 L480.772048,168.058846 L482.814753,171.77759 L484.207503,173.17212 L484.578903,174.473682 L483.186153,174.56665 L483.650403,174.938523 L483.464703,177.355704 L481.979098,178.099451 L481.607698,179.308044 L480.864898,180.981479 L478.729337,181.911162 L477.336587,181.725226 L476.500932,181.632257 L475.572432,180.888511 L475.758132,181.632257 L475.758132,182.190073 L476.872337,182.190073 L477.336587,182.933819 L476.222382,186.559594 L478.636487,186.559594 L479.007893,187.489277 L480.307792,186.187721 L481.050598,185.90881 L479.936392,187.954119 L478.172237,190.743179 L477.429437,190.743179 L476.779482,190.464274 L475.201032,190.836147 L472.229821,192.230677 L468.515811,195.298637 L466.565955,197.994723 L465.451756,201.713466 L465.173206,203.107996 L462.480545,203.386901 L459.348521,204.155595 L453.635766,199.43844 L446.393433,195.068913 L444.722128,194.604066 L437.479801,195.440786 L435.023601,195.872187 L434.095101,194.012809 L432.389065,192.795526 L422.918327,193.074431 L418.740055,193.539273 L413.540439,196.142402 L410.012122,197.629895 L397.848724,199.117399 L398.135952,196.785813 L399.157307,195.949099 L400.735769,195.57722 L401.107168,193.438937 L403.521279,191.858476 L405.749685,191.02175 L408.163801,188.976442 L410.670756,187.767848 L411.042156,186.001439 L413.270567,183.770195 L413.641967,183.677226 C413.641967,183.677226 413.641967,184.32801 414.106223,184.32801 C414.570473,184.32801 415.220428,184.513947 415.220428,184.513947 L416.520334,182.468633 L417.727389,182.096754 L419.027289,182.282696 L419.9558,180.237388 L421.627106,178.749884 L421.905656,177.54129 L422.013347,175.44327 L424.469569,175.430319 L428.604104,174.938166 L437.654324,173.642827 L446.34776,172.442871 L458.777045,169.728842 L470.254534,167.279801 L476.674048,165.896255 L479.574521,165.23095 L479.574521,165.23095 Z M482.027274,184.327562 L483.512886,182.886542 L485.323466,181.399037 L486.205546,181.027164 L486.298396,179.865055 L485.926996,176.332237 L485.091341,174.984191 L484.719935,173.915049 L485.137766,173.775591 L486.716227,176.936536 L486.948352,179.493176 L486.855502,181.445527 L484.905641,182.328726 L483.280755,183.723262 L482.630805,184.42053 L482.027274,184.327562 L482.027274,184.327562 Z" id="NC" stroke="#FFFFFF" stroke-width="0.75" fill="#D3D3D3"></path>
                        <polygon id="DC" stroke="#FFFFFF" stroke-width="0.75" fill="#D3D3D3" points="462.82518 140.231014 461.75787 139.18196 461.049905 138.787285 461.878703 137.624192 463.538062 138.744746"></polygon>
                        <path d="M516.701854,95.610201 L517.949303,95.2157615 L518.211932,94.2296799 L518.802827,94.2954179 L519.393722,95.610201 L518.671518,95.873153 L516.439236,95.9388968 L516.701854,95.610201 L516.701854,95.610201 Z M511.318129,96.0703728 L512.631227,94.5583757 L513.550405,94.5583757 L514.600892,95.4129812 L513.222133,96.004629 L511.974684,96.5962768 L511.318129,96.0703728 L511.318129,96.0703728 Z M491.331128,83.4252874 L501.466669,80.7565004 L502.76658,80.3846273 L503.865939,78.7768555 L506.012165,77.8203103 L507.67161,80.3580698 L506.278855,83.3330667 L506.093155,84.1697813 L507.20736,85.6572798 L507.85731,85.1924383 L508.878666,85.1924383 L510.178565,86.679931 L512.406976,90.1197694 L514.449682,90.3986743 L515.749581,89.8408645 L516.770937,88.8182075 L516.306681,87.2377465 L515.099632,86.3080578 L514.263976,86.7728993 L513.706876,86.029153 L513.985426,85.7502481 L515.192481,85.6572798 L516.213831,86.1221213 L517.328037,87.5166514 L517.885137,89.1900865 L518.070837,90.5846109 L515.656731,91.4213312 L513.428326,92.5369508 L511.199921,95.1400745 L510.085715,95.9767891 L510.085715,95.4189794 L511.478471,94.582259 L511.757021,93.5596077 L511.292771,91.7932044 L509.621466,92.6299191 L509.157216,93.4666395 L509.435766,94.7681956 L508.248962,95.3435282 L506.671098,92.7400422 L504.721237,90.2298867 L503.532038,89.1875618 L499.779632,90.2665369 L496.854835,90.8708308 L484.979985,93.5117434 L484.596455,90.7698228 L484.967855,84.6803766 L487.431412,84.1690452 L491.331128,83.4252874 L491.331128,83.4252874 Z" id="MA" stroke="#FFFFFF" stroke-width="0.75" fill="#D3D3D3"></path>
                        <path d="M400.139343,178.997671 L370.334368,181.879705 L361.28281,182.902356 L358.628608,183.197208 L356.406808,183.181267 L356.279893,185.539594 L351.578591,185.691422 L347.586025,186.063296 L342.939029,185.992066 L342.12702,190.059563 L341.152784,193.21106 L339.261341,194.793028 L338.486687,197.312511 L338.300987,198.800009 L335.979726,200.101565 L336.815376,202.146879 L336.258276,204.657035 L335.702084,205.111151 L397.82332,199.125922 L398.054939,196.851494 L399.094938,195.994392 L400.722742,195.563395 L401.108668,193.425814 L403.462713,191.870231 L405.787081,191.011036 L408.132499,188.957792 L410.680383,187.79298 L410.97977,186.028992 L413.314287,183.737282 L413.630641,183.671625 C413.630641,183.671625 413.64859,184.322403 414.112839,184.322403 C414.577089,184.322403 415.227045,184.526311 415.227045,184.526311 L416.52695,182.463026 L417.716057,182.091152 L419.022775,182.260923 L419.940769,180.229227 L421.638127,178.708754 L421.880321,177.5936 L422.057773,175.459372 L420.824895,175.344487 L419.330611,176.51095 L415.313979,176.527668 L404.769258,177.900293 L400.139343,178.997671 L400.139343,178.997671 Z" id="TN" stroke="#FFFFFF" stroke-width="0.75" fill="#D3D3D3"></path>
                        <polygon id="AR" stroke="#FFFFFF" stroke-width="0.75" fill="#D3D3D3" points="341.065304 193.259125 338.779447 193.671289 335.843266 193.306668 336.084896 192.385341 337.796326 190.909275 338.338159 188.806619 337.287678 187.097408 292.248277 188.543662 293.167449 192.487994 293.167443 197.221187 293.955312 203.532168 294.086621 225.291631 295.399725 226.409189 297.106755 225.620327 298.682483 226.277713 299.073238 230.057921 331.019501 229.401979 331.677497 228.199838 331.512876 226.158566 330.464319 224.449355 331.382532 223.595233 330.464319 222.150906 330.857292 220.70754 331.643231 217.483939 333.089562 216.297751 332.695631 214.983934 334.796598 211.894696 336.37232 211.107755 336.307142 210.248819 336.108737 209.198921 337.749637 205.979173 339.129831 205.256527 339.350457 203.285347 340.367448 202.571264 338.561956 202.292767 337.791484 199.986422 339.402017 198.619611 339.718061 197.458398 340.452934 195.131252"></polygon>
                        <polygon id="MO" stroke="#FFFFFF" stroke-width="0.75" fill="#D3D3D3" points="320.742066 138.66064 319.29477 136.885208 318.638215 135.57043 281.674418 136.950946 280.361297 137.016684 281.083506 138.462937 280.952197 139.777709 282.396604 142.012829 284.169289 144.379426 285.941979 145.957156 287.183289 146.088632 288.042941 146.614547 288.042941 148.323752 286.992466 149.244096 286.729837 150.558868 287.911632 152.531036 289.356051 154.240242 290.800458 155.292061 291.588316 161.997412 291.768743 182.742011 291.900052 185.437292 292.162669 188.53327 305.047134 188.034774 318.375598 187.640341 330.324826 187.179691 337.018766 187.047249 338.264768 189.017492 337.871802 190.919586 336.098629 192.301539 335.769875 193.358167 338.859029 193.62113 341.096113 193.226691 342.082381 190.067385 342.456526 186.699231 343.661537 185.229796 345.152576 184.374707 345.182115 182.620559 345.765669 181.506918 344.792583 180.044033 344.028158 180.610066 342.88369 179.329213 342.145629 176.592382 342.605692 175.144202 341.489074 173.173005 340.437639 170.54153 337.681082 170.081841 333.678527 166.862082 332.691294 164.496452 333.150404 162.655764 334.333152 159.172087 334.596735 157.525256 333.477239 156.932164 329.539851 156.473436 328.949433 155.488798 328.88522 153.05598 325.733778 151.082857 321.727369 146.613581 320.414271 142.406297 320.282003 139.976378"></polygon>
                        <polygon id="GA" stroke="#FFFFFF" stroke-width="0.75" fill="#D3D3D3" points="386.133395 200.447025 386.133395 201.702103 386.226245 202.910702 386.597645 204.863042 388.547506 209.418505 389.940261 215.0896 390.775911 218.622413 391.704417 221.411467 392.540072 225.409121 393.747128 229.034902 395.232733 230.987247 395.511283 232.939587 396.625489 233.404429 396.718339 234.613028 395.696983 237.402083 395.418433 239.26146 395.325583 240.377085 396.254089 242.887241 396.439789 245.955206 395.975533 247.349736 396.346939 247.814583 397.182594 248.279425 397.300164 250.130101 398.582701 252.056367 399.875249 253.29973 404.424921 253.392698 410.639282 253.020825 422.994997 252.277079 426.122765 251.889258 428.751725 251.905205 428.844575 253.57864 430.33018 254.043482 430.51588 251.533326 429.587374 248.930203 430.23733 248.00052 433.579941 248.465361 436.438733 248.648112 435.993368 245.02577 437.293268 239.261719 438.128923 236.844532 437.850368 235.357039 439.765498 231.766034 439.472405 230.988702 438.373431 231.393896 436.887832 230.650138 436.516426 229.441545 435.773626 227.396236 434.473715 226.187643 432.988115 225.81577 432.05961 223.026709 430.37962 219.383544 427.965515 218.267918 426.758454 217.152293 426.015648 215.664795 424.808599 214.549169 423.508693 213.805417 422.208788 212.131982 420.444632 210.830426 417.844816 209.807763 417.566266 208.971049 416.17351 207.297614 415.894961 206.460893 413.9451 203.602443 411.92345 203.659475 409.766805 202.304493 408.952211 201.560747 408.766511 200.53809 409.266658 199.42247 410.545536 198.784045 410.18143 197.577964"></polygon>
                        <polygon id="SC" stroke="#FFFFFF" stroke-width="0.75" fill="#D3D3D3" points="439.347811 230.704035 438.32715 231.26158 436.841545 230.517828 436.470145 229.309235 435.727345 227.263926 434.427434 226.055327 432.941828 225.683454 432.013329 222.894399 430.434867 219.454555 428.020762 218.338924 426.813701 217.223305 426.070901 215.735806 424.863846 214.620175 423.56394 213.876429 422.264035 212.202994 420.49988 210.901438 417.900063 209.878775 417.621513 209.04206 416.228763 207.368625 415.950208 206.531899 414.000347 203.556908 412.050491 203.649876 409.72923 202.25534 408.986431 201.511594 408.800731 200.488937 409.26498 199.373318 410.564886 198.815496 410.271495 197.49908 413.584423 196.155353 418.819942 193.516286 423.285385 193.051439 432.540746 192.808477 434.056034 193.88816 435.020431 195.819423 437.4915 195.468632 444.733827 194.631906 446.405133 195.096753 453.647465 199.466286 459.453076 204.136945 456.339408 207.275956 454.853803 210.808763 454.575253 214.434538 453.646753 214.899379 452.996798 216.479846 451.604048 216.851719 450.396992 218.897027 448.818537 220.477494 447.518637 222.429834 446.590132 222.894675 444.547427 224.847015 442.876121 224.939984 443.433227 226.799355 440.554866 229.960289"></polygon>
                        <path d="M416.977387,165.780249 L415.660211,167.16142 L413.605065,169.458334 L410.776633,172.600985 L410.078351,173.587699 L410.042454,174.796287 L407.526866,176.040824 L404.277106,177.993169 L400.123456,179.027661 L370.332955,181.844924 L361.281397,182.867575 L358.627195,183.162427 L356.405395,183.146486 L356.275045,185.573507 L351.577173,185.656641 L347.584607,186.028514 L342.99697,185.993883 L343.690662,185.234724 L345.126282,184.348604 L345.257596,182.507911 L345.782837,181.456092 L344.859954,179.996007 L345.320488,178.899429 L346.620399,177.876778 L347.827449,177.504899 L349.405904,178.248651 L351.448615,178.992397 L352.098571,178.806461 L352.191421,177.504899 L351.448615,176.110369 L351.634315,174.808807 L352.748521,173.972092 L354.234132,173.600213 L355.162632,173.22834 L354.698382,172.205683 L354.326982,171.090058 L355.192314,170.517388 C355.194198,170.496041 355.91253,168.491771 355.90353,168.413835 L357.657158,167.563468 L360.712598,167.005658 L363.293765,166.726753 L364.093518,167.662664 L364.971285,168.163449 L365.884949,166.375963 L367.715459,165.638347 L368.98196,166.491791 L369.217767,167.066324 L369.891782,166.914496 L369.798927,165.216309 L371.597153,164.210375 L372.830915,163.593033 L373.709309,164.54814 L375.615099,164.522721 L375.952435,163.619119 L375.741354,162.317562 L377.234977,160.018084 L379.978405,158.040998 L380.38387,155.259966 L382.063865,154.997779 L384.241503,154.051372 L385.644833,153.068989 L385.530921,152.16902 L384.874751,151.332306 L385.199732,149.609977 L387.603315,149.542404 L388.924276,149.113506 L390.846861,149.93536 L392.026646,152.445516 L394.974395,152.451738 L396.152399,153.721636 L397.080239,153.636696 L398.574528,152.901639 L401.582452,153.231375 L403.061366,153.356462 L404.030633,152.173949 L405.534262,151.353946 L406.615069,150.947303 L406.986469,152.578608 L408.16012,153.187243 L409.677998,154.384853 L409.745467,157.64745 L410.209717,158.55172 L411.697132,159.446714 L412.140326,160.766253 L414.529573,162.742786 L415.566459,164.826458 L416.977387,165.780249 L416.977387,165.780249 Z" id="KY" stroke="#FFFFFF" stroke-width="0.75" fill="#D3D3D3"></path>
                        <polygon id="AL" stroke="#FFFFFF" stroke-width="0.75" fill="#D3D3D3" points="362.593048 260.752726 361.736917 252.516642 360.158456 241.732274 360.251306 233.643992 360.715555 215.794005 360.622705 206.218225 360.717525 202.526717 386.26734 200.445225 386.182451 201.700303 386.275301 202.908902 386.646706 204.861242 388.596567 209.416705 389.989317 215.0878 390.824972 218.620613 391.753472 221.409673 392.589134 225.407327 393.796183 229.033102 395.281789 230.985453 395.560339 232.937787 396.67455 233.402634 396.7674 234.611228 395.746039 237.400288 395.467489 239.259666 395.374639 240.375285 396.30315 242.885446 396.48885 245.953406 396.024588 247.347942 396.396 247.812783 397.23165 248.277625 397.420118 249.938943 394.205083 249.735621 390.305366 250.1075 375.635001 251.780929 369.655085 252.589942 369.527935 254.244693 370.549291 255.26735 372.034896 256.382969 372.368515 260.946524 369.185414 262.426161 367.606964 262.240225 369.185414 261.1246 369.185414 260.56679 367.421264 257.126951 366.121359 256.755078 365.285703 259.265228 364.542903 260.845695 364.171503 260.752726"></polygon>
                        <path d="M349.187977,260.031299 L347.30145,258.210498 L347.881496,255.047397 L347.501647,254.5338 L342.182175,255.112658 L327.807073,255.376576 L327.414106,253.99943 L327.938382,249.136681 L329.842869,245.71731 L332.732648,240.719232 L332.402929,239.340166 L333.124655,238.948619 L333.388243,237.825771 L332.075134,236.643436 L332.010927,235.526361 L330.959481,233.027322 L330.875022,229.382086 L299.013459,229.913448 L299.029869,235.419068 L299.423801,240.809647 L299.817732,243.044762 L301.262145,245.411359 L301.787386,248.303872 L304.282279,251.459325 L304.413588,253.300012 L304.80752,253.694445 L304.413588,258.559115 L302.706558,261.451616 L303.62573,262.634917 L303.231793,264.081165 L302.837867,268.288449 L302.050003,270.12913 L302.120338,272.208898 L304.812034,271.334682 L311.769379,271.45373 L317.711794,273.499038 L321.425805,274.149822 L323.56136,273.313102 L325.418366,273.963885 L327.275371,274.521695 L327.739621,273.313102 L325.882616,272.662324 L324.39701,272.941228 L322.818555,272.011546 C322.818555,272.011546 322.91141,271.267793 323.28281,271.174825 C323.65421,271.081857 325.046966,270.617015 325.046966,270.617015 L326.068315,271.45373 L327.089671,270.89592 L328.946676,271.267793 L329.782326,272.662324 L329.968026,273.963885 L332.567831,274.149822 L333.589187,275.172473 L333.124937,276.102162 L332.382131,276.567003 L333.310637,277.496686 L338.138847,279.541995 L340.181552,278.798248 L340.738658,277.403718 L342.224258,277.031845 L343.245613,276.19513 L343.988413,276.75294 L344.452663,278.426375 L343.152763,278.891217 L343.524163,279.26309 L345.474018,278.519343 L346.773924,276.567003 L347.238174,276.288099 L346.031118,276.102162 L346.495368,275.172473 L346.402518,274.335759 L347.609574,274.056854 L348.259524,273.313102 L348.630923,273.777943 C348.630923,273.777943 348.538073,275.544346 349.002329,275.544346 C349.466579,275.544346 351.416434,275.916225 351.416434,275.916225 L353.737689,277.031845 L354.294789,277.868565 L355.966095,277.868565 L356.61605,278.426375 L357.91595,276.659972 L357.91595,275.823251 L357.17315,275.823251 L355.223295,274.24279 L351.880684,273.777943 L350.023679,272.476387 L350.673634,270.89592 L351.973534,271.081857 L352.066384,270.709984 L351.045034,270.152174 L351.045034,269.873263 L352.90204,269.873263 L353.923389,268.106866 L353.18059,266.99124 L352.99489,265.410774 L352.159234,265.503742 L351.045034,266.712336 L350.673634,268.199834 L348.909479,267.827955 L348.352373,266.805304 L349.373729,265.689679 L350.466913,263.708165 L349.857467,262.320904 L349.187977,260.031299 L349.187977,260.031299 Z" id="LA" stroke="#FFFFFF" stroke-width="0.75" fill="#D3D3D3"></path>
                        <polygon id="MS" stroke="#FFFFFF" stroke-width="0.75" fill="#D3D3D3" points="362.737986 260.136729 362.591951 260.859123 359.62074 260.859123 358.78509 260.394281 357.578035 260.208345 353.678324 261.323964 352.656975 260.859123 351.171369 263.276304 350.538121 263.723732 349.892646 262.292931 349.236091 260.05781 347.266443 258.217129 347.922987 255.02854 347.529061 254.50263 346.47858 254.634106 341.930895 255.136368 327.832528 255.351088 327.390425 254.071316 327.892049 249.253941 329.682216 245.991592 332.684402 240.732494 332.42839 239.333541 333.138784 238.956141 333.389128 237.852282 332.058075 236.656692 331.991956 235.425158 330.937604 233.055179 330.874999 229.626078 331.637471 228.199308 331.509217 226.234961 330.492905 224.462208 331.369609 223.609811 330.467524 222.172363 330.730147 221.222201 331.636132 217.468981 333.063946 216.297906 332.695401 214.936696 334.796369 211.887289 336.422857 211.107232 336.295942 210.143872 336.130454 209.177096 337.782329 205.975211 339.129601 205.266988 339.21669 204.753431 360.665047 202.521427 360.771222 206.134878 360.864072 215.710658 360.399822 233.560645 360.306972 241.648927 361.885433 252.433295"></polygon>
                        <polygon id="IA" stroke="#FFFFFF" stroke-width="0.75" fill="#D3D3D3" points="326.917124 110.752405 327.068971 112.354707 328.346173 112.686681 328.894071 113.39135 329.181254 114.458341 331.359684 116.389851 331.753616 117.765168 331.366307 119.73453 330.457502 121.593194 329.998398 123.169957 328.750471 124.091267 327.765162 124.420446 324.560833 125.49022 323.761643 127.703545 324.18014 128.492412 325.237243 129.460045 325.074741 131.781256 324.06207 132.665657 323.619008 133.610603 323.692077 135.207224 322.608669 135.470176 321.675086 136.105593 321.514962 136.883471 321.675086 138.09973 320.784252 138.741566 319.365295 136.939662 318.640133 135.530778 280.884539 136.977032 280.357265 137.072174 279.178462 134.475111 279.047153 130.662255 278.127981 128.295658 277.734055 125.271682 276.420951 123.168037 275.895716 120.407012 274.319989 116.068252 273.66344 112.978525 272.875576 111.729492 271.956404 110.151768 273.078679 107.366153 273.866542 104.079212 272.290821 102.895911 272.028198 101.318182 272.553444 99.8719283 273.538271 99.8719283 321.010881 99.141869 321.490041 101.54752 322.783588 102.445211 322.93103 103.263609 321.765357 105.212751 321.87472 107.056199 323.319138 109.240488 324.770409 109.98443 326.539004 110.273727"></polygon>
                        <polygon id="MN" stroke="#FFFFFF" stroke-width="0.75" fill="#D3D3D3" points="272.954475 70.0594188 272.691852 65.1947491 271.641371 60.9874708 270.59089 53.230303 270.328267 47.5767669 269.277786 45.6046021 268.358614 42.7120983 268.358614 36.795609 268.75254 34.5604898 267.706682 31.4253161 285.013341 31.4456 285.199041 26.7042032 285.570441 26.6112343 286.870347 26.8901404 287.984547 27.354983 288.448796 30.5159142 289.284452 34.0487197 290.212952 34.9784055 292.998463 34.9784055 293.184163 35.8151224 296.805323 36.0010596 296.805323 37.2096508 299.590828 37.2096508 299.776528 36.4659022 300.426478 35.8151224 301.726384 35.4432481 302.469183 36.0010596 304.140489 36.0010596 306.368894 37.4885563 309.432955 38.8830847 310.82571 39.1619908 311.10426 38.6041793 311.93991 38.3252732 312.21846 39.9987077 313.704065 40.7424563 313.982615 40.4635503 314.725421 40.5565192 314.725421 41.7651105 316.21102 42.3229219 317.975176 42.3229219 318.903681 41.8580787 320.760687 39.9987077 322.246286 39.7198022 322.710542 40.7424563 322.989092 41.4862044 323.546192 41.4862044 324.103292 41.0213618 329.210058 40.8354246 330.231407 42.6018274 330.602813 42.6018274 331.012677 41.9782745 333.562755 41.7651105 333.211193 43.0759939 330.948976 44.1324975 325.63863 46.4679926 322.896242 47.6221296 321.132086 49.1096269 319.739331 51.1549351 318.439431 53.3861805 317.418076 53.8510243 314.818271 56.7330471 314.075465 56.8260154 311.58979 58.4115947 310.175226 60.2548064 310.043917 62.0901279 310.098113 66.7157405 309.30778 67.6869158 306.38918 69.8492194 305.108326 73.2896156 306.757725 74.5741894 307.148223 76.4299783 306.082659 78.2926394 306.180753 80.4480707 306.392609 84.3186249 308.131895 86.0450253 310.043917 86.0450253 311.130083 87.8465376 313.070921 88.1359608 315.287443 91.39754 319.358052 93.7650225 320.588978 95.4184618 320.974455 99.1217295 274.33035 99.7800814 274.136265 79.2628486 273.873647 77.5536432 271.510062 75.5814801 270.853507 74.5296606 270.853507 73.6093113 272.035297 72.6889735 272.82316 71.9001059"></polygon>
                        <polygon id="OK" stroke="#FFFFFF" stroke-width="0.75" fill="#D3D3D3" points="218.451388 180.474116 208.868772 179.741854 208.363215 186.040436 220.117576 186.705741 238.528792 187.455422 237.187906 201.498229 236.925283 211.753478 237.056598 212.673822 239.551491 214.777461 240.733281 215.434847 241.127213 215.303371 241.521145 214.12007 242.309008 215.171895 243.490798 215.171895 243.490798 214.383027 245.066519 215.171895 244.803902 217.40701 247.167487 217.538486 248.611894 218.195878 250.975479 218.590311 252.419892 219.642131 253.732996 218.458835 255.702649 218.853263 257.147062 220.825426 257.672297 220.825426 257.672297 222.140204 258.985401 222.534632 260.298499 221.21986 261.348986 221.614288 262.793393 221.614288 263.318639 223.060547 266.93768 224.256132 267.725544 223.861704 268.776025 221.495108 269.432574 221.495108 270.089129 222.678403 272.452714 223.072837 274.55367 223.861704 276.260706 224.387614 277.311193 223.861704 277.705119 222.415451 280.200013 222.415451 281.381802 222.941361 282.957524 221.75806 283.614079 221.75806 284.00801 222.678403 286.37159 222.678403 287.290762 221.495108 288.341249 221.75806 289.523038 223.204319 291.361377 224.256132 293.199728 224.782048 294.314594 225.425528 294.091113 204.022572 293.303243 197.711597 293.211082 192.609245 292.384077 188.849492 291.937115 184.720586 291.897978 182.525934 284.927142 182.709237 258.271376 182.446285 232.403123 181.262978"></polygon>
                        <path d="M207.608227,186.082417 L220.64076,186.706925 L238.498954,187.364317 L237.158063,200.853403 L236.987618,211.293226 L237.026754,212.490433 L239.521648,214.686356 L240.662687,215.518597 L241.342842,215.196727 L241.557289,214.151383 L242.212235,215.188618 L243.425063,215.213882 L243.42353,214.381682 L244.382665,214.937944 L245.036682,215.17308 L244.830334,217.454817 L247.1784,217.508593 L248.858567,218.197068 L251.129986,218.499206 L252.49774,219.694797 L253.717724,218.500822 L255.857156,218.854448 L257.132743,220.709064 L257.75015,220.893643 L257.657984,222.023841 L258.929378,222.479475 L260.267708,221.29779 L261.492815,221.651421 L262.773267,221.671825 L263.309179,223.072411 L266.94374,224.2884 L267.858713,223.84735 L268.714196,221.444811 L268.909889,221.444811 L269.430535,221.491761 L270.136444,222.681399 L272.393584,223.063992 L274.310202,223.709744 L276.277724,224.397529 L277.334868,223.83682 L277.744818,222.390573 L280.30254,222.415992 L281.341396,222.95127 L282.949155,221.739847 L283.583035,221.765265 L284.071833,222.688318 L286.400675,222.688318 L287.273043,221.521688 L288.345574,221.755886 L289.463283,223.137977 L291.485334,224.313537 L293.127273,224.779247 L293.996626,225.239224 L295.401896,226.387853 L297.149677,225.62426 L298.695314,226.279214 L299.01914,229.79065 L298.996304,235.370226 L299.39023,240.853095 L299.793529,242.926341 L301.330114,245.468137 L301.845987,248.31523 L304.267432,251.500064 L304.380017,253.308672 L304.808697,253.760597 L304.389379,258.579853 L302.739779,261.459017 L303.620245,262.697101 L303.258356,264.041697 L302.873787,268.299813 L302.009775,270.219447 L302.179141,272.233597 L298.925497,273.145211 L293.261631,275.748335 L292.704531,276.863954 L291.218926,277.97958 L290.011876,278.816294 L289.269071,279.281136 L286.019316,282.349101 L284.44086,283.557695 L281.3768,285.41706 L278.127045,286.811591 L274.505884,288.763931 L273.484534,289.600651 L270.141924,291.645959 L268.192068,292.017832 L265.963663,295.17876 L263.642408,295.364702 L263.085302,296.480322 L264.385208,297.595947 L263.549552,300.756875 L262.806752,303.359999 L262.156802,305.591243 L261.692553,308.194361 L262.156802,309.588892 L263.178152,313.58654 L263.735258,317.119341 L264.756608,318.699807 L264.199508,319.536528 L262.435352,320.652147 L259.185592,318.420902 L256.028687,317.770124 L255.285881,318.049029 L253.428876,317.677156 L251.014771,315.910753 L248.043565,315.259975 L243.679599,313.307635 L242.47255,311.076384 L241.729744,307.357647 L239.872744,306.242022 L239.501339,304.94046 L239.872744,304.568586 L240.058444,302.616247 L239.315639,302.244373 L238.944239,301.686564 L239.687039,299.176408 L238.758539,297.874852 L236.901534,297.1311 L234.951678,294.62095 L232.908973,290.809239 L230.494868,289.32174 L230.587718,288.206121 L227.523657,281.140507 L227.059407,278.723326 L226.038057,277.607707 L225.945207,276.770986 L222.509747,273.703027 L221.024141,271.936623 L221.024141,271.28584 L219.538536,270.077252 L215.638825,269.426468 L211.367715,269.054595 L209.60356,267.753039 L207.003754,268.77569 L204.961049,269.61241 L203.661144,271.471776 L203.104044,273.610058 L200.597089,277.142859 L199.204333,278.53739 L197.718728,277.97958 L196.697378,277.328796 L195.583173,276.956923 L193.354767,275.655367 L193.354767,275.283488 L192.333418,274.167868 L189.362207,272.959275 L185.091096,268.496785 L183.791191,265.800699 L183.791191,261.152267 L181.934186,257.433524 L181.655636,255.853063 L180.727136,255.295247 L180.07718,254.086659 L177.198825,252.878066 L176.456025,251.948383 L172.370609,247.392919 L171.627809,245.533548 L168.935148,244.231986 L168.099493,241.721813 L166.613876,240.048389 L165.499682,239.769496 L165.126794,237.079454 L169.722696,237.473899 L186.399043,239.051617 L203.075441,239.971961 L204.358277,228.779754 L206.59053,196.830877 L207.50972,186.049568 L208.297583,186.066004 L207.608227,186.082417 Z M265.175432,318.141676 L264.850457,314.051048 L263.271996,309.91393 L262.947015,305.869786 L263.829096,301.128374 L265.732537,297.177199 L267.728818,294.062738 L269.53941,292.017418 L269.910809,292.156876 L267.171718,295.9686 L264.664757,299.733844 L263.504121,303.545561 L263.318421,306.52057 L263.829096,310.053388 L265.314707,314.190506 L265.593257,317.165503 L265.686107,318.002229 L265.175432,318.141676 L265.175432,318.141676 Z" id="TX" stroke="#FFFFFF" stroke-width="0.75" fill="#D3D3D3"></path>
                        <polygon id="NM" stroke="#FFFFFF" stroke-width="0.75" fill="#D3D3D3" points="165.501411 239.818143 165.056051 237.08758 170.020636 237.38973 187.349891 239.083874 203.011452 240.055705 204.2838 229.297313 206.499288 197.163863 207.497331 186.013401 208.400042 186.087334 208.874113 179.667432 149.138799 173.550854 139.089136 242.811145 147.969025 243.955076 148.711825 238.191025"></polygon>
                        <polygon id="KS" stroke="#FFFFFF" stroke-width="0.75" fill="#D3D3D3" points="291.702968 182.520741 284.455627 182.638306 257.984199 182.37536 232.392457 181.192047 218.246281 180.468929 220.482693 143.32131 233.166404 143.70959 256.306605 144.193467 281.751175 144.761409 284.677867 144.761409 285.932485 146.004974 287.091335 145.992679 288.033447 146.574935 287.99755 148.305499 286.947069 149.297734 286.75624 150.581422 287.814819 152.538053 289.510517 154.375485 290.847239 155.303937 291.594341 161.768367"></polygon>
                        <polygon id="NE" stroke="#FFFFFF" stroke-width="0.75" fill="#D3D3D3" points="279.191988 134.397774 281.0475 138.434821 280.973621 139.758967 282.960436 142.918416 284.522269 144.731281 281.622083 144.731281 256.647725 144.19146 233.221651 143.679461 220.441012 143.228669 221.057161 130.963336 202.495068 129.283943 204.989962 103.974518 213.91905 104.566172 225.474347 105.223552 235.716545 105.880943 249.372809 106.538329 255.544386 106.275377 256.726176 107.590148 259.483693 109.29936 260.140242 109.825269 262.635135 109.036402 264.867412 108.77345 266.443133 108.641968 267.493614 109.430836 269.824013 110.351179 271.531043 111.271523 271.793666 112.191866 272.318907 113.375162 273.369388 113.375162 273.82771 113.401713 274.341315 116.094159 276.018576 120.963936 276.34741 123.124365 277.796786 125.29488 278.123932 128.235947 279.047055 130.674522"></polygon>
                        <polygon id="SD" stroke="#FFFFFF" stroke-width="0.75" fill="#D3D3D3" points="273.648903 113.305985 273.62165 112.971935 271.958489 110.185393 273.026918 107.475528 273.884273 104.090265 272.286496 102.894255 272.065278 101.316531 272.520396 99.8475619 274.351728 99.856309 274.281036 96.9773513 274.089604 79.624583 273.734809 77.457903 271.395858 75.5423341 270.831481 74.577939 270.795584 73.6527302 271.956995 72.7731947 272.837031 71.8152923 272.977725 70.2874114 239.517564 69.3670736 208.043449 67.3835526 204.984862 104.011421 213.364834 104.531183 224.823099 105.224512 235.013881 105.75853 248.670145 106.5082 255.55245 106.263996 256.681801 107.555166 259.665361 109.42612 260.104103 109.841763 262.712495 109.006273 266.469077 108.652647 267.431291 109.421117 269.846166 110.339028 271.537671 111.279769 271.766827 112.133087 272.363862 113.421784"></polygon>
                        <polygon id="ND" stroke="#FFFFFF" stroke-width="0.75" fill="#D3D3D3" points="272.993227 70.1135171 272.640051 65.2634373 271.676889 61.3437017 270.590505 53.8536639 270.327888 47.5351865 269.328823 45.7655673 268.319908 42.7783464 268.337856 36.772 268.695885 34.5728237 267.642464 31.4283946 251.191689 31.1040309 240.513912 30.7321566 225.28647 29.9884079 212.10716 28.7612512 208.090569 67.3936626 239.64109 69.3165466"></polygon>
                        <polygon id="WY" stroke="#FFFFFF" stroke-width="0.75" fill="#D3D3D3" points="206.983589 78.3702529 145.675608 70.6312952 137.586713 121.50221 202.640632 129.315026"></polygon>
                        <polygon id="MT" stroke="#FFFFFF" stroke-width="0.75" fill="#D3D3D3" points="212.056761 28.7365151 194.438859 27.1217715 177.632962 25.0764633 160.82707 22.7522491 142.257017 19.6842867 131.67209 17.7319468 112.877149 13.7450321 110.304608 26.0216845 112.274262 30.3604393 111.486398 32.9899893 112.536879 35.6195388 114.375229 36.4084057 117.029213 42.6017601 118.577153 44.4285319 118.839771 45.0859223 120.809424 45.7433126 121.072047 46.9266042 117.001432 57.0503792 117.001432 58.4966325 118.445845 60.3373139 118.971079 60.3373139 121.72859 58.6281085 122.122528 57.970717 123.0417 58.3651508 122.910386 61.3891334 124.486113 68.6204001 126.193143 70.0666476 126.718378 70.4610814 127.768865 71.775853 127.506242 73.7480218 127.900173 75.7201792 128.556728 76.2460947 129.869827 74.9313174 131.445548 74.9313174 133.283893 75.851661 134.728305 75.3257512 137.09189 75.3257512 139.192847 76.2460947 140.768574 75.983137 141.031191 74.2739259 142.738221 73.8794978 143.526085 74.6683654 143.788708 76.5090467 144.607661 76.989036 145.691438 70.6431189 207.001181 78.3658937"></polygon>
                        <polygon id="CO" stroke="#FFFFFF" stroke-width="0.75" fill="#D3D3D3" points="218.272931 180.556417 221.089124 130.912199 155.964013 123.640843 148.948964 174.213363"></polygon>
                        <path d="M85.2793165,97.4677323 L90.3168959,77.2128132 L91.1047595,74.7804783 L92.5491666,71.3620676 L91.8269631,70.0472903 L90.3825445,70.1130283 L89.9229641,69.5213805 L90.1855873,68.8639947 L90.3825445,67.0890456 L92.9430984,63.9335812 L93.9935793,63.6706292 L94.6501285,63.0132434 L94.978406,61.1725563 L95.5036407,60.7781283 L97.7359171,57.4254498 L99.9681934,54.927377 L100.099502,52.758001 L98.1298489,51.2460079 L97.2479004,48.7150672 L105.073414,12.2881903 L112.837289,13.7420698 L110.305493,26.0391268 L112.350392,30.3438429 L111.442276,33.0242236 L112.573666,35.6933285 L114.376114,36.4151705 L116.578955,41.911024 L118.59648,44.4627661 L118.887821,45.1201565 L120.806707,45.7775469 L121.018557,46.983544 L117.014734,56.9762795 L116.919862,58.4519081 L118.431055,60.3621691 L118.950891,60.3340474 L121.771707,58.5940692 L122.160786,57.9643681 L123.058104,58.3432688 L122.898181,61.4221146 L124.471479,68.6582464 L126.721698,70.4858158 L127.687289,71.7311344 L127.275702,74.0797023 L127.888089,75.6942026 L128.49784,76.3217817 L129.921829,74.9695146 L131.557679,74.9976305 L133.23436,75.7654844 L134.831074,75.3733165 L137.010321,75.2810268 L139.295616,76.2013703 L140.871343,76.030708 L141.156647,74.2839956 L142.84099,73.8441531 L143.564773,74.7159307 L143.818023,76.409534 L144.636098,77.1072332 L139.81957,107.936787 C139.81957,107.936787 89.2959999,98.3325111 85.2793165,97.4677323 L85.2793165,97.4677323 Z" id="ID" stroke="#FFFFFF" stroke-width="0.75" fill="#D3D3D3"></path>
                        <polygon id="UT" stroke="#FFFFFF" stroke-width="0.75" fill="#D3D3D3" points="149.043778 174.311289 100.942234 167.483732 112.766799 102.762853 139.635231 107.792055 138.782431 113.905454 137.454744 121.480857 141.939118 122.014749 151.362259 123.052657 156.078258 123.544723"></polygon>
                        <polygon id="AZ" stroke="#FFFFFF" stroke-width="0.75" fill="#D3D3D3" points="83.2302474 216.018777 81.7214152 217.260001 81.5357152 218.096721 81.8142651 218.654531 92.6777413 224.790456 99.6415127 229.159977 108.090884 234.087314 117.74731 239.851365 124.803932 241.245895 139.134716 242.801449 149.045535 174.29322 100.951688 167.439784 99.1755627 176.878349 98.2529845 176.887154 97.2681579 178.399145 95.8237451 178.333401 95.1015416 176.755672 93.5258202 176.558458 93.0005739 175.901072 92.4753392 175.901072 91.950093 176.229768 90.8339576 176.821416 90.768309 180.831474 90.6369889 181.817556 90.3087229 189.048817 89.455205 190.29785 89.1269275 192.204275 90.702649 195.031044 91.4248525 198.383722 91.8844444 198.97537 92.4753392 199.304066 92.4096791 200.618837 91.4905126 201.407699 89.5208593 202.393781 88.404724 203.511344 87.551206 205.614977 87.2229286 208.441746 85.5815528 210.019475 84.3997631 210.413909 84.4776972 210.891161 84.215074 211.877243 84.4776972 212.337414 86.5786591 212.666099 86.2503816 214.243834 85.3968637 215.492867"></polygon>
                        <polygon id="NV" stroke="#FFFFFF" stroke-width="0.75" fill="#D3D3D3" points="112.798842 102.696161 99.2217522 176.780234 98.1693989 176.981025 97.2660787 178.364784 95.9031725 178.370931 95.0577529 176.793202 93.5538256 176.575578 93.1110451 175.938596 92.5149638 175.907519 90.9191974 176.853126 90.7409985 180.755356 90.5330309 184.077721 90.3328285 189.01932 89.5016816 190.220766 88.1008795 189.603107 48.4246088 129.678532 59.331073 90.8114418"></polygon>
                        <polygon id="OR" stroke="#FFFFFF" stroke-width="0.75" fill="#D3D3D3" points="85.4189016 96.9200096 90.5017573 76.9061719 91.1052822 74.473837 92.4575227 71.24 92.1040024 70.5712448 90.6595839 70.5446873 89.9234926 69.5838923 90.1861099 68.7419271 90.4752452 66.8746941 93.035799 63.7192296 94.08628 63.0871246 94.7428292 62.4297388 95.5963414 60.3791973 97.9207842 57.1188086 99.9687161 54.897599 100.100025 52.912799 98.2225438 51.4930962 97.1982361 48.8231907 89.9247561 46.7459998 81.2582853 44.7080987 72.3948514 44.7738344 72.132234 43.9849732 68.9807853 45.168271 66.4202373 44.8395758 65.0414788 43.9192317 64.3192753 44.3136684 61.6274185 44.1821854 60.6425919 43.3933242 57.6224577 42.2100264 57.1628704 42.2757678 54.6679767 41.4211588 53.5518408 42.4729801 50.0064649 42.2757678 46.5924029 39.9091715 46.9863318 39.4489997 47.1176411 34.978762 45.8045399 32.7436486 43.440956 32.4149534 43.0470271 30.9687018 41.6950381 30.7003872 38.3646353 31.8843636 37.0647315 35.6031057 35.2077268 41.3671566 33.3507215 45.0858993 30.4723641 53.1741644 26.7583541 60.98352 22.1158419 68.2350699 21.0016388 69.9085049 20.5373877 74.835836 20.7591427 81.782999"></polygon>
                        <path d="M58.6261174,0.351821904 L61.1330725,1.18853902 L66.7040885,2.76900478 L71.6251488,3.88462718 L83.1385806,7.13852723 L96.3233177,10.3924267 L105.066769,12.2368248 L97.2369762,48.8040916 L90.0891476,46.7767329 L81.1820686,44.7232878 L72.4350733,44.7424025 L72.1734151,43.9690859 L68.9574838,45.2223653 L66.3180827,44.7986746 L65.0849631,43.8877084 L64.3307164,44.2661007 L61.6107738,44.1854491 L60.6353149,43.4092949 L57.6124697,42.1945405 L57.1903366,42.2790309 L54.6694292,41.4023432 L53.582007,42.4474912 L49.9831623,42.2756942 L46.5797172,39.9030635 L47.0271138,39.3666452 L47.0967387,34.9514553 L45.7860647,32.7432996 L43.4224808,32.3941998 L43.033408,30.9503813 L41.7264598,30.6876065 L39.6846632,31.3952927 L38.3847595,29.543951 L38.57046,27.8705165 L40.1489142,27.6845793 L41.0774169,25.3603657 L39.5918126,24.7095853 L39.6846632,22.5713082 L42.1916201,22.1994345 L40.6131658,20.6189689 L39.7775132,16.5283519 L40.1489142,14.854918 L40.1489142,10.2994584 L39.1275616,8.44008679 L40.4274653,3.04791024 L41.6345185,3.32681569 L43.0272722,5.00025015 L44.6057264,6.48774687 L46.4627311,7.60336985 L49.062538,8.81196111 L50.8266939,9.18383544 L52.4979987,10.0205524 L54.4478557,10.5783639 L55.7477588,10.4853956 L55.7477588,9.09086657 L56.490561,8.44008679 L57.6976118,7.69633814 L57.8833175,8.34711849 L58.0690175,9.3697726 L56.7691115,9.64867805 L56.583411,10.8572693 L57.6047619,11.6939868 L58.2547175,13.0885153 L58.6261174,14.2041377 L59.4617672,14.1111694 L59.5546172,13.3674207 L58.9975173,12.6236721 L58.7189673,10.764301 L59.1832172,9.74164692 L58.8118173,8.90492998 L58.8118173,7.60336985 L59.8331728,5.55806164 L59.1832172,4.07056434 L57.7904618,1.28150754 L57.9761675,0.816664752 L58.6261174,0.351821904 L58.6261174,0.351821904 Z M53.1946337,3.7902367 L54.3552665,3.69726841 L54.6338176,4.48750408 L55.5158975,3.55781252 L56.8622291,3.55781252 L57.3264807,4.44101648 L56.4444002,5.41718931 L56.815807,5.88203826 L56.3979781,7.04414825 L55.6087481,7.27656668 C55.6087481,7.27656668 55.0980686,7.32305428 55.0980686,7.13711712 C55.0980686,6.95117996 55.933727,5.64961407 55.933727,5.64961407 L54.9587965,5.32422102 L54.773096,6.16094371 L54.3552665,6.53281804 L53.4731848,5.23125215 L53.1946337,3.7902367 L53.1946337,3.7902367 Z" id="WA" stroke="#FFFFFF" stroke-width="0.75" fill="#D3D3D3"></path>
                        <path d="M83.1057448,215.770938 L85.3687434,215.48994 L86.2222555,214.33319 L86.535014,212.641813 L84.4951862,212.302443 L84.1998709,211.91816 L84.4741247,210.749408 L84.3826417,210.410298 L85.4868764,210.053981 L87.2345076,208.424948 L87.5685285,205.552339 L88.3610789,203.595836 L89.4772142,202.350051 L91.4982893,201.435855 L92.4484939,200.512941 L92.4879692,199.300178 L91.9174467,198.966623 L91.329797,198.349712 L90.6662924,194.986354 L89.1240385,192.20864 L89.4490134,190.192966 L88.0593193,189.601025 L48.3937109,129.689556 L59.2502041,90.8129312 L20.7226535,81.7852648 L19.8571625,84.5072817 L19.764312,88.7838347 L16.7931041,95.5705374 L15.0289499,97.0580358 L14.8432494,97.7088139 L13.8218961,98.1736611 L12.986244,100.590842 L12.521993,102.450214 L14.1004472,104.867395 L15.0289499,107.284577 L15.6789015,109.329885 L15.4932009,113.048628 L14.4718483,114.815032 L14.1004472,118.161902 L13.5433456,120.300178 L14.5646983,122.531423 L16.1431525,125.134541 L17.4430562,127.923601 L18.1858578,130.247814 L18.0001578,132.107186 L17.8144573,132.386091 L17.8144573,133.594679 L21.0642157,137.220454 L20.7856652,138.614984 L20.4142641,139.916546 L20.0428631,141.032165 L20.1357131,145.773565 L21.3427662,147.911842 L22.4569694,149.399335 L24.0354236,149.678245 L24.5925252,151.258706 L23.9425737,153.304014 L22.7355199,154.233703 L22.0855683,154.233703 L21.6213173,156.464948 L21.8998678,158.138383 L23.7568731,160.648533 L24.6853752,163.716498 L25.5210273,166.412584 L26.2638294,168.178987 L28.2136847,171.525857 L29.0493368,173.01335 L29.3278879,174.686785 L30.25639,175.244595 L30.25639,176.639125 L29.792139,177.75475 L28.7707863,181.845367 L28.4922352,182.960986 L29.8849895,184.541453 L32.2990958,184.820358 L34.8989027,185.843015 L37.1273085,187.051603 L38.7986133,187.051603 L40.4699175,188.818006 L41.9555212,191.607066 L42.6054733,192.908622 L44.8338791,194.117216 L47.6193865,194.582057 L48.4550386,195.790651 L48.8264397,197.650023 L47.9907876,198.021896 L48.1764881,198.579706 L50.033494,199.044547 L51.6119482,199.137521 L53.4268414,198.167438 L55.6552489,200.58462 L56.1194999,201.886182 L57.6051065,204.303363 L57.7908064,206.162735 L57.7908064,211.554913 L58.0693564,212.577564 L63.8260723,213.414285 L75.1537984,214.994746 L83.1057448,215.770938 L83.1057448,215.770938 Z M32.4849819,190.630117 L33.2277863,191.513322 L33.1349363,192.257074 L31.2779247,192.21059 L30.9529475,191.513322 L30.5815453,190.676601 L32.4849819,190.630117 L32.4849819,190.630117 Z M33.5991885,190.630117 L34.295568,190.258244 L36.3382807,191.466838 L38.1024418,192.1641 L37.5917634,192.535984 L34.9919474,192.396526 L34.0634419,191.466838 L33.5991885,190.630117 L33.5991885,190.630117 Z M45.4840627,202.018808 L46.5054154,203.366854 L46.9696727,203.924669 L47.8517527,204.250058 L48.1767259,203.413338 L47.6196243,202.390681 L46.0875922,201.228572 L45.4840627,201.32154 L45.4840627,202.018808 L45.4840627,202.018808 Z M44.6484043,206.99264 L45.6697633,208.805534 L46.3661427,209.921165 L45.5304848,210.060611 L44.7876827,209.363349 C44.7876827,209.363349 44.3698538,208.526629 44.3698538,208.294202 L44.3698538,207.039124 L44.6484043,206.99264 L44.6484043,206.99264 Z" id="CA" stroke="#FFFFFF" stroke-width="0.75" fill="#D3D3D3"></path>
                    </g>
                </g>
            </g>
        </g>
    </g>
</svg>